<svg xmlns="http://www.w3.org/2000/svg" width="87.414" height="42.852" viewBox="0 0 87.414 42.852">
  <g id="infinito" transform="translate(0 -0.499)">
    <path id="Trazado_147349" data-name="Trazado 147349" d="M60.53,13.649a9.973,9.973,0,0,1,10.227-.237,9.708,9.708,0,0,1,0,17.025A9.973,9.973,0,0,1,60.53,30.2,40.076,40.076,0,0,1,48.518,18.672,51.767,51.767,0,0,0,33,3.776l0,0a21.577,21.577,0,0,0-21.994-.51A21.119,21.119,0,0,0,0,21.925,21.12,21.12,0,0,0,11,40.586a21.832,21.832,0,0,0,10.6,2.765h.1A21.659,21.659,0,0,0,33,40.076l.007,0a51.775,51.775,0,0,0,10.7-8.841A50.967,50.967,0,0,1,38.9,25.178a39.247,39.247,0,0,0-2.46-3.253A40.16,40.16,0,0,1,26.884,30.2h0a9.973,9.973,0,0,1-10.227.237,9.708,9.708,0,0,1,0-17.026,9.973,9.973,0,0,1,10.227.237h0A40.064,40.064,0,0,1,38.9,25.178,51.771,51.771,0,0,0,54.4,40.07l.009.007A21.655,21.655,0,0,0,65.707,43.35h.1a21.84,21.84,0,0,0,10.6-2.765,21.12,21.12,0,0,0,11-18.661,21.12,21.12,0,0,0-11-18.661,21.574,21.574,0,0,0-21.995.51l.007,0-.007,0a51.814,51.814,0,0,0-10.707,8.845,50.966,50.966,0,0,1,4.811,6.053,39.111,39.111,0,0,0,2.46,3.254A40.148,40.148,0,0,1,60.53,13.649Zm0,0" transform="translate(0 0)" fill="#ffca28"/>
    <g id="Grupo_85125" data-name="Grupo 85125" transform="translate(32.754 8.899)">
      <path id="Trazado_147350" data-name="Trazado 147350" d="M195.53,126a39.249,39.249,0,0,1,2.46,3.253A51.027,51.027,0,0,0,202.8,135.3a52.414,52.414,0,0,1-3.9,3.793,70.914,70.914,0,0,1-5.286-6.891c-.546-.806-1.14-1.6-1.771-2.377A40.269,40.269,0,0,0,195.53,126Zm0,0" transform="translate(-191.848 -112.97)" fill="#ffa726"/>
      <path id="Trazado_147351" data-name="Trazado 147351" d="M256.016,53.416h0a50.973,50.973,0,0,1,4.808,6.056c.246.363.5.722.759,1.077-.057-.079-.117-.157-.174-.237q.274.383.558.758c.015.02.029.04.044.059q.612.81,1.268,1.59l0,.006a40.315,40.315,0,0,1,3.681-3.831c-.626-.771-1.221-1.567-1.769-2.378a61.378,61.378,0,0,0-5.37-6.817A52.175,52.175,0,0,0,256.016,53.416Zm0,0" transform="translate(-245.06 -49.699)" fill="#ffa726"/>
    </g>
  </g>
</svg>
