<svg xmlns="http://www.w3.org/2000/svg" width="78.345" height="80" viewBox="0 0 78.345 80">
  <g id="configuration-tool-gear-laptop-computer" transform="translate(-2.621 -2)">
    <path id="Trazado_145987" data-name="Trazado 145987" d="M76.634,68.333H6.287A2.667,2.667,0,0,1,3.714,64.96L10.794,39H72.127l7.08,25.96a2.667,2.667,0,0,1-2.573,3.373Z" transform="translate(0.333 12.333)" fill="#c6c5ca"/>
    <path id="Trazado_145989" data-name="Trazado 145989" d="M67.667,9a2.675,2.675,0,0,1,2.667,2.667V49H9V11.667A2.675,2.675,0,0,1,11.667,9Z" transform="translate(2.126 2.333)" fill="#4dd0e1"/>
    <path id="Trazado_145990" data-name="Trazado 145990" d="M57,11.667V49H51.667V11.667A2.675,2.675,0,0,0,49,9h5.333A2.675,2.675,0,0,1,57,11.667Z" transform="translate(15.46 2.333)" fill="#00d7df"/>
    <path id="Trazado_145991" data-name="Trazado 145991" d="M45.667,53,47,58.333H23L24.333,53Z" transform="translate(6.793 17)" fill="#898890"/>
    <path id="Trazado_145993" data-name="Trazado 145993" d="M55.333,25.667l-7.253.72,4.613,5.653L47.04,37.693,41.387,33.08l-.72,7.253h-8l-.72-7.253-5.653,4.613L20.64,32.04l4.613-5.653L18,25.667v-8l7.253-.72L20.64,11.293,26.293,5.64l5.653,4.613L32.667,3h8l.72,7.253L47.04,5.64l5.653,5.653L48.08,16.947l7.253.72Z" transform="translate(5.126 0.333)" fill="#ffa726"/>
    <circle id="Elipse_4203" data-name="Elipse 4203" cx="6.667" cy="6.667" r="6.667" transform="translate(35.126 15.333)" fill="#ffca28"/>
    <path id="Trazado_145994" data-name="Trazado 145994" d="M50.667,17.667l-7.253-.72,4.613-5.653L42.373,5.64,36.72,10.253,36,3H32V40.333h4l.72-7.253,5.653,4.613,5.653-5.653-4.613-5.653,7.253-.72Z" transform="translate(9.793 0.333)" fill="#ffa726"/>
    <path id="Trazado_145995" data-name="Trazado 145995" d="M38.667,18.667A6.667,6.667,0,0,1,32,25.333V12A6.667,6.667,0,0,1,38.667,18.667Z" transform="translate(9.793 3.333)" fill="#ffca28"/>
    <path id="Trazado_145996" data-name="Trazado 145996" d="M80.82,76.947,73.793,51.16V14a4.012,4.012,0,0,0-4-4H58.073l-4.96-4.973a1.333,1.333,0,0,0-1.787-.08l-3.733,3.04L47.126,3.2A1.353,1.353,0,0,0,45.793,2h-8A1.353,1.353,0,0,0,36.46,3.2l-.467,4.787L32.26,4.947a1.333,1.333,0,0,0-1.787.08L25.513,10H13.793a4.012,4.012,0,0,0-4,4V51.16L2.766,76.947A3.985,3.985,0,0,0,6.62,82H76.966a3.985,3.985,0,0,0,3.853-5.053ZM31.513,7.773l4.707,3.853a1.359,1.359,0,0,0,1.36.2,1.343,1.343,0,0,0,.813-1.107l.6-6.053h5.6l.6,6.053a1.343,1.343,0,0,0,.813,1.107,1.359,1.359,0,0,0,1.36-.2l4.707-3.853L56.02,11.72l-3.853,4.707a1.359,1.359,0,0,0-.2,1.36,1.343,1.343,0,0,0,1.107.813l6.053.6v5.6l-6.053.6a1.343,1.343,0,0,0-1.107.813,1.359,1.359,0,0,0,.2,1.36L56.02,32.28l-3.947,3.947-4.707-3.853a1.359,1.359,0,0,0-1.36-.2,1.343,1.343,0,0,0-.813,1.107l-.6,6.053h-5.6l-.6-6.053a1.343,1.343,0,0,0-.813-1.107,1.359,1.359,0,0,0-1.36.2l-4.707,3.853L27.566,32.28l3.853-4.707a1.359,1.359,0,0,0,.2-1.36,1.343,1.343,0,0,0-1.107-.813l-6.053-.6V19.2l6.053-.6a1.343,1.343,0,0,0,1.107-.813,1.359,1.359,0,0,0-.2-1.36L27.566,11.72ZM12.46,14a1.333,1.333,0,0,1,1.333-1.333H24.886L27.78,16.2l-4.787.467A1.353,1.353,0,0,0,21.793,18v8a1.353,1.353,0,0,0,1.2,1.333l4.787.467-3.04,3.733a1.333,1.333,0,0,0,.08,1.787l5.653,5.653a1.333,1.333,0,0,0,1.787.08l3.733-3.04L36.46,40.8A1.353,1.353,0,0,0,37.793,42h8a1.353,1.353,0,0,0,1.333-1.2l.467-4.787,3.733,3.04a1.333,1.333,0,0,0,1.787-.08l5.653-5.653a1.333,1.333,0,0,0,.08-1.787L55.806,27.8l4.787-.467A1.353,1.353,0,0,0,61.793,26V18a1.353,1.353,0,0,0-1.2-1.333L55.806,16.2,58.7,12.667H69.793A1.333,1.333,0,0,1,71.126,14V50H12.46ZM78.033,78.813a1.32,1.32,0,0,1-1.067.52H6.62a1.32,1.32,0,0,1-1.067-.52,1.36,1.36,0,0,1-.227-1.173L12.14,52.667H71.446L78.26,77.64A1.36,1.36,0,0,1,78.033,78.813Z"/>
    <path id="Trazado_145997" data-name="Trazado 145997" d="M47.293,53.009A1.333,1.333,0,0,0,46,52H24.667a1.333,1.333,0,0,0-1.293,1.009L22.04,58.343A1.333,1.333,0,0,0,23.333,60h24a1.333,1.333,0,0,0,1.293-1.657ZM25.041,57.333l.667-2.667H44.959l.667,2.667Z" transform="translate(6.46 16.667)"/>
    <path id="Trazado_145998" data-name="Trazado 145998" d="M27,34H40.333v2.667H27Z" transform="translate(8.126 10.667)"/>
    <path id="Trazado_145999" data-name="Trazado 145999" d="M12,42h5.333v2.667H12Z" transform="translate(3.126 13.333)"/>
    <path id="Trazado_146000" data-name="Trazado 146000" d="M18,42h5.333v2.667H18Z" transform="translate(5.126 13.333)"/>
    <path id="Trazado_146001" data-name="Trazado 146001" d="M24,42h5.333v2.667H24Z" transform="translate(7.126 13.333)"/>
    <path id="Trazado_146002" data-name="Trazado 146002" d="M36,42h5.333v2.667H36Z" transform="translate(11.126 13.333)"/>
    <path id="Trazado_146003" data-name="Trazado 146003" d="M42,42h5.333v2.667H42Z" transform="translate(13.126 13.333)"/>
    <path id="Trazado_146004" data-name="Trazado 146004" d="M48,42h5.333v2.667H48Z" transform="translate(15.126 13.333)"/>
    <path id="Trazado_146005" data-name="Trazado 146005" d="M30,42h5.333v2.667H30Z" transform="translate(9.126 13.333)"/>
    <path id="Trazado_146006" data-name="Trazado 146006" d="M12,46h5.333v2.667H12Z" transform="translate(3.126 14.667)"/>
    <path id="Trazado_146007" data-name="Trazado 146007" d="M18,46h5.333v2.667H18Z" transform="translate(5.126 14.667)"/>
    <path id="Trazado_146008" data-name="Trazado 146008" d="M24,46h5.333v2.667H24Z" transform="translate(7.126 14.667)"/>
    <path id="Trazado_146009" data-name="Trazado 146009" d="M36,46h5.333v2.667H36Z" transform="translate(11.126 14.667)"/>
    <path id="Trazado_146010" data-name="Trazado 146010" d="M42,46h5.333v2.667H42Z" transform="translate(13.126 14.667)"/>
    <path id="Trazado_146011" data-name="Trazado 146011" d="M48,46h5.333v2.667H48Z" transform="translate(15.126 14.667)"/>
    <path id="Trazado_146012" data-name="Trazado 146012" d="M30,46h5.333v2.667H30Z" transform="translate(9.126 14.667)"/>
    <path id="Trazado_146013" data-name="Trazado 146013" d="M34,27a8,8,0,1,0-8-8,8,8,0,0,0,8,8Zm0-13.333A5.333,5.333,0,1,1,28.667,19,5.333,5.333,0,0,1,34,13.667Z" transform="translate(7.793 3)"/>
  </g>
</svg>
