<svg xmlns="http://www.w3.org/2000/svg" width="88.131" height="72.316" viewBox="0 0 88.131 72.316">
  <g id="caja-de-entrega" transform="translate(0 -45.94)">
    <g id="Grupo_85102" data-name="Grupo 85102" transform="translate(8.192 47.661)">
      <path id="Trazado_145908" data-name="Trazado 145908" d="M47.591,58.92v42.814a12.273,12.273,0,0,1,16.76,16.311h42.364a2.992,2.992,0,0,0,2.979-2.984v-8a6.794,6.794,0,0,1-3.741,1.133H84.627a3.365,3.365,0,0,1-.019-6.73H80.085a3.367,3.367,0,0,1,0-6.734H74.816a3.365,3.365,0,0,1,0-6.73h5.25a3.367,3.367,0,0,1,.019-6.734H99.292a5.465,5.465,0,0,1-5.123-3.511c-.825-2.144-.22-4.014,2.305-4.053h9.7a7.724,7.724,0,0,1,3.521.923V58.92a2.991,2.991,0,0,0-2.979-2.979H85.945V72.892l-7.3-4.566-7.306,4.566V55.941H50.57a2.991,2.991,0,0,0-2.979,2.979Z" transform="translate(-47.591 -55.941)" fill="#ffa726" fill-rule="evenodd"/>
    </g>
    <g id="Grupo_85103" data-name="Grupo 85103" transform="translate(31.94 47.661)">
      <path id="Trazado_145909" data-name="Trazado 145909" d="M200.162,55.941H185.556V72.892l7.306-4.566,7.3,4.566Z" transform="translate(-185.556 -55.941)" fill="#fff1d8" fill-rule="evenodd"/>
    </g>
    <g id="Grupo_85104" data-name="Grupo 85104" transform="translate(32.052 65.418)">
      <path id="Trazado_145910" data-name="Trazado 145910" d="M214.05,166.663H194.844a3.367,3.367,0,0,0-.019,6.734h-5.25a3.365,3.365,0,0,0,0,6.73h5.269a3.367,3.367,0,0,0,0,6.734h4.522a3.365,3.365,0,0,0,.019,6.73h21.326a6.794,6.794,0,0,0,3.741-1.133c2.349-1.455,4.117-3.809,7.74-3.809h6.451a1.927,1.927,0,0,0,1.924-1.919V170.492a1.928,1.928,0,0,0-1.924-1.924h-2.51c-4.742-.181-7.223-6.2-11.681-8.546a7.724,7.724,0,0,0-3.521-.923h-9.7c-2.525.039-3.13,1.909-2.305,4.053A5.465,5.465,0,0,0,214.05,166.663Z" transform="translate(-186.21 -159.099)" fill="#f2b394" fill-rule="evenodd"/>
    </g>
    <g id="Grupo_85105" data-name="Grupo 85105" transform="translate(1.721 92.004)">
      <path id="Trazado_145911" data-name="Trazado 145911" d="M22.262,313.551a12.275,12.275,0,1,0,12.262,12.263,12.238,12.238,0,0,0-12.262-12.263Z" transform="translate(-10 -313.551)" fill="#4dd0e1" fill-rule="evenodd"/>
    </g>
    <g id="Grupo_85106" data-name="Grupo 85106" transform="translate(0 45.94)">
      <path id="Trazado_145912" data-name="Trazado 145912" d="M58.271,356.41a1.721,1.721,0,0,0-2.425.214l-4.3,5.139-1.556-1.318a1.721,1.721,0,0,0-2.225,2.627l2.876,2.437a1.721,1.721,0,0,0,1.113.408q.073,0,.147-.006a1.721,1.721,0,0,0,1.173-.61l5.416-6.466A1.722,1.722,0,0,0,58.271,356.41Z" transform="translate(-39.036 -302.636)"/>
      <path id="Trazado_145913" data-name="Trazado 145913" d="M84.485,73.166H82.011c-2.072-.1-3.739-1.861-5.667-3.9a24.778,24.778,0,0,0-4.33-3.908V50.64a4.706,4.706,0,0,0-4.7-4.7H11.171a4.706,4.706,0,0,0-4.7,4.7v11.94a1.721,1.721,0,0,0,3.443,0V50.64a1.275,1.275,0,0,1,1.258-1.258H30.218v15.23a1.721,1.721,0,0,0,2.634,1.46l6.393-4,6.388,4a1.721,1.721,0,0,0,2.634-1.459V49.383H67.315a1.275,1.275,0,0,1,1.258,1.258V63.9a9.417,9.417,0,0,0-1.769-.2H57.048a4.215,4.215,0,0,0-3.67,1.756,4.959,4.959,0,0,0-.215,4.635,7.322,7.322,0,0,0,.576,1.173H40.686A5.088,5.088,0,0,0,35.873,78h-.457a5.086,5.086,0,0,0,0,10.172h.456A5.092,5.092,0,0,0,40.416,94.9a5.087,5.087,0,0,0,4.811,6.737H66.553a8.281,8.281,0,0,0,2.019-.244v5.394a1.277,1.277,0,0,1-1.258,1.262H27.444A13.981,13.981,0,0,0,9.913,90.889V78.056a1.721,1.721,0,0,0-3.443,0V92.481a13.981,13.981,0,1,0,19.486,19.005H67.315a4.708,4.708,0,0,0,4.7-4.705V99.695c.38-.272.743-.55,1.1-.822,1.52-1.171,2.833-2.183,4.923-2.183h6.451a3.647,3.647,0,0,0,3.645-3.641V76.811a3.65,3.65,0,0,0-3.646-3.646ZM44.825,61.505l-4.667-2.919a1.722,1.722,0,0,0-1.825,0l-4.672,2.92V49.383H44.825ZM13.983,114.813a10.544,10.544,0,1,1,10.541-10.546,10.555,10.555,0,0,1-10.541,10.546Zm70.7-21.764a.206.206,0,0,1-.2.2H78.034c-3.263,0-5.261,1.54-7.024,2.9-1.482,1.142-2.652,2.044-4.456,2.044H45.228a1.643,1.643,0,0,1,0-3.287h5.714a1.721,1.721,0,1,0,0-3.443H40.686a1.646,1.646,0,0,1,0-3.292H50.941a1.721,1.721,0,1,0,0-3.443H35.417a1.644,1.644,0,0,1,0-3.287H50.941a1.721,1.721,0,1,0,0-3.443H40.686a1.646,1.646,0,0,1,0-3.292H66.124a1.721,1.721,0,0,0,0-3.443H59.893a3.736,3.736,0,0,1-3.516-2.408c-.327-.851-.238-1.336-.145-1.473a1.2,1.2,0,0,1,.858-.24h9.668c2.9.058,4.934,2.21,7.085,4.487,2.25,2.383,4.576,4.847,8.067,4.981h2.576a.206.206,0,0,1,.2.2V93.049Z" transform="translate(0 -45.94)"/>
      <path id="Trazado_145914" data-name="Trazado 145914" d="M39.312,181a1.724,1.724,0,1,0-1.721-1.726v.01A1.717,1.717,0,0,0,39.312,181Z" transform="translate(-31.12 -154.9)"/>
    </g>
  </g>
</svg>
