<svg xmlns="http://www.w3.org/2000/svg" width="82" height="82" viewBox="0 0 82 82">
  <g id="desafios" transform="translate(-1 -1)">
    <path id="Trazado_145789" data-name="Trazado 145789" d="M8.968,69.02,5,75.871H80.387V19Z" transform="translate(1.29 5.806)" fill="#ffa726"/>
    <path id="Trazado_145790" data-name="Trazado 145790" d="M48.548,8A14.548,14.548,0,1,1,34,22.548,14.54,14.54,0,0,1,48.548,8Zm6.613,14.548a6.613,6.613,0,1,0-6.613,6.613A6.615,6.615,0,0,0,55.161,22.548Z" transform="translate(10.645 2.258)" fill="#ffa726"/>
    <path id="Trazado_145791" data-name="Trazado 145791" d="M45.749,43.741v-.013a19.378,19.378,0,0,1-5.528-2.288l-2.83,1.746-5.608-5.608,1.746-2.83a19.378,19.378,0,0,1-2.288-5.528l-.251-.066a3.464,3.464,0,0,0,.979-2.434,3.55,3.55,0,0,0-3.558-3.558H28V20.516l3.24-.767a19.379,19.379,0,0,1,2.288-5.528l-1.746-2.83L37.39,5.783l2.83,1.746A19.378,19.378,0,0,1,45.749,5.24L46.516,2h7.935l.767,3.24a19.378,19.378,0,0,1,5.528,2.288l2.83-1.746,5.608,5.608-1.746,2.83a19.379,19.379,0,0,1,2.288,5.528l3.24.767v7.935l-3.24.767a19.379,19.379,0,0,1-2.288,5.528l1.746,2.83-5.608,5.608-2.83-1.746a19.378,19.378,0,0,1-5.528,2.288l-.767,3.24H46.516ZM65.032,24.484A14.548,14.548,0,1,0,50.484,39.032,14.54,14.54,0,0,0,65.032,24.484Z" transform="translate(8.71 0.323)" fill="#ffca28"/>
    <path id="Trazado_145792" data-name="Trazado 145792" d="M9.935,62.246v2.883a3.968,3.968,0,0,1-7.935,0V40a5.289,5.289,0,0,0,5.29,5.29H9.935Z" transform="translate(0.323 12.581)" fill="#1565c0"/>
    <path id="Trazado_145793" data-name="Trazado 145793" d="M25.806,51.847v3.346A3.965,3.965,0,0,1,19.035,58a4.352,4.352,0,0,1-.714-.965,3.9,3.9,0,0,1-.45-1.838V47.258a1.326,1.326,0,0,0-1.323-1.323H7.29A5.289,5.289,0,0,1,2,40.645V38H20.516a5.289,5.289,0,0,1,5.29,5.29Z" transform="translate(0.323 11.935)" fill="#1565c0"/>
    <path id="Trazado_145794" data-name="Trazado 145794" d="M40.355,21.558a3.464,3.464,0,0,1-.979,2.434,3.548,3.548,0,0,1-.4.37l-8.385,6.52a7.885,7.885,0,0,1-4.867,1.666H16.548v11.9H2V36.516A10.578,10.578,0,0,1,12.581,25.935H23.6a2.6,2.6,0,0,0,1.587-.529l8.927-6.692A3.566,3.566,0,0,1,36.255,18H36.8a3.55,3.55,0,0,1,3.558,3.558Z" transform="translate(0.323 5.484)" fill="#4dd0e1"/>
    <circle id="Elipse_4195" data-name="Elipse 4195" cx="7.935" cy="7.935" r="7.935" transform="translate(6.29 15.548)" fill="#f0d0b4"/>
    <path id="Trazado_145795" data-name="Trazado 145795" d="M0,0H2.627V2.644H0Z" transform="matrix(0.821, -0.572, 0.572, 0.821, 29.876, 66.055)"/>
    <path id="Trazado_145796" data-name="Trazado 145796" d="M0,0H21.932V2.644H0Z" transform="matrix(0.821, -0.572, 0.572, 0.821, 34.675, 62.71)"/>
    <path id="Trazado_145797" data-name="Trazado 145797" d="M79.515,18.971a21.022,21.022,0,0,0-1.826-4.407l1.886-3.046L72.482,4.425,69.436,6.311a21.023,21.023,0,0,0-4.407-1.826L64.209,1H54.178l-.82,3.485a21.023,21.023,0,0,0-4.407,1.826L45.906,4.425l-7.093,7.093L40.7,14.564a21.023,21.023,0,0,0-1.826,4.407l-3.485.82v2.534a4.859,4.859,0,0,0-1.741.812l-8.929,6.695a1.331,1.331,0,0,1-.794.265H20.692a9.261,9.261,0,1,0-12.006.786A11.912,11.912,0,0,0,1,42V77.71A5.3,5.3,0,0,0,6.29,83H83V19.791Zm-71.9,4.513A6.613,6.613,0,1,1,14.226,30.1,6.62,6.62,0,0,1,7.613,23.484Zm5.29,9.258H23.924a3.987,3.987,0,0,0,2.381-.795l8.927-6.695a2.254,2.254,0,0,1,1.34-.446h.553A2.231,2.231,0,0,1,38.494,28.8l-8.383,6.52a6.646,6.646,0,0,1-4.06,1.391h-10.5v11.9H3.645V42A9.27,9.27,0,0,1,12.9,32.742Zm7.935,15.871H18.194V39.355h7.857A9.29,9.29,0,0,0,31.735,37.4l7.45-5.794A20.883,20.883,0,0,0,40.7,35.049l-1.886,3.046,7.093,7.093L48.951,43.3a21,21,0,0,0,2.583,1.189L27.452,61.254V55.226A6.62,6.62,0,0,0,20.839,48.613ZM3.645,51.258H20.839a3.973,3.973,0,0,1,3.968,3.968v11.9a2.646,2.646,0,1,1-5.292,0V59.194a2.648,2.648,0,0,0-2.645-2.645H7.613a3.973,3.973,0,0,1-3.968-3.968Zm7.935,7.935h5.29v7.933h0a5.308,5.308,0,0,0,.19,1.337l-5.479,3.829ZM3.645,77.71V57.837a6.544,6.544,0,0,0,3.968,1.357H8.935V77.71a2.645,2.645,0,0,1-5.29,0Zm76.71,2.645H10.845a5.236,5.236,0,0,0,.735-2.645V75.521l6.772-4.732c.024.025.041.056.066.081a5.291,5.291,0,0,0,9.033-3.742V64.476L53.624,46.259l.554,2.354h10.03l.82-3.485A21.023,21.023,0,0,0,69.436,43.3l3.046,1.886,7.093-7.093-1.886-3.046a21.023,21.023,0,0,0,1.826-4.407l.84-.2Zm0-52.628-3.006.708-.193.788a18.357,18.357,0,0,1-2.139,5.162l-.421.692L76.222,37.7l-4.13,4.13-2.627-1.625-.692.421a18.356,18.356,0,0,1-5.162,2.139l-.788.193-.709,3.008H56.273l-.708-3.006-.788-.193a18.356,18.356,0,0,1-5.162-2.139l-.692-.421L46.3,41.835l-4.13-4.13,1.625-2.627-.421-.692a18.313,18.313,0,0,1-2.062-4.894,4.828,4.828,0,0,0-3.277-7.238v-.366l3.006-.708.193-.788A18.356,18.356,0,0,1,43.37,15.23l.421-.692-1.625-2.627,4.13-4.13,2.627,1.625.692-.421a18.356,18.356,0,0,1,5.162-2.139l.788-.193.709-3.009h5.841l.708,3.006.788.193a18.356,18.356,0,0,1,5.162,2.139l.692.421L72.09,7.778l4.13,4.13L74.6,14.535l.421.692a18.356,18.356,0,0,1,2.139,5.162l.193.788,3.008.709v5.841Z"/>
    <path id="Trazado_145798" data-name="Trazado 145798" d="M48.871,7A15.871,15.871,0,1,0,64.742,22.871,15.889,15.889,0,0,0,48.871,7Zm0,29.1A13.226,13.226,0,1,1,62.1,22.871,13.241,13.241,0,0,1,48.871,36.1Z" transform="translate(10.323 1.935)"/>
    <path id="Trazado_145799" data-name="Trazado 145799" d="M46.935,13a7.935,7.935,0,1,0,7.935,7.935A7.943,7.943,0,0,0,46.935,13Zm0,13.226a5.29,5.29,0,1,1,5.29-5.29A5.3,5.3,0,0,1,46.935,26.226Z" transform="translate(12.258 3.871)"/>
    <path id="Trazado_145800" data-name="Trazado 145800" d="M57,57h2.645v2.645H57Z" transform="translate(18.065 18.065)"/>
    <path id="Trazado_145801" data-name="Trazado 145801" d="M57,53h2.645v2.645H57Z" transform="translate(18.065 16.774)"/>
    <path id="Trazado_145802" data-name="Trazado 145802" d="M57,49h2.645v2.645H57Z" transform="translate(18.065 15.484)"/>
    <path id="Trazado_145803" data-name="Trazado 145803" d="M11,57h2.645v2.645H11Z" transform="translate(3.226 18.065)"/>
    <path id="Trazado_145804" data-name="Trazado 145804" d="M15,57h2.645v2.645H15Z" transform="translate(4.516 18.065)"/>
    <path id="Trazado_145805" data-name="Trazado 145805" d="M19,57h2.645v2.645H19Z" transform="translate(5.806 18.065)"/>
  </g>
</svg>
