<svg xmlns="http://www.w3.org/2000/svg" width="79.998" height="80" viewBox="0 0 79.998 80">
  <g id="Filled_Outline" data-name="Filled Outline" transform="translate(-2 -1.999)">
    <path id="Trazado_145915" data-name="Trazado 145915" d="M7.667,19H74.332A2.667,2.667,0,0,1,77,21.667v48H5v-48A2.667,2.667,0,0,1,7.667,19Z" transform="translate(1 5.667)" fill="#1565c0"/>
    <rect id="Rectángulo_31820" data-name="Rectángulo 31820" width="61.332" height="39.999" transform="translate(11.333 30)" fill="#e6e6e6"/>
    <path id="Trazado_145916" data-name="Trazado 145916" d="M3,57H80.332v2.667a2.667,2.667,0,0,1-2.667,2.667h-72A2.667,2.667,0,0,1,3,59.667Z" transform="translate(0.333 18.332)" fill="#1565c0"/>
    <path id="Trazado_145917" data-name="Trazado 145917" d="M34,38l-8,9.333h4v5.333h8V47.333h4Z" transform="translate(7.999 11.999)" fill="#ffa726"/>
    <path id="Trazado_145922" data-name="Trazado 145922" d="M20,0A20,20,0,1,1,1.511,27.64,19.559,19.559,0,0,1,0,20,20,20,0,0,1,20,0Z" transform="translate(22 3.334)" fill="#ffca28"/>
    <path id="Trazado_145918" data-name="Trazado 145918" d="M49.637,26.359c.011-.048.027-.093.037-.141.133-.589.221-1.192.3-1.8.012-.105.036-.207.047-.312a19.8,19.8,0,0,0,.117-2.135A20.1,20.1,0,0,0,50,19.727c-.025-.221-.068-.437-.1-.657-.076-.519-.163-1.035-.279-1.539-.052-.232-.116-.46-.176-.688-.133-.5-.28-.988-.449-1.467-.068-.2-.133-.393-.215-.587q-.309-.8-.687-1.572c-.06-.12-.115-.243-.175-.363a20.176,20.176,0,0,0-5.675-6.771h0L40.816,7.1a5.459,5.459,0,0,0-1.567,7.149l.819,1.432a5.456,5.456,0,0,1-.88,6.567,5.459,5.459,0,0,0,1.152,8.6l.593.339a5.457,5.457,0,0,0,5.148.143L48.348,30.2h0A20.089,20.089,0,0,0,49.637,26.359Z" transform="translate(11.863 1.362)" fill="#039be5"/>
    <path id="Trazado_145919" data-name="Trazado 145919" d="M37.378,30.714a9.618,9.618,0,0,1-5.712-8.784,9.615,9.615,0,0,0-1.792-5.591l-.628-.879a9.6,9.6,0,0,0-10.4-3.644h0a20.481,20.481,0,0,0-.777,1.943l-.009.027a19.7,19.7,0,0,0-.533,1.9c-.015.063-.035.123-.048.185-.133.588-.225,1.192-.3,1.8-.015.116-.04.228-.052.345A19.6,19.6,0,0,0,17,20.181a20,20,0,0,0,20,20c.644,0,1.279-.037,1.908-.1.428-.043.849-.111,1.269-.18.173-.028.348-.047.519-.079q.816-.159,1.609-.38l.089-.023q.844-.237,1.657-.547a11.713,11.713,0,0,0-6.673-8.163Z" transform="translate(5 3.152)" fill="#039be5"/>
    <path id="Trazado_145920" data-name="Trazado 145920" d="M79.332,27.333a4,4,0,0,0-4-4h-12A21.343,21.343,0,0,0,63.2,21c-.031-.285-.088-.564-.133-.848-.071-.469-.143-.933-.244-1.4-.076-.345-.172-.684-.267-1.025-.1-.381-.211-.76-.336-1.132s-.255-.721-.4-1.077-.277-.667-.428-1c-.16-.353-.324-.7-.505-1.048s-.372-.667-.567-.993c-.183-.307-.356-.616-.555-.913-.348-.523-.723-1.027-1.113-1.516-.067-.083-.123-.172-.191-.255a21.618,21.618,0,0,0-1.6-1.733c-.072-.068-.148-.133-.221-.2q-.765-.727-1.6-1.375c-.044-.033-.081-.073-.125-.107l-.781-.593-.019.012a21.269,21.269,0,0,0-31.2,8.044l-.023.007-.267.56c-.015.033-.025.068-.04.1q-.419.916-.748,1.875c-.029.083-.063.164-.091.247-.2.609-.373,1.231-.52,1.867-.028.116-.064.231-.089.347-.133.595-.221,1.2-.3,1.812-.017.143-.049.283-.065.427a21.693,21.693,0,0,0-.107,2.249h-12a4,4,0,0,0-4,4V74H2v4a4,4,0,0,0,4,4H78a4,4,0,0,0,4-4V74H79.332Zm-55.9-5.867A18.478,18.478,0,0,1,24.8,16.111a8.28,8.28,0,0,1,8.359,3.277l.628.879a8.24,8.24,0,0,1,1.547,4.816,10.961,10.961,0,0,0,6.5,10.008h0a10.421,10.421,0,0,1,5.588,6.087c-.409.133-.821.235-1.235.331-.041.009-.08.023-.121.032-.293.067-.591.116-.887.168s-.579.1-.871.133c-.221.028-.441.055-.667.075-.545.048-1.093.084-1.651.084A18.686,18.686,0,0,1,23.333,23.333C23.333,22.7,23.366,22.081,23.428,21.467ZM42,44.666c.673,0,1.344-.037,2.012-.1.383-.036.755-.1,1.131-.156.267-.04.524-.071.784-.121.5-.093.991-.213,1.479-.341.123-.033.248-.061.371-.1.533-.151,1.067-.327,1.577-.517.056-.021.113-.035.171-.056l.625-.236c.053-.023.108-.039.161-.061l.295-.111-.007-.028A21.434,21.434,0,0,0,61.207,32.553l.028-.013.195-.432c.013-.028.021-.057.033-.085.1-.228.2-.457.3-.689h9.57V68.666H12.666V31.333h9.57A21.356,21.356,0,0,0,42,44.666ZM59.188,30.582l-1.84.919a4.113,4.113,0,0,1-3.889-.108l-.595-.339a4.127,4.127,0,0,1-.871-6.5,6.8,6.8,0,0,0,1.095-8.171l-.823-1.432a4.113,4.113,0,0,1,1.184-5.4l.611-.436a19,19,0,0,1,1.387,1.309c.115.119.223.244.333.367q.46.5.879,1.028.243.309.469.629c.207.283.4.572.592.867.169.267.333.533.489.8s.289.533.427.8c.153.3.305.605.441.916.119.267.221.533.325.813.123.317.248.636.353.961.1.3.173.607.255.912s.172.613.239.933c.08.379.133.764.189,1.149.037.253.089.5.116.759a18.987,18.987,0,0,1,.111,1.973,18.549,18.549,0,0,1-1.477,7.249ZM42,4.667a18.52,18.52,0,0,1,9.8,2.808,6.764,6.764,0,0,0-1.841,8.8l.819,1.432a4.133,4.133,0,0,1-.667,4.961,6.792,6.792,0,0,0,1.432,10.7l.595.34a6.72,6.72,0,0,0,4.831.733,18.746,18.746,0,0,1-7.056,5.775,13.1,13.1,0,0,0-6.989-7.56h0A8.293,8.293,0,0,1,38,25.083a10.888,10.888,0,0,0-2.04-6.365l-.627-.88a10.933,10.933,0,0,0-9.054-4.524A18.649,18.649,0,0,1,42,4.667ZM7.333,27.333A1.333,1.333,0,0,1,8.667,26H20.852a20.988,20.988,0,0,0,.517,2.667H10V71.332H74V28.667H62.629c.056-.215.117-.428.167-.645.019-.083.045-.163.064-.245.124-.583.212-1.177.287-1.776H75.332a1.333,1.333,0,0,1,1.333,1.333V74H7.333ZM79.332,78A1.333,1.333,0,0,1,78,79.332H6A1.333,1.333,0,0,1,4.667,78V76.666H79.332Z" transform="translate(0 0)"/>
    <path id="Trazado_145921" data-name="Trazado 145921" d="M29.391,54.512H40.058V49.179h5.565l-10.9-12.716-10.9,12.716h5.565Zm5.333-13.95,5.1,5.951H37.391v5.333H32.058V46.512H29.623Z" transform="translate(7.275 11.487)"/>
  </g>
</svg>
