<svg xmlns="http://www.w3.org/2000/svg" width="505.5" height="300.678" viewBox="0 0 505.5 300.678">
  <g id="Grupo_84576" data-name="Grupo 84576" transform="translate(-915 -1415.068)">
    <path id="Trazado_145313" data-name="Trazado 145313" d="M254,702.226v-8.295a1.469,1.469,0,0,0-1.469-1.47H250.4a1.347,1.347,0,0,1-1.318-1.033,29.357,29.357,0,0,0-3.7-8.969,1.368,1.368,0,0,1,.179-1.7l1.5-1.5a1.47,1.47,0,0,0,0-2.078l-5.865-5.865a1.469,1.469,0,0,0-2.078,0l-1.5,1.5a1.368,1.368,0,0,1-1.7.178,29.351,29.351,0,0,0-8.97-3.7,1.347,1.347,0,0,1-1.033-1.318v-2.129a1.47,1.47,0,0,0-1.47-1.469h-8.295a1.47,1.47,0,0,0-1.47,1.469v2.129a1.348,1.348,0,0,1-1.034,1.318,29.372,29.372,0,0,0-8.971,3.7,1.368,1.368,0,0,1-1.7-.178l-1.5-1.5a1.469,1.469,0,0,0-2.078,0l-5.865,5.865a1.47,1.47,0,0,0,0,2.078l1.5,1.5a1.366,1.366,0,0,1,.178,1.7,29.4,29.4,0,0,0-3.7,8.971,1.346,1.346,0,0,1-1.318,1.033h-2.133a1.47,1.47,0,0,0-1.47,1.47v8.295a1.47,1.47,0,0,0,1.47,1.47h2.133a1.347,1.347,0,0,1,1.318,1.034,29.385,29.385,0,0,0,3.7,8.968,1.368,1.368,0,0,1-.178,1.7l-1.5,1.5a1.469,1.469,0,0,0,0,2.078l5.865,5.866a1.469,1.469,0,0,0,2.078,0l1.5-1.5a1.369,1.369,0,0,1,1.7-.179,29.354,29.354,0,0,0,8.966,3.693,1.347,1.347,0,0,1,1.034,1.318v2.139a1.47,1.47,0,0,0,1.47,1.47h8.295a1.47,1.47,0,0,0,1.47-1.47v-2.14a1.347,1.347,0,0,1,1.034-1.318,29.388,29.388,0,0,0,8.966-3.692,1.368,1.368,0,0,1,1.7.178l1.5,1.5a1.469,1.469,0,0,0,2.078,0l5.865-5.866a1.469,1.469,0,0,0,0-2.078l-1.5-1.5a1.369,1.369,0,0,1-.179-1.7,29.34,29.34,0,0,0,3.7-8.967A1.347,1.347,0,0,1,250.4,703.7h2.137A1.469,1.469,0,0,0,254,702.226Zm-33.7,19.241a23.386,23.386,0,1,1,23.375-23.4A23.382,23.382,0,0,1,220.3,721.467Z" transform="translate(846.355 787.832)" fill="#00a79a"/>
    <path id="Trazado_145314" data-name="Trazado 145314" d="M306.2,739.763V734.11a1,1,0,0,0-1-1h-1.455a.919.919,0,0,1-.9-.7,20.009,20.009,0,0,0-2.518-6.111.932.932,0,0,1,.121-1.157l1.023-1.023a1,1,0,0,0,0-1.416l-4-4a1,1,0,0,0-1.416,0l-1.022,1.022a.934.934,0,0,1-1.157.121,20,20,0,0,0-6.113-2.521.919.919,0,0,1-.7-.9v-1.45a1,1,0,0,0-1-1H280.41a1,1,0,0,0-1,1v1.45a.919.919,0,0,1-.7.9,20,20,0,0,0-6.114,2.52.934.934,0,0,1-1.157-.121l-1.021-1.021a1,1,0,0,0-1.416,0l-4,4a1,1,0,0,0,0,1.416l1.022,1.022a.932.932,0,0,1,.121,1.156,20,20,0,0,0-2.519,6.113.919.919,0,0,1-.9.7h-1.453a1,1,0,0,0-1,1v5.653a1,1,0,0,0,1,1h1.454a.917.917,0,0,1,.9.7,20.04,20.04,0,0,0,2.519,6.112.931.931,0,0,1-.121,1.157L265,749.761a1,1,0,0,0,0,1.416l4,4a1,1,0,0,0,1.416,0l1.025-1.025a.932.932,0,0,1,1.157-.122,20.009,20.009,0,0,0,6.111,2.517.918.918,0,0,1,.7.9V758.9a1,1,0,0,0,1,1h5.653a1,1,0,0,0,1-1v-1.458a.919.919,0,0,1,.7-.9,20.014,20.014,0,0,0,6.11-2.516.932.932,0,0,1,1.156.121l1.025,1.025a1,1,0,0,0,1.416,0l4-4a1,1,0,0,0,0-1.416l-1.025-1.024a.934.934,0,0,1-.121-1.157,20.014,20.014,0,0,0,2.519-6.111.918.918,0,0,1,.9-.7H305.2A1,1,0,0,0,306.2,739.763Zm-22.967,12.214a15.038,15.038,0,1,1,15.031-15.044A15.036,15.036,0,0,1,283.235,751.977Z" transform="translate(832.309 778.375)" fill="#9aede5"/>
    <circle id="Elipse_4179" data-name="Elipse 4179" cx="2.74" cy="2.74" r="2.74" transform="translate(1029.318 1662.34)" fill="#00a79a"/>
    <circle id="Elipse_4180" data-name="Elipse 4180" cx="2.74" cy="2.74" r="2.74" transform="translate(1396.449 1587.461)" fill="#00a79a"/>
    <circle id="Elipse_4181" data-name="Elipse 4181" cx="2.74" cy="2.74" r="2.74" transform="translate(1390.967 1489.607)" fill="#00a79a"/>
    <circle id="Elipse_4182" data-name="Elipse 4182" cx="1.719" cy="1.719" r="1.719" transform="translate(1293.461 1457.369)" fill="#00a79a"/>
    <path id="Trazado_145315" data-name="Trazado 145315" d="M197.936,644.178a1.719,1.719,0,1,1-1.719-1.719A1.719,1.719,0,0,1,197.936,644.178Z" transform="translate(844.852 792.012)" fill="#00a79a"/>
    <path id="Trazado_145316" data-name="Trazado 145316" d="M244.946,774.974a1.719,1.719,0,1,1-1.719-1.719A1.719,1.719,0,0,1,244.946,774.974Z" transform="translate(835.887 767.072)" fill="#00a79a"/>
    <path id="Trazado_145317" data-name="Trazado 145317" d="M167.025,930.383a1.719,1.719,0,1,1-1.719-1.719A1.719,1.719,0,0,1,167.025,930.383Z" transform="translate(850.746 737.438)" fill="#00a79a"/>
    <circle id="Elipse_4183" data-name="Elipse 4183" cx="2.74" cy="2.74" r="2.74" transform="translate(1356.25 1663.959)" fill="#00a79a"/>
    <circle id="Elipse_4184" data-name="Elipse 4184" cx="2.74" cy="2.74" r="2.74" transform="translate(1414.52 1663.959)" fill="#00a79a"/>
    <circle id="Elipse_4185" data-name="Elipse 4185" cx="2.74" cy="2.74" r="2.74" transform="translate(1087.293 1425.979)" fill="#00a79a"/>
    <path id="Trazado_145318" data-name="Trazado 145318" d="M489.022,788.545a3.667,3.667,0,1,1-3.667-3.667A3.667,3.667,0,0,1,489.022,788.545Z" transform="translate(790.088 764.855)" fill="#00a79a"/>
    <path id="Trazado_145319" data-name="Trazado 145319" d="M154.855,732.519a3.667,3.667,0,1,1-3.666-3.667A3.667,3.667,0,0,1,154.855,732.519Z" transform="translate(853.809 775.539)" fill="#00a79a"/>
    <rect id="Rectángulo_31672" data-name="Rectángulo 31672" width="5.686" height="5.686" rx="0.664" transform="translate(993.199 1447.637)" fill="#ffedb5"/>
    <rect id="Rectángulo_31673" data-name="Rectángulo 31673" width="5.686" height="5.686" rx="0.664" transform="translate(1000.805 1447.637)" fill="#ffedb5"/>
    <rect id="Rectángulo_31674" data-name="Rectángulo 31674" width="5.686" height="5.686" rx="0.664" transform="translate(1008.41 1447.637)" fill="#ffedb5"/>
    <rect id="Rectángulo_31675" data-name="Rectángulo 31675" width="5.686" height="5.686" rx="0.664" transform="translate(1380.52 1647.322)" fill="#9aede5"/>
    <rect id="Rectángulo_31676" data-name="Rectángulo 31676" width="5.686" height="5.686" rx="0.664" transform="translate(1388.125 1647.322)" fill="#9aede5"/>
    <rect id="Rectángulo_31677" data-name="Rectángulo 31677" width="5.686" height="5.686" rx="0.664" transform="translate(1395.73 1647.322)" fill="#9aede5"/>
    <rect id="Rectángulo_31678" data-name="Rectángulo 31678" width="5.686" height="5.686" rx="0.664" transform="translate(1028.9 1644.205)" fill="#ffedb5"/>
    <rect id="Rectángulo_31679" data-name="Rectángulo 31679" width="5.686" height="5.686" rx="0.664" transform="translate(1036.506 1644.205)" fill="#ffedb5"/>
    <rect id="Rectángulo_31680" data-name="Rectángulo 31680" width="5.686" height="5.686" rx="0.664" transform="translate(1044.111 1644.205)" fill="#ffedb5"/>
    <rect id="Rectángulo_31681" data-name="Rectángulo 31681" width="144.058" height="278.29" rx="21.349" transform="translate(1113.402 1420.473)" fill="#0065c3"/>
    <rect id="Rectángulo_31682" data-name="Rectángulo 31682" width="138.663" height="271.898" rx="18.7" transform="translate(1116.1 1422.91)" fill="#fff"/>
    <path id="Trazado_145320" data-name="Trazado 145320" d="M423.356,643.872V885.221a10.249,10.249,0,0,1-10.249,10.249H307.082a10.249,10.249,0,0,1-10.249-10.249V643.872a10.249,10.249,0,0,1,10.249-10.25h17.68a2.592,2.592,0,0,1,2.318,1.432l1.878,3.748a5.064,5.064,0,0,0,4.542,2.812h53.19a5.064,5.064,0,0,0,4.542-2.812l1.878-3.748a2.592,2.592,0,0,1,2.318-1.432h17.68A10.249,10.249,0,0,1,423.356,643.872Z" transform="translate(825.338 793.697)" fill="#ffedb5"/>
    <path id="Trazado_145321" data-name="Trazado 145321" d="M392.062,637.23h-42.84a1.8,1.8,0,0,1-1.8-1.8h0a1.8,1.8,0,0,1,1.8-1.8h42.84a1.8,1.8,0,0,1,1.8,1.8h0A1.8,1.8,0,0,1,392.062,637.23Z" transform="translate(815.691 793.697)" fill="#00a79a"/>
    <rect id="Rectángulo_31683" data-name="Rectángulo 31683" width="108.893" height="47.224" rx="8.379" transform="translate(1129.75 1633.566)" fill="none" stroke="#698bd1" stroke-linecap="round" stroke-linejoin="round" stroke-width="1" stroke-dasharray="2.837"/>
    <rect id="Rectángulo_31684" data-name="Rectángulo 31684" width="57.073" height="33.156" rx="6.044" transform="translate(1174.85 1531.752)" fill="none" stroke="#698bd1" stroke-linecap="round" stroke-linejoin="round" stroke-width="1" stroke-dasharray="2.837"/>
    <rect id="Rectángulo_31685" data-name="Rectángulo 31685" width="109.326" height="52.85" rx="7.201" transform="translate(1133.715 1572.861)" fill="#00074e"/>
    <path id="Trazado_145322" data-name="Trazado 145322" d="M415.093,813.992V855.21a5.813,5.813,0,0,1-5.819,5.811H312.019a5.813,5.813,0,0,1-5.819-5.811V813.992a5.82,5.82,0,0,1,5.819-5.819h97.255A5.82,5.82,0,0,1,415.093,813.992Z" transform="translate(823.551 760.412)" fill="#0065c3"/>
    <rect id="Rectángulo_31686" data-name="Rectángulo 31686" width="36.52" height="36.52" rx="4.861" transform="translate(1134.781 1580.619)" fill="#fff"/>
    <path id="Trazado_145323" data-name="Trazado 145323" d="M388.4,828.166H363.166a1.242,1.242,0,0,1-1.242-1.242h0a1.242,1.242,0,0,1,1.242-1.242H388.4a1.243,1.243,0,0,1,1.243,1.242h0A1.243,1.243,0,0,1,388.4,828.166Z" transform="translate(812.926 757.074)" fill="#b2c1f9"/>
    <path id="Trazado_145324" data-name="Trazado 145324" d="M376.9,834.295H363.166a1.242,1.242,0,0,1-1.242-1.242h0a1.242,1.242,0,0,1,1.242-1.242H376.9a1.243,1.243,0,0,1,1.242,1.242h0A1.242,1.242,0,0,1,376.9,834.295Z" transform="translate(812.926 755.906)" fill="#b2c1f9"/>
    <path id="Trazado_145325" data-name="Trazado 145325" d="M423.549,834.295H386.383a1.242,1.242,0,0,1-1.242-1.242h0a1.242,1.242,0,0,1,1.242-1.242h37.165a1.243,1.243,0,0,1,1.242,1.242h0A1.243,1.243,0,0,1,423.549,834.295Z" transform="translate(808.498 755.906)" fill="#b2c1f9"/>
    <path id="Trazado_145326" data-name="Trazado 145326" d="M384.417,840.424H363.166a1.242,1.242,0,0,1-1.242-1.242h0a1.243,1.243,0,0,1,1.242-1.243h21.251a1.243,1.243,0,0,1,1.242,1.243h0A1.243,1.243,0,0,1,384.417,840.424Z" transform="translate(812.926 754.736)" fill="#b2c1f9"/>
    <path id="Trazado_145327" data-name="Trazado 145327" d="M408.565,840.424H395.205a1.242,1.242,0,0,1-1.242-1.242h0a1.243,1.243,0,0,1,1.242-1.243h13.359a1.243,1.243,0,0,1,1.242,1.243h0A1.243,1.243,0,0,1,408.565,840.424Z" transform="translate(806.816 754.736)" fill="#b2c1f9"/>
    <path id="Trazado_145328" data-name="Trazado 145328" d="M429.406,840.424H417.1a1.243,1.243,0,0,1-1.242-1.242h0a1.243,1.243,0,0,1,1.242-1.243h12.3a1.243,1.243,0,0,1,1.242,1.243h0A1.243,1.243,0,0,1,429.406,840.424Z" transform="translate(802.641 754.736)" fill="#b2c1f9"/>
    <path id="Trazado_145329" data-name="Trazado 145329" d="M419.121,846.554H363.166a1.242,1.242,0,0,1-1.242-1.242h0a1.242,1.242,0,0,1,1.242-1.242h55.955a1.243,1.243,0,0,1,1.242,1.242h0A1.243,1.243,0,0,1,419.121,846.554Z" transform="translate(812.926 753.568)" fill="#b2c1f9"/>
    <path id="Trazado_145330" data-name="Trazado 145330" d="M393.962,852.683h-30.8a1.242,1.242,0,0,1-1.242-1.242h0a1.242,1.242,0,0,1,1.242-1.242h30.8a1.243,1.243,0,0,1,1.242,1.242h0A1.243,1.243,0,0,1,393.962,852.683Z" transform="translate(812.926 752.398)" fill="#b2c1f9"/>
    <path id="Trazado_145331" data-name="Trazado 145331" d="M427.547,852.683H407.352a1.243,1.243,0,0,1-1.242-1.242h0a1.243,1.243,0,0,1,1.242-1.242h20.195a1.243,1.243,0,0,1,1.242,1.242h0A1.243,1.243,0,0,1,427.547,852.683Z" transform="translate(804.5 752.398)" fill="#b2c1f9"/>
    <path id="Trazado_145332" data-name="Trazado 145332" d="M381.26,858.811H363.166a1.242,1.242,0,0,1-1.242-1.242h0a1.242,1.242,0,0,1,1.242-1.242H381.26a1.242,1.242,0,0,1,1.242,1.242h0A1.242,1.242,0,0,1,381.26,858.811Z" transform="translate(812.926 751.23)" fill="#b2c1f9"/>
    <path id="Trazado_145333" data-name="Trazado 145333" d="M409.668,858.811H391.574a1.242,1.242,0,0,1-1.242-1.242h0a1.242,1.242,0,0,1,1.242-1.242h18.094a1.242,1.242,0,0,1,1.242,1.242h0A1.242,1.242,0,0,1,409.668,858.811Z" transform="translate(807.508 751.23)" fill="#b2c1f9"/>
    <path id="Trazado_145334" data-name="Trazado 145334" d="M429.831,858.811h-10.5a1.242,1.242,0,0,1-1.242-1.242h0a1.242,1.242,0,0,1,1.242-1.242h10.5a1.243,1.243,0,0,1,1.242,1.242h0A1.242,1.242,0,0,1,429.831,858.811Z" transform="translate(802.215 751.23)" fill="#b2c1f9"/>
    <path id="Trazado_145335" data-name="Trazado 145335" d="M388.4,864.941H363.166a1.242,1.242,0,0,1-1.242-1.242h0a1.243,1.243,0,0,1,1.242-1.242H388.4a1.243,1.243,0,0,1,1.243,1.242h0A1.243,1.243,0,0,1,388.4,864.941Z" transform="translate(812.926 750.063)" fill="#b2c1f9"/>
    <path id="Trazado_145336" data-name="Trazado 145336" d="M426.36,828.166H401.125a1.242,1.242,0,0,1-1.242-1.242h0a1.242,1.242,0,0,1,1.242-1.242H426.36a1.243,1.243,0,0,1,1.242,1.242h0A1.242,1.242,0,0,1,426.36,828.166Z" transform="translate(805.688 757.074)" fill="#b2c1f9"/>
    <path id="Trazado_145337" data-name="Trazado 145337" d="M415.093,813.992v1.732H306.2v-1.732a5.82,5.82,0,0,1,5.819-5.819h97.255A5.82,5.82,0,0,1,415.093,813.992Z" transform="translate(823.551 760.412)" fill="#0065c3"/>
    <path id="Trazado_145338" data-name="Trazado 145338" d="M414.753,812.688a1.349,1.349,0,1,1-1.349-1.348A1.349,1.349,0,0,1,414.753,812.688Z" transform="translate(803.365 759.809)" fill="#dee3fc"/>
    <path id="Trazado_145339" data-name="Trazado 145339" d="M423.281,812.688a1.349,1.349,0,1,1-1.349-1.348A1.349,1.349,0,0,1,423.281,812.688Z" transform="translate(801.74 759.809)" fill="#dee3fc"/>
    <path id="Trazado_145340" data-name="Trazado 145340" d="M431.809,812.688a1.349,1.349,0,1,1-1.349-1.348A1.349,1.349,0,0,1,431.809,812.688Z" transform="translate(800.113 759.809)" fill="#dee3fc"/>
    <rect id="Rectángulo_31687" data-name="Rectángulo 31687" width="33.126" height="33.126" rx="7.151" transform="translate(1136.125 1531.783)" fill="none" stroke="#495ad6" stroke-miterlimit="10" stroke-width="0.896"/>
    <path id="Trazado_145341" data-name="Trazado 145341" d="M327.033,777.243l-4.773,4.773,4.81,4.81" transform="translate(820.488 766.311)" fill="none" stroke="#495ad6" stroke-linecap="round" stroke-linejoin="round" stroke-width="1.672"/>
    <path id="Trazado_145342" data-name="Trazado 145342" d="M340.918,777.243l4.773,4.773-4.81,4.81" transform="translate(816.938 766.311)" fill="none" stroke="#495ad6" stroke-linecap="round" stroke-linejoin="round" stroke-width="1.672"/>
    <line id="Línea_151" data-name="Línea 151" x1="4.469" y2="9.583" transform="translate(1150.453 1543.555)" fill="none" stroke="#495ad6" stroke-linecap="round" stroke-linejoin="round" stroke-width="1.672"/>
    <path id="Trazado_145343" data-name="Trazado 145343" d="M415.093,661.233v67.391a6.618,6.618,0,0,1-6.62,6.62H312.82a6.623,6.623,0,0,1-6.62-6.62V661.233a6.623,6.623,0,0,1,6.62-6.62h95.653A6.618,6.618,0,0,1,415.093,661.233Z" transform="translate(823.551 789.695)" fill="#ffca00"/>
    <circle id="Elipse_4186" data-name="Elipse 4186" cx="15.782" cy="15.782" r="15.782" transform="translate(1200.809 1449.818)" fill="#f0f4ff"/>
    <path id="Trazado_145344" data-name="Trazado 145344" d="M370.209,739.532H312.82a6.623,6.623,0,0,1-6.62-6.62V722.3l25.113-43.5a3.411,3.411,0,0,1,5.908,0l18.962,32.842,14.082,24.393A3.347,3.347,0,0,1,370.209,739.532Z" transform="translate(823.551 785.408)" fill="#fff"/>
    <path id="Trazado_145345" data-name="Trazado 145345" d="M402.939,743.769H348.06l16.105-27.889,8.676-15.029a3.069,3.069,0,0,1,5.317,0Z" transform="translate(815.568 781.17)" fill="#f0f4ff"/>
    <rect id="Rectángulo_31688" data-name="Rectángulo 31688" width="42.308" height="63.582" transform="translate(1285.051 1650.164)" fill="#0065c3"/>
    <rect id="Rectángulo_31689" data-name="Rectángulo 31689" width="16.2" height="63.582" transform="translate(1343.559 1713.746) rotate(180)" fill="#0065c3"/>
    <rect id="Rectángulo_31690" data-name="Rectángulo 31690" width="11.894" height="2.029" transform="translate(1329.68 1652.605)" fill="#b2c1f9"/>
    <rect id="Rectángulo_31691" data-name="Rectángulo 31691" width="11.894" height="2.029" transform="translate(1329.68 1656.965)" fill="#b2c1f9"/>
    <rect id="Rectángulo_31692" data-name="Rectángulo 31692" width="11.894" height="2.029" transform="translate(1329.68 1661.324)" fill="#b2c1f9"/>
    <rect id="Rectángulo_31693" data-name="Rectángulo 31693" width="11.894" height="2.029" transform="translate(1329.68 1665.684)" fill="#b2c1f9"/>
    <rect id="Rectángulo_31694" data-name="Rectángulo 31694" width="11.894" height="2.029" transform="translate(1329.68 1670.043)" fill="#b2c1f9"/>
    <rect id="Rectángulo_31695" data-name="Rectángulo 31695" width="11.894" height="2.029" transform="translate(1329.68 1674.402)" fill="#b2c1f9"/>
    <rect id="Rectángulo_31696" data-name="Rectángulo 31696" width="11.894" height="2.029" transform="translate(1329.68 1678.762)" fill="#b2c1f9"/>
    <rect id="Rectángulo_31697" data-name="Rectángulo 31697" width="11.894" height="2.029" transform="translate(1329.68 1683.121)" fill="#b2c1f9"/>
    <rect id="Rectángulo_31698" data-name="Rectángulo 31698" width="11.894" height="2.029" transform="translate(1329.68 1687.48)" fill="#b2c1f9"/>
    <rect id="Rectángulo_31699" data-name="Rectángulo 31699" width="11.894" height="2.029" transform="translate(1329.68 1691.84)" fill="#b2c1f9"/>
    <rect id="Rectángulo_31700" data-name="Rectángulo 31700" width="11.894" height="2.029" transform="translate(1329.68 1696.197)" fill="#b2c1f9"/>
    <rect id="Rectángulo_31701" data-name="Rectángulo 31701" width="11.894" height="2.029" transform="translate(1329.68 1700.557)" fill="#b2c1f9"/>
    <rect id="Rectángulo_31702" data-name="Rectángulo 31702" width="11.894" height="2.029" transform="translate(1329.68 1704.916)" fill="#b2c1f9"/>
    <rect id="Rectángulo_31703" data-name="Rectángulo 31703" width="11.894" height="2.029" transform="translate(1329.68 1709.275)" fill="#b2c1f9"/>
    <path id="Trazado_145346" data-name="Trazado 145346" d="M489.593,985.516h21.5a11.73,11.73,0,0,0-1.4-8.572s-1.73,1.388-6.915.449a23.055,23.055,0,0,1-3.657,2.556C497.619,980.675,489.014,982.365,489.593,985.516Z" transform="translate(788.586 728.23)" fill="#281616"/>
    <path id="Trazado_145347" data-name="Trazado 145347" d="M491.338,911.594c1.389,8.287,7.8,36.322,10.552,52.885a25.274,25.274,0,0,0,8.734-.444c-.251-5.775-.748-19.589-.689-25.648.1-10.239.576-23.74-3.931-31.15l-15.155,1.193c.092.8.176,1.45.25,1.916C491.171,910.792,491.254,911.2,491.338,911.594Z" transform="translate(788.342 741.523)" fill="#00074e"/>
    <path id="Trazado_145348" data-name="Trazado 145348" d="M441.537,985.516h21.5a11.73,11.73,0,0,0-1.4-8.572s-1.731,1.388-6.915.449a23.075,23.075,0,0,1-3.658,2.556C449.563,980.675,440.958,982.365,441.537,985.516Z" transform="translate(797.75 728.23)" fill="#281616"/>
    <path id="Trazado_145349" data-name="Trazado 145349" d="M457.066,962.82a24.641,24.641,0,0,0,8.494.759c1.144-6.657,2.949-21.3,4.574-28.171,2.522-10.672,4.99-25.349,3.275-30.585L458.5,901.08C458.451,901.552,457.238,946.469,457.066,962.82Z" transform="translate(794.783 742.697)" fill="#00074e"/>
    <path id="Trazado_145350" data-name="Trazado 145350" d="M516.728,881h0c-.3-2.946-.644-5.1-.644-5.1l-16.656,4.076L485.279,883.2c-5.245,1.168-11.581,2.575-17.168,3.838-6.268,1.423-10.43,6.185-9.056,12.462l1.571,7.614c8.767-.12,49.987-4.072,53.513-5.851C518.123,899.249,519.321,892.137,516.728,881Z" transform="translate(794.453 747.498)" fill="#00074e"/>
    <path id="Trazado_145351" data-name="Trazado 145351" d="M547.449,880.759h0a23.022,23.022,0,0,0-1.736-6.108l-15.564,5.086L516,882.961c-5.245,1.168-11.582,2.575-17.168,3.838-6.268,1.423-10.43,6.186-9.057,12.462l1.572,7.614c8.766-.12,45.411-1.4,53.513-5.851C548.771,898.873,550.043,891.9,547.449,880.759Z" transform="translate(788.596 747.736)" fill="#00074e"/>
    <path id="Trazado_145352" data-name="Trazado 145352" d="M497.728,852.354s7.4-3.342,9.433.01c1.114,1.835.344,5.243-2.179,6.674s-16.78,7.461-30.238,10.824a32.666,32.666,0,0,0-1.5-3.839,70.858,70.858,0,0,0,12.039-6.719,76.662,76.662,0,0,1,12.446-6.949Z" transform="translate(791.697 752.271)" fill="#e5918f"/>
    <path id="Trazado_145353" data-name="Trazado 145353" d="M504.288,824.158l-6.34,25.324s.655,6.4,7.12,3.26,10.751-23.318,10.751-23.318Z" transform="translate(786.986 757.365)" fill="#e5918f"/>
    <path id="Trazado_145354" data-name="Trazado 145354" d="M515.821,834.886c-.784-.189-1.533-.4-2.255-.613q-1.11-.325-2.111-.677a35.57,35.57,0,0,1-9.28-4.546c1.894-8.234,4.176-13.762,6.205-17.407a2.577,2.577,0,0,0,.154-.27l.162-.27a15.84,15.84,0,0,1,4.411-4.591c.181-.126.351-.243.532-.369l.749,13.222.126,1.361Z" transform="translate(786.182 760.801)" fill="#fff"/>
    <path id="Trazado_145355" data-name="Trazado 145355" d="M518.007,837.937c-.784-.189-1.533-.4-2.255-.613q-1.11-.325-2.111-.677c1.265-8.906,2.408-14.5,2.408-14.5l.649,1.632Z" transform="translate(783.994 757.748)" fill="#c7e5f2"/>
    <path id="Trazado_145356" data-name="Trazado 145356" d="M555.468,810.848c-.154,3.914-.839,10.2-1.434,16.514-.189,2-.37,4.013-.524,5.953-.108,1.208-1.929,7.657-2,8.812-.325,5.519-3.03,9.65-.469,18.056a13.234,13.234,0,0,1,.766,3.878c0,.577-.749,1.182-1.046,1.343a17.646,17.646,0,0,1-5.745,1.371h-.009a148.857,148.857,0,0,1-15.946.731c-5.511,0-13.781-.875-14.827-2.264-.956-1.271-.072-3.121.379-5.673,2.03-11.517,1.308-17.524,1.182-25.839,0-.208-.009-.415-.009-.631-.207-12.825-1.055-23.8-.46-27.761.181-.126.351-.243.532-.369.875-.6,1.732-1.127,2.562-1.6.072-.036.163-.09.253-.144.252-.145.514-.28.757-.415a2.91,2.91,0,0,1,.289-.144,62.823,62.823,0,0,1,6.151-2.426c.2-.063.379-.126.533-.172,1.47-.09,3.066-.108,4.789-.063,1.5.045,3.788.244,6.277.568h.009a65.023,65.023,0,0,1,8.334,1.56.329.329,0,0,1,.045.019,17.156,17.156,0,0,1,6.557,4.59A22.2,22.2,0,0,1,555.468,810.848Z" transform="translate(783.963 761.975)" fill="#fff"/>
    <path id="Trazado_145357" data-name="Trazado 145357" d="M558.112,864.733a13.233,13.233,0,0,1,.766,3.878c0,.577-.749,1.181-1.046,1.343a17.647,17.647,0,0,1-5.745,1.371,4.071,4.071,0,0,0,2.877-3.31c0-1.057-1.371-8.2-.992-12.807s1.127-11.923-.3-17.785S550.9,823.85,550.9,823.85l8.036,4.853s1.038,1.452,2.174,3.211c-.189,2-.37,4.013-.524,5.953C560.475,839.074,555.55,856.328,558.112,864.733Z" transform="translate(776.891 757.424)" fill="#c7e5f2"/>
    <path id="Trazado_145358" data-name="Trazado 145358" d="M516.13,771.527s.7,8.4,3.482,8.969,2.1-3.006,2.1-3.006l-.389-3.992Z" transform="translate(783.52 767.4)" fill="#00074e"/>
    <path id="Trazado_145359" data-name="Trazado 145359" d="M531.144,804.2c-5.456-.65-3.419-5.953-2.67-7.17.2-.063,1.136-.352,1.208-.4a.03.03,0,0,1,.019-.009,1.5,1.5,0,0,0,.423-.631,12.941,12.941,0,0,0,.271-4.365v-.514c.09-.334.181-.65.253-.948l2.868-2.255,6.069-4.771s-1.614,7.982-.316,13.015a1.893,1.893,0,0,0,.8,1.208c0,.01.009,0,.009,0a1.46,1.46,0,0,0,.6.217C542.174,798.284,540.1,805.265,531.144,804.2Z" transform="translate(781.357 765.186)" fill="#e5918f"/>
    <path id="Trazado_145360" data-name="Trazado 145360" d="M536.576,789.409a9.054,9.054,0,0,1-5.833,7.776,12.8,12.8,0,0,0,.273-4.357l2.422-1.9Z" transform="translate(780.734 763.99)" fill="#cc6362"/>
    <path id="Trazado_145361" data-name="Trazado 145361" d="M517.776,771.04s1.262,17.438,5.97,18.92a12.246,12.246,0,0,0,10.306-5.229c1.242-1.67,2.809-2.044,3.321-4.06.832-3.275,2.006-9.314.508-12.953C535.75,762.534,517.978,758.418,517.776,771.04Z" transform="translate(783.207 769.084)" fill="#e5918f"/>
    <path id="Trazado_145362" data-name="Trazado 145362" d="M536.75,764.119c-.077-3.168-3.283-4.352-3.283-4.352-3.192-1.493-9.825-.849-16.664.677-1.6.358-3.615-.626-4.735.151-1.353.939-.006,5.228-.006,5.228,2.638,7.989,12.345,5.391,15.262,4.405.694,2.056.6,4.917,2.334,6.391.985.84,2.7.864,4.439.575.214.407,1.02.766,1.183,1.326.549,1.868.47,4.787.453,7.041l.823-.4C536.665,784.548,545.178,764.381,536.75,764.119Z" transform="translate(784.41 769.805)" fill="#00074e"/>
    <path id="Trazado_145363" data-name="Trazado 145363" d="M536.958,784.315c3.35,1.283,4.4-6.961,1.215-7.327-2.412-.277-2.51,3.088-2.51,3.088S535.046,783.582,536.958,784.315Z" transform="translate(779.813 766.363)" fill="#e5918f"/>
    <path id="Trazado_145364" data-name="Trazado 145364" d="M538.384,778.528s-1.979,1.046-.709,4.261" transform="translate(779.492 766.066)" fill="none" stroke="#cc6362" stroke-miterlimit="10" stroke-width="0.724"/>
    <path id="Trazado_145365" data-name="Trazado 145365" d="M538.914,780.462a1.75,1.75,0,0,0-1.627,1.208" transform="translate(779.486 765.697)" fill="none" stroke="#cc6362" stroke-miterlimit="10" stroke-width="0.724"/>
    <path id="Trazado_145366" data-name="Trazado 145366" d="M573.042,850.538v.009c-1.472,1.708-7.058,2.952-9.746.59-.845-.753-1.8-2.735-2.735-5.2a160.879,160.879,0,0,1-4.639-15.7l12.5-6.388s1.608,7.211,2.994,14.063c0,0,.012.07.038.191.451,2.195.871,4.354,1.2,6.207a.857.857,0,0,1,.024.147A26.239,26.239,0,0,1,573.042,850.538Z" transform="translate(775.932 757.424)" fill="#e5918f"/>
    <path id="Trazado_145367" data-name="Trazado 145367" d="M550.089,817.771a150.108,150.108,0,0,0,5,14.533,19.8,19.8,0,0,0,9.174-1.11,16.9,16.9,0,0,0,5.844-3.8s-2.517-7.072-4.775-12.153c-2.027-4.561-3.245-6.264-4.122-7.168a19.891,19.891,0,0,0-4.963-3.692Z" transform="translate(777.045 761.135)" fill="#fff"/>
    <path id="Trazado_145368" data-name="Trazado 145368" d="M566.531,820.722l-7.336-3.165-5.78-14.893s1.059.322,2.455.885h.007c.027.013.087.033.188.074a.678.678,0,0,1,.107.047c1.247.583,6.082,3.433,9.429,13.787l.08.261c.355,1.194.617,2.153.758,2.649.014.047.028.094.04.147S566.511,820.655,566.531,820.722Z" transform="translate(776.41 761.463)" fill="#fff"/>
    <path id="Trazado_145369" data-name="Trazado 145369" d="M568.018,853.808v.009c-.108.915-.36,1.573-.813,1.806-.072.046-1.1.657-1.17.7a62.42,62.42,0,0,1-7.748,4.006,280.525,280.525,0,0,1-27.059,9.723,31.889,31.889,0,0,0-1.655-3.777,70.951,70.951,0,0,0,11.746-7.211c5.831-4.45,14.218-9.857,14.218-9.857l2.118-2.492s7.528-6.929,8.737-5.535c0,0,.012.07.038.191.18.722.777,3.381,1.2,6.207a.857.857,0,0,1,.024.147A26.236,26.236,0,0,1,568.018,853.808Z" transform="translate(780.957 754.154)" fill="#e5918f"/>
    <path id="Trazado_145370" data-name="Trazado 145370" d="M528.443,871.469a4.658,4.658,0,0,1-2.972.571c-.829-.174-1.165-.514-1.778-.622a13.857,13.857,0,0,1-3.057-.707c-.808-.4-1.124-.441-1.1.371s1.624,1.515,2.057,1.74a4.1,4.1,0,0,1,1.034,1.036c.059.091-2.66,1.513-3.391,1.224a2.117,2.117,0,0,0-.094,1.021c.124.365.683.494.727.677s-.129.559-.007.851.62.293.821.766-.02.482.126.975.778.583.9.838.057.553.321.728,2.71-.609,3.6-.991,3.278-3.817,5.917-4.987Z" transform="translate(782.951 748.541)" fill="#e5918f"/>
    <path id="Trazado_145371" data-name="Trazado 145371" d="M541.6,890.211H522.585v-1.86H541.6a.93.93,0,0,1,.931.93h0A.931.931,0,0,1,541.6,890.211Z" transform="translate(782.289 745.123)" fill="#00074e"/>
    <path id="Trazado_145372" data-name="Trazado 145372" d="M519.555,881.8H471.941a1.268,1.268,0,0,1-1.223-.93l-9.746-35.081a1.219,1.219,0,0,1,1.174-1.545h46.044a2.389,2.389,0,0,1,2.3,1.75l9.71,34.955A.671.671,0,0,1,519.555,881.8Z" transform="translate(794.047 753.535)" fill="#00074e"/>
    <path id="Trazado_145373" data-name="Trazado 145373" d="M517.426,881.8H469.812a1.27,1.27,0,0,1-1.224-.93l-9.745-35.081a1.219,1.219,0,0,1,1.174-1.545h46.043a2.389,2.389,0,0,1,2.3,1.75l9.71,34.955A.672.672,0,0,1,517.426,881.8Z" transform="translate(794.453 753.535)" fill="#0065c3"/>
    <path id="Trazado_145374" data-name="Trazado 145374" d="M298.064,859.147l5.515-5.655a14.788,14.788,0,0,1,.491-3.053c.3-.532,1.076-2.5,1.462-2.716a2,2,0,0,1,1.16,0,5.309,5.309,0,0,1,1.11-.258,3.253,3.253,0,0,1,.987.314s.825-.056,1.168-.056a.733.733,0,0,1,.454.1,24.365,24.365,0,0,1,1.974-2.045c.644-.516,1.629-1.464,1.921-1.46.275,0,.4.487.2,1a5.713,5.713,0,0,1-1.072,1.347l-2.513,3.808a5.407,5.407,0,0,0,.658-.315c.229-.143,1.762-1.575,1.855-1.632s.779-.515,1.181-.057-2.631,4.09-3.118,4.577a26.549,26.549,0,0,1-3.274,1.9s-2.943,5.293-3.229,5.637S298.064,859.147,298.064,859.147Z" transform="translate(825.102 753.521)" fill="#e49191"/>
    <path id="Trazado_145375" data-name="Trazado 145375" d="M299.65,828.191s-3.081,17.846-5.981,18.26c0,0-11.577.468-14.156-13.577-2.237-12.179,6.734-14.776,10.93-13.845S300.551,820.566,299.65,828.191Z" transform="translate(828.707 758.375)" fill="#e49191"/>
    <path id="Trazado_145376" data-name="Trazado 145376" d="M289.136,847.141s-1.622,2.187-2.19,7.482a17.186,17.186,0,0,1-9.267-1.6,65.591,65.591,0,0,0,2.689-15.579" transform="translate(828.99 754.832)" fill="#e49191"/>
    <path id="Trazado_145377" data-name="Trazado 145377" d="M285.587,815.327c-6.326,1.4-5.821,5.338-5.821,5.338-2.961.734-3.6,1.956-3.574,7.423s2,12.033,3.094,12.567,7.276.56,7.792.372,2.68-5.2,2.176-6.085.025-4.352,1.466-4.484,1.158,2.1,1.158,2.1l1.184-.26.915-2.242c8.36.5,10.52-9.03,10.52-9.03C302.489,819.719,291.915,813.929,285.587,815.327Z" transform="translate(829.273 759.09)" fill="#00074e"/>
    <path id="Trazado_145378" data-name="Trazado 145378" d="M200.187,964.643l6.4.924-2.119,7.47-6.928-1.747a4.5,4.5,0,0,1,1.437-6.647A2.324,2.324,0,0,1,200.187,964.643Z" transform="translate(844.445 730.592)" fill="#e5918f"/>
    <path id="Trazado_145379" data-name="Trazado 145379" d="M249.349,934.123l-9.428-28.548s-2.858-1.018-4.321,0c0,0-9.822,5.281-8.775,20.341a246.052,246.052,0,0,0,4.158,28.6l-25.154-.93a8.571,8.571,0,0,0-1.1,8.49s31.609,8.5,36.061,9.286c3.618.638,7.579,1.131,9.492-.507C253.655,967.973,249.349,934.123,249.349,934.123Z" transform="translate(843.027 741.926)"/>
    <path id="Trazado_145380" data-name="Trazado 145380" d="M236.988,964.643l6.4.924-2.119,7.47-6.928-1.747a4.5,4.5,0,0,1,1.437-6.647A2.324,2.324,0,0,1,236.988,964.643Z" transform="translate(837.428 730.592)" fill="#e5918f"/>
    <path id="Trazado_145381" data-name="Trazado 145381" d="M232.316,968.107c-.143,1.47,1.144,2.794.908,3.161s-4.535,7.581-4.535,7.581,3.246,1.414,2.723,3.456H223.19a6.825,6.825,0,0,1-2.095-4.713,23.84,23.84,0,0,1,2.025-6.021c1.466-2.828,4.8-9.212,4.8-9.212a4.654,4.654,0,0,1,2.74.053,16.622,16.622,0,0,1,3.977,1.779S232.67,964.473,232.316,968.107Z" transform="translate(839.779 731.043)" fill="#0065c3"/>
    <path id="Trazado_145382" data-name="Trazado 145382" d="M301.767,964.969c-2.03-7.574-21.127-39.906-27.588-48.637-13.27-5.761-27.413-10.65-27.413-10.65-5.849,1.4-8.73,13.182-5.413,21.04,2.276,5.391,16.714,18.957,25.556,26.944l-24.535-.03s-2.891,4.321-.271,8.424c0,0,40.806,9.279,44.386,9.8s11.611,0,11.611,0S303.475,971.345,301.767,964.969Z" transform="translate(836.184 741.818)" fill="#00074e"/>
    <path id="Trazado_145383" data-name="Trazado 145383" d="M195.515,968.107c-.143,1.47,1.144,2.794.908,3.161s-4.536,7.581-4.536,7.581,3.247,1.414,2.723,3.456h-8.221a6.821,6.821,0,0,1-2.094-4.713,23.84,23.84,0,0,1,2.025-6.021c1.466-2.828,4.8-9.212,4.8-9.212a4.653,4.653,0,0,1,2.74.053,16.64,16.64,0,0,1,3.977,1.779S195.869,964.473,195.515,968.107Z" transform="translate(846.797 731.043)" fill="#0065c3"/>
    <path id="Trazado_145384" data-name="Trazado 145384" d="M347.131,855.852,333.971,879l-9.425-9.395-7.8,11.612,2.265,1.088-.815.678s18.188,8.858,20.368,6.9,12.335-31.4,12.335-31.4Z" transform="translate(821.541 751.32)" fill="#e49191"/>
    <path id="Trazado_145385" data-name="Trazado 145385" d="M311.55,870.078s-2.485,10.481-7.454,15.45l-12.714-4.84s-5.9,9.922-11.67,17.53c-2.217,2.938-2.954,7.073-5.56,7.616-.162-.057-.316-.105-.478-.146-7.065-2.12-17.489.129-26.092-3.067-9.5-3.537-7.656-5.528-7.656-5.528a122.732,122.732,0,0,0,9.032-21.382,131.093,131.093,0,0,0,3.14-12.892,14.845,14.845,0,0,1,12.5-11.954c.073-.008.138-.024.21-.032,7.2-.914,26.06,1.311,29.726,2.881S311.55,870.078,311.55,870.078Z" transform="translate(836.217 752.318)" fill="#0065c3"/>
    <path id="Trazado_145386" data-name="Trazado 145386" d="M299.48,887.377s-5.9,9.922-11.67,17.53c-2.217,2.938-2.954,7.073-5.56,7.616,1.141-.4,3.035-6.41,3.707-7.761s1.756-2.7,4.087-7.413,5.476-11.653,5.476-11.653Z" transform="translate(828.117 745.631)" fill="#0065c3"/>
    <path id="Trazado_145387" data-name="Trazado 145387" d="M273.26,964.97a41.17,41.17,0,0,1,12.684,1.823" transform="translate(829.832 730.516)" fill="none" stroke="#000" stroke-miterlimit="10" stroke-width="1.065"/>
    <path id="Trazado_145388" data-name="Trazado 145388" d="M363.947,844.347a12.373,12.373,0,0,0-2.213,1.6l.75-1.437a14.152,14.152,0,0,0,1.349-1.484c.358-.526.169-1.052-.112-1.08a11.027,11.027,0,0,0-2.073,1.482l.151-.289a14.141,14.141,0,0,0,1.349-1.484c.357-.526.169-1.052-.113-1.08a17.761,17.761,0,0,0-2.565,1.888l-1.112,1.488.838-1.627a7.02,7.02,0,0,0,.736-1.128c.294-.589.082-.769-.082-.965s-1.7.948-2.093,1.406a23.726,23.726,0,0,0-1.733,2.575l-1.284,2.657c-.083-.77-.211-2.087-.3-2.927-.131-1.209-1.226-1.5-1.264-.907a30.79,30.79,0,0,0-.51,5.052c.138,1.57.4,2.6.5,3.483a6.933,6.933,0,0,1-.817,2.647s3.662,2.274,4.268,1.593a28.517,28.517,0,0,0,2.517-3.21,17.1,17.1,0,0,0,1.433-3.237l1.144-2.445a14.189,14.189,0,0,0,1.349-1.485C364.416,844.9,364.228,844.375,363.947,844.347Z" transform="translate(814.561 754.305)" fill="#e49191"/>
    <path id="Trazado_145389" data-name="Trazado 145389" d="M614.9,754.247H571.954a4.984,4.984,0,0,0-4.984,4.984v10.145a4.984,4.984,0,0,0,4.355,4.944.719.719,0,0,1,.629.714v5.554a.33.33,0,0,0,.6.193l4.374-6.118a.724.724,0,0,1,.589-.3H614.9a4.984,4.984,0,0,0,4.984-4.984V759.231A4.984,4.984,0,0,0,614.9,754.247Z" transform="translate(773.826 770.695)" fill="#ffedb5"/>
    <path id="Trazado_145390" data-name="Trazado 145390" d="M580.5,766.267a1.641,1.641,0,1,1-1.641-1.641A1.641,1.641,0,0,1,580.5,766.267Z" transform="translate(771.873 768.717)" fill="#00074e"/>
    <path id="Trazado_145391" data-name="Trazado 145391" d="M590.7,766.267a1.641,1.641,0,1,1-1.641-1.641A1.641,1.641,0,0,1,590.7,766.267Z" transform="translate(769.926 768.717)" fill="#00074e"/>
    <path id="Trazado_145392" data-name="Trazado 145392" d="M600.914,766.267a1.64,1.64,0,1,1-1.641-1.641A1.64,1.64,0,0,1,600.914,766.267Z" transform="translate(767.979 768.717)" fill="#00074e"/>
    <path id="Trazado_145393" data-name="Trazado 145393" d="M611.124,766.267a1.641,1.641,0,1,1-1.641-1.641A1.641,1.641,0,0,1,611.124,766.267Z" transform="translate(766.031 768.717)" fill="#00074e"/>
    <path id="Trazado_145394" data-name="Trazado 145394" d="M621.333,766.267a1.641,1.641,0,1,1-1.641-1.641A1.64,1.64,0,0,1,621.333,766.267Z" transform="translate(764.086 768.717)" fill="#00074e"/>
    <path id="Trazado_145395" data-name="Trazado 145395" d="M205.717,809.2h42.945a4.983,4.983,0,0,1,4.983,4.983v10.145a4.984,4.984,0,0,1-4.354,4.944.719.719,0,0,0-.629.714v5.553a.33.33,0,0,1-.6.192l-4.374-6.117a.724.724,0,0,0-.589-.3H205.717a4.984,4.984,0,0,1-4.984-4.984V814.187A4.983,4.983,0,0,1,205.717,809.2Z" transform="translate(843.662 760.217)" fill="none" stroke="#fff" stroke-miterlimit="10" stroke-width="0.896"/>
    <path id="Trazado_145396" data-name="Trazado 145396" d="M251.814,821.223a1.641,1.641,0,1,0,1.641-1.64A1.641,1.641,0,0,0,251.814,821.223Z" transform="translate(833.922 758.236)" fill="none" stroke="#fff" stroke-miterlimit="10" stroke-width="0.896"/>
    <path id="Trazado_145397" data-name="Trazado 145397" d="M241.6,821.223a1.641,1.641,0,1,0,1.641-1.64A1.641,1.641,0,0,0,241.6,821.223Z" transform="translate(835.869 758.236)" fill="none" stroke="#fff" stroke-miterlimit="10" stroke-width="0.896"/>
    <path id="Trazado_145398" data-name="Trazado 145398" d="M231.4,821.223a1.641,1.641,0,1,0,1.641-1.64A1.641,1.641,0,0,0,231.4,821.223Z" transform="translate(837.814 758.236)" fill="none" stroke="#fff" stroke-miterlimit="10" stroke-width="0.896"/>
    <path id="Trazado_145399" data-name="Trazado 145399" d="M221.186,821.223a1.641,1.641,0,1,0,1.64-1.64A1.641,1.641,0,0,0,221.186,821.223Z" transform="translate(839.762 758.236)" fill="none" stroke="#fff" stroke-miterlimit="10" stroke-width="0.896"/>
    <path id="Trazado_145400" data-name="Trazado 145400" d="M210.977,821.223a1.641,1.641,0,1,0,1.64-1.64A1.641,1.641,0,0,0,210.977,821.223Z" transform="translate(841.709 758.236)" fill="none" stroke="#fff" stroke-miterlimit="10" stroke-width="0.896"/>
    <path id="Trazado_145401" data-name="Trazado 145401" d="M507.074,721.644H428.8a7.816,7.816,0,0,1-7.816-7.816h0a7.816,7.816,0,0,1,7.816-7.816h78.273a7.816,7.816,0,0,1,7.816,7.816h0A7.816,7.816,0,0,1,507.074,721.644Z" transform="translate(801.664 779.895)" fill="#fff" stroke="#495ad6" stroke-miterlimit="10" stroke-width="0.896"/>
    <path id="Trazado_145402" data-name="Trazado 145402" d="M523.982,714.024a4.157,4.157,0,1,1-4.157-4.157A4.157,4.157,0,0,1,523.982,714.024Z" transform="translate(783.607 779.158)" fill="none" stroke="#495ad6" stroke-miterlimit="10" stroke-width="1.672"/>
    <line id="Línea_152" data-name="Línea 152" x2="2.295" y2="2.295" transform="translate(1306.373 1496.121)" fill="none" stroke="#495ad6" stroke-linecap="round" stroke-miterlimit="10" stroke-width="1.672"/>
    <rect id="Rectángulo_31704" data-name="Rectángulo 31704" width="32.168" height="32.168" rx="7.708" transform="translate(1164.236 1681.955)" fill="#00074e"/>
    <rect id="Rectángulo_31705" data-name="Rectángulo 31705" width="32.168" height="32.168" rx="7.708" transform="translate(1158.375 1681.955)" fill="#0065c3"/>
    <path id="Trazado_145403" data-name="Trazado 145403" d="M356.445,960.6l9.234,5.331a.855.855,0,0,1,0,1.481l-9.234,5.331a.855.855,0,0,1-1.282-.74V961.339A.855.855,0,0,1,356.445,960.6Z" transform="translate(814.215 731.369)" fill="#fff"/>
    <rect id="Rectángulo_31706" data-name="Rectángulo 31706" width="42.051" height="42.051" rx="10.076" transform="translate(1359.961 1672.072)" fill="#00074e"/>
    <rect id="Rectángulo_31707" data-name="Rectángulo 31707" width="42.051" height="42.051" rx="10.076" transform="translate(1352.299 1672.072)" fill="#0065c3"/>
    <path id="Trazado_145404" data-name="Trazado 145404" d="M611.024,947.6a5.052,5.052,0,1,1-5.053-5.053A5.052,5.052,0,0,1,611.024,947.6Z" transform="translate(767.352 734.789)" fill="#fff"/>
    <path id="Trazado_145405" data-name="Trazado 145405" d="M615.213,967.445V974.9a1.22,1.22,0,0,1-1.22,1.22H595.368a1.22,1.22,0,0,1-1.22-1.22v-7.458a10.533,10.533,0,0,1,10.532-10.532h0A10.533,10.533,0,0,1,615.213,967.445Z" transform="translate(768.643 732.051)" fill="#fff"/>
    <path id="Trazado_145406" data-name="Trazado 145406" d="M486.777,735.868H470.243A1.243,1.243,0,0,1,469,734.625h0a1.243,1.243,0,0,1,1.242-1.242h16.533a1.242,1.242,0,0,1,1.242,1.242h0A1.242,1.242,0,0,1,486.777,735.868Z" transform="translate(792.508 774.674)" fill="#9aede5"/>
    <path id="Trazado_145407" data-name="Trazado 145407" d="M508.29,735.868H496.325a1.243,1.243,0,0,1-1.242-1.242h0a1.243,1.243,0,0,1,1.242-1.242H508.29a1.242,1.242,0,0,1,1.242,1.242h0A1.242,1.242,0,0,1,508.29,735.868Z" transform="translate(787.533 774.674)" fill="#9aede5"/>
    <path id="Trazado_145408" data-name="Trazado 145408" d="M477.268,742.618h-7.025A1.243,1.243,0,0,1,469,741.375h0a1.243,1.243,0,0,1,1.242-1.242h7.025a1.243,1.243,0,0,1,1.242,1.242h0A1.243,1.243,0,0,1,477.268,742.618Z" transform="translate(792.508 773.387)" fill="#9aede5"/>
    <path id="Trazado_145409" data-name="Trazado 145409" d="M505.954,742.618H484.075a1.243,1.243,0,0,1-1.242-1.242h0a1.243,1.243,0,0,1,1.242-1.242h21.879a1.242,1.242,0,0,1,1.242,1.242h0A1.242,1.242,0,0,1,505.954,742.618Z" transform="translate(789.869 773.387)" fill="#9aede5"/>
    <path id="Trazado_145410" data-name="Trazado 145410" d="M492.037,749.368H470.243A1.243,1.243,0,0,1,469,748.125h0a1.243,1.243,0,0,1,1.242-1.242h21.794a1.242,1.242,0,0,1,1.242,1.242h0A1.242,1.242,0,0,1,492.037,749.368Z" transform="translate(792.508 772.1)" fill="#9aede5"/>
    <path id="Trazado_145411" data-name="Trazado 145411" d="M509.454,749.368H502.43a1.243,1.243,0,0,1-1.243-1.242h0a1.243,1.243,0,0,1,1.243-1.242h7.024a1.242,1.242,0,0,1,1.242,1.242h0A1.242,1.242,0,0,1,509.454,749.368Z" transform="translate(786.369 772.1)" fill="#9aede5"/>
    <rect id="Rectángulo_31708" data-name="Rectángulo 31708" width="63.905" height="35.324" rx="3.823" transform="translate(1009.115 1602.113)" fill="#00074e"/>
    <line id="Línea_153" data-name="Línea 153" x2="58.473" transform="translate(1011.832 1606.885)" fill="none" stroke="#fff" stroke-linecap="round" stroke-miterlimit="10" stroke-width="0.896"/>
    <circle id="Elipse_4187" data-name="Elipse 4187" cx="0.708" cy="0.708" r="0.708" transform="translate(1068.053 1603.748)" fill="#fff"/>
    <circle id="Elipse_4188" data-name="Elipse 4188" cx="0.708" cy="0.708" r="0.708" transform="translate(1064.359 1603.748)" fill="#fff"/>
    <circle id="Elipse_4189" data-name="Elipse 4189" cx="0.708" cy="0.708" r="0.708" transform="translate(1060.668 1603.748)" fill="#fff"/>
    <path id="Trazado_145412" data-name="Trazado 145412" d="M171.4,860.91h-9.922a.978.978,0,0,1-.978-.978h0a.978.978,0,0,1,.978-.978H171.4a.978.978,0,0,1,.978.978h0A.978.978,0,0,1,171.4,860.91Z" transform="translate(851.334 750.73)" fill="#0065c3"/>
    <path id="Trazado_145413" data-name="Trazado 145413" d="M171.4,866.493h-9.922a.978.978,0,0,1-.978-.978h0a.978.978,0,0,1,.978-.978H171.4a.978.978,0,0,1,.978.978h0A.978.978,0,0,1,171.4,866.493Z" transform="translate(851.334 749.664)" fill="#0065c3"/>
    <path id="Trazado_145414" data-name="Trazado 145414" d="M171.4,872.077h-9.922a.978.978,0,0,1-.978-.978h0a.978.978,0,0,1,.978-.978H171.4a.978.978,0,0,1,.978.978h0A.978.978,0,0,1,171.4,872.077Z" transform="translate(851.334 748.6)" fill="#0065c3"/>
    <path id="Trazado_145415" data-name="Trazado 145415" d="M171.4,877.66h-9.922a.978.978,0,0,1-.978-.978h0a.978.978,0,0,1,.978-.979H171.4a.978.978,0,0,1,.978.979h0A.978.978,0,0,1,171.4,877.66Z" transform="translate(851.334 747.535)" fill="#0065c3"/>
    <path id="Trazado_145416" data-name="Trazado 145416" d="M171.4,883.243h-9.922a.978.978,0,0,1-.978-.978h0a.978.978,0,0,1,.978-.978H171.4a.978.978,0,0,1,.978.978h0A.978.978,0,0,1,171.4,883.243Z" transform="translate(851.334 746.471)" fill="#0065c3"/>
    <path id="Trazado_145417" data-name="Trazado 145417" d="M171.4,888.827h-9.922a.978.978,0,0,1-.978-.979h0a.978.978,0,0,1,.978-.978H171.4a.978.978,0,0,1,.978.978h0A.978.978,0,0,1,171.4,888.827Z" transform="translate(851.334 745.406)" fill="#0065c3"/>
    <path id="Trazado_145418" data-name="Trazado 145418" d="M221.233,860.91H178.475a.978.978,0,0,1-.978-.978h0a.978.978,0,0,1,.978-.978h42.758a.978.978,0,0,1,.978.978h0A.978.978,0,0,1,221.233,860.91Z" transform="translate(848.094 750.73)" fill="#0065c3"/>
    <path id="Trazado_145419" data-name="Trazado 145419" d="M221.233,866.493H178.475a.978.978,0,0,1-.978-.978h0a.978.978,0,0,1,.978-.978h42.758a.978.978,0,0,1,.978.978h0A.978.978,0,0,1,221.233,866.493Z" transform="translate(848.094 749.664)" fill="#0065c3"/>
    <path id="Trazado_145420" data-name="Trazado 145420" d="M221.233,872.077H178.475a.978.978,0,0,1-.978-.978h0a.978.978,0,0,1,.978-.978h42.758a.978.978,0,0,1,.978.978h0A.978.978,0,0,1,221.233,872.077Z" transform="translate(848.094 748.6)" fill="#0065c3"/>
    <path id="Trazado_145421" data-name="Trazado 145421" d="M221.233,877.66H178.475a.978.978,0,0,1-.978-.978h0a.978.978,0,0,1,.978-.979h42.758a.978.978,0,0,1,.978.979h0A.978.978,0,0,1,221.233,877.66Z" transform="translate(848.094 747.535)" fill="#0065c3"/>
    <path id="Trazado_145422" data-name="Trazado 145422" d="M221.233,883.243H178.475a.978.978,0,0,1-.978-.978h0a.978.978,0,0,1,.978-.978h42.758a.978.978,0,0,1,.978.978h0A.978.978,0,0,1,221.233,883.243Z" transform="translate(848.094 746.471)" fill="#0065c3"/>
    <path id="Trazado_145423" data-name="Trazado 145423" d="M221.233,888.827H178.475a.978.978,0,0,1-.978-.979h0a.978.978,0,0,1,.978-.978h42.758a.978.978,0,0,1,.978.978h0A.978.978,0,0,1,221.233,888.827Z" transform="translate(848.094 745.406)" fill="#0065c3"/>
    <circle id="Elipse_4190" data-name="Elipse 4190" cx="26.307" cy="26.307" r="26.307" transform="matrix(0.233, -0.972, 0.972, 0.233, 1312.236, 1466.234)" fill="#ffedb5"/>
    <circle id="Elipse_4191" data-name="Elipse 4191" cx="22.871" cy="22.871" r="22.871" transform="translate(1313.779 1435.119) rotate(-23.868)" fill="#0065c3"/>
    <path id="Trazado_145424" data-name="Trazado 145424" d="M572.456,657.177a2.082,2.082,0,1,1-2.082-2.082A2.082,2.082,0,0,1,572.456,657.177Z" transform="translate(773.572 789.604)" fill="#fff"/>
    <path id="Trazado_145425" data-name="Trazado 145425" d="M568.772,654.016h0a.652.652,0,0,1-.885-.254l-6.726-12.132a.65.65,0,0,1,.253-.885h0a.651.651,0,0,1,.885.253l6.726,12.132A.651.651,0,0,1,568.772,654.016Z" transform="translate(774.949 792.355)" fill="#fff"/>
    <path id="Trazado_145426" data-name="Trazado 145426" d="M571.229,658.031h0a.652.652,0,0,1,.921,0l5.819,5.819a.652.652,0,0,1,0,.921h0a.652.652,0,0,1-.921,0l-5.819-5.819A.651.651,0,0,1,571.229,658.031Z" transform="translate(773.049 789.08)" fill="#fff"/>
    <line id="Línea_154" data-name="Línea 154" y1="2.63" transform="translate(1344.088 1425.844)" fill="none" stroke="#fff" stroke-linecap="round" stroke-miterlimit="10" stroke-width="2"/>
    <line id="Línea_155" data-name="Línea 155" x2="2.63" transform="translate(1362.254 1446.92)" fill="none" stroke="#fff" stroke-linecap="round" stroke-miterlimit="10" stroke-width="2"/>
    <line id="Línea_156" data-name="Línea 156" y2="2.63" transform="translate(1343.809 1465.086)" fill="none" stroke="#fff" stroke-linecap="round" stroke-miterlimit="10" stroke-width="2"/>
    <line id="Línea_157" data-name="Línea 157" x1="2.63" transform="translate(1323.012 1446.641)" fill="none" stroke="#fff" stroke-linecap="round" stroke-miterlimit="10" stroke-width="2"/>
    <line id="Línea_158" data-name="Línea 158" x1="1.315" y1="2.278" transform="translate(1333.602 1428.578)" fill="none" stroke="#dee3fc" stroke-linecap="round" stroke-miterlimit="10" stroke-width="1"/>
    <line id="Línea_159" data-name="Línea 159" y1="1.315" x2="2.278" transform="translate(1359.871 1436.434)" fill="none" stroke="#dee3fc" stroke-linecap="round" stroke-miterlimit="10" stroke-width="1"/>
    <line id="Línea_160" data-name="Línea 160" x2="1.315" y2="2.278" transform="translate(1352.98 1462.703)" fill="none" stroke="#dee3fc" stroke-linecap="round" stroke-miterlimit="10" stroke-width="1"/>
    <line id="Línea_161" data-name="Línea 161" x1="2.278" y2="1.315" transform="translate(1325.746 1455.813)" fill="none" stroke="#dee3fc" stroke-linecap="round" stroke-miterlimit="10" stroke-width="1"/>
    <line id="Línea_162" data-name="Línea 162" x1="2.278" y1="1.315" transform="translate(1325.887 1436.189)" fill="none" stroke="#dee3fc" stroke-linecap="round" stroke-miterlimit="10" stroke-width="1"/>
    <line id="Línea_163" data-name="Línea 163" y1="2.278" x2="1.315" transform="translate(1353.223 1428.719)" fill="none" stroke="#dee3fc" stroke-linecap="round" stroke-miterlimit="10" stroke-width="1"/>
    <line id="Línea_164" data-name="Línea 164" x2="2.278" y2="1.315" transform="translate(1359.732 1456.055)" fill="none" stroke="#dee3fc" stroke-linecap="round" stroke-miterlimit="10" stroke-width="1"/>
    <line id="Línea_165" data-name="Línea 165" x1="1.315" y2="2.278" transform="translate(1333.357 1462.563)" fill="none" stroke="#dee3fc" stroke-linecap="round" stroke-miterlimit="10" stroke-width="1"/>
    <rect id="Rectángulo_31709" data-name="Rectángulo 31709" width="44.377" height="44.377" rx="9.569" transform="translate(955.623 1534.793)" fill="#00074e"/>
    <rect id="Rectángulo_31710" data-name="Rectángulo 31710" width="44.377" height="44.377" rx="7.667" transform="translate(952.184 1530.949)" fill="#0065c3"/>
    <path id="Trazado_145427" data-name="Trazado 145427" d="M167.923,780.424h-.231v-2.542a7.566,7.566,0,1,0-15.133,0v2.542h-.051a2.123,2.123,0,0,0-2.123,2.123v9.58a2.123,2.123,0,0,0,2.123,2.124h15.415a2.124,2.124,0,0,0,2.124-2.124v-9.58A2.123,2.123,0,0,0,167.923,780.424Zm-13.448-2.542a5.65,5.65,0,1,1,11.3,0v2.542h-11.3Z" transform="translate(814.135 767.633)" fill="#fff"/>
    <path id="Trazado_145428" data-name="Trazado 145428" d="M164.448,788.308a2.469,2.469,0,1,0-3.714,2.129.442.442,0,0,1,.224.5l-.43,1.586a1.483,1.483,0,1,0,2.863,0l-.425-1.569a.444.444,0,0,1,.23-.5A2.459,2.459,0,0,0,164.448,788.308Z" transform="translate(812.395 764.672)" fill="#0065c3"/>
    <path id="Trazado_145429" data-name="Trazado 145429" d="M169.136,803.612H151.3a.91.91,0,0,1-.91-.91h0a.91.91,0,0,1,.91-.91h17.841a.911.911,0,0,1,.91.91h0A.911.911,0,0,1,169.136,803.612Z" transform="translate(814.135 761.629)" fill="#dee3fc"/>
    <path id="Trazado_145430" data-name="Trazado 145430" d="M169.136,807.425H151.3a.91.91,0,0,1-.91-.911h0a.91.91,0,0,1,.91-.91h17.841a.91.91,0,0,1,.91.91h0A.911.911,0,0,1,169.136,807.425Z" transform="translate(814.135 760.902)" fill="#dee3fc"/>
    <path id="Rectángulo_31711" data-name="Rectángulo 31711" d="M5.634,0H20.492a5.634,5.634,0,0,1,5.634,5.634V20.492a5.633,5.633,0,0,1-5.633,5.633H5.634A5.634,5.634,0,0,1,0,20.492V5.634A5.634,5.634,0,0,1,5.634,0Z" transform="translate(1359.373 1605.207)" fill="#00074e"/>
    <rect id="Rectángulo_31712" data-name="Rectángulo 31712" width="26.126" height="26.126" rx="4.513" transform="translate(1357.348 1602.945)" fill="#0065c3"/>
    <path id="Trazado_145431" data-name="Trazado 145431" d="M596.851,872.731a.81.81,0,0,1-.779-1.029l3.951-13.987a.809.809,0,0,1,1.557.439l-3.951,13.987A.809.809,0,0,1,596.851,872.731Z" transform="translate(768.281 751.078)" fill="#fff"/>
    <path id="Trazado_145432" data-name="Trazado 145432" d="M605.014,872.731a.792.792,0,0,1-.22-.031.807.807,0,0,1-.559-1l3.952-13.987a.809.809,0,0,1,1.557.439l-3.952,13.987A.808.808,0,0,1,605.014,872.731Z" transform="translate(766.725 751.078)" fill="#fff"/>
    <path id="Trazado_145433" data-name="Trazado 145433" d="M608.718,863.471H594.732a.809.809,0,1,1,0-1.619h13.986a.809.809,0,0,1,0,1.619Z" transform="translate(768.686 750.178)" fill="#fff"/>
    <path id="Trazado_145434" data-name="Trazado 145434" d="M608.718,871.365H594.732a.809.809,0,1,1,0-1.619h13.986a.809.809,0,0,1,0,1.619Z" transform="translate(768.686 748.672)" fill="#fff"/>
    <path id="Trazado_145435" data-name="Trazado 145435" d="M224.228,782.641H214.114a1.11,1.11,0,0,1-1.11-1.109h0a1.109,1.109,0,0,1,1.11-1.109h10.115a1.108,1.108,0,0,1,1.109,1.109h0A1.109,1.109,0,0,1,224.228,782.641Z" transform="translate(841.322 765.705)" fill="#ffedb5"/>
    <path id="Trazado_145436" data-name="Trazado 145436" d="M234.418,788.724h-20.3a1.11,1.11,0,0,1-1.11-1.109h0a1.11,1.11,0,0,1,1.11-1.11h20.3a1.109,1.109,0,0,1,1.109,1.11h0A1.109,1.109,0,0,1,234.418,788.724Z" transform="translate(841.322 764.545)" fill="#ffedb5"/>
    <path id="Trazado_145437" data-name="Trazado 145437" d="M216.512,794.807h-2.4A1.109,1.109,0,0,1,213,793.7h0a1.109,1.109,0,0,1,1.11-1.109h2.4a1.108,1.108,0,0,1,1.109,1.109h0A1.108,1.108,0,0,1,216.512,794.807Z" transform="translate(841.322 763.385)" fill="#ffedb5"/>
    <path id="Trazado_145438" data-name="Trazado 145438" d="M235.871,794.807H221.733a1.108,1.108,0,0,1-1.109-1.109h0a1.108,1.108,0,0,1,1.109-1.109h14.138a1.108,1.108,0,0,1,1.109,1.109h0A1.108,1.108,0,0,1,235.871,794.807Z" transform="translate(839.869 763.385)" fill="#ffedb5"/>
    <path id="Trazado_145439" data-name="Trazado 145439" d="M237.757,782.641h-6.131a1.11,1.11,0,0,1-1.109-1.109h0a1.109,1.109,0,0,1,1.109-1.109h6.131a1.108,1.108,0,0,1,1.109,1.109h0A1.109,1.109,0,0,1,237.757,782.641Z" transform="translate(837.982 765.705)" fill="#ffedb5"/>
    <path id="Trazado_145440" data-name="Trazado 145440" d="M162.978,968.741a7.025,7.025,0,0,0-3.606.99,7.564,7.564,0,0,0-15.034,1.68,5.845,5.845,0,0,0-1.071-.1,5.776,5.776,0,1,0,0,11.552h19.711a7.061,7.061,0,1,0,0-14.122Z" transform="translate(829.961 730.887)" fill="#9aede5"/>
    <path id="Trazado_145441" data-name="Trazado 145441" d="M102.482,922.589a7.445,7.445,0,0,1,.1-3.177,31.461,31.461,0,0,0-.355-17.107c-3.78-11.8-19.1-22.259-19.1-22.259s4.159,17.419,7.578,24.836a93.461,93.461,0,0,0,9.312,14.864,7.262,7.262,0,0,1,1.337,3.052,127.07,127.07,0,0,1,2.112,24.483l1.15.045A128.269,128.269,0,0,0,102.482,922.589Z" transform="translate(837.035 746.707)" fill="#9aede5"/>
    <path id="Trazado_145442" data-name="Trazado 145442" d="M119.627,913.962A137.916,137.916,0,0,0,124.085,893s-13.737,11.335-14.863,20.106a29.437,29.437,0,0,0,.936,12.216,8.358,8.358,0,0,1,.324,3.321,116.282,116.282,0,0,0-.283,22.95l1.033-.119a114.534,114.534,0,0,1,.163-21.546,8.57,8.57,0,0,1,1.892-4.552A35.981,35.981,0,0,0,119.627,913.962Z" transform="translate(832.107 744.236)" fill="#00a79a"/>
    <path id="Trazado_145443" data-name="Trazado 145443" d="M134.088,892.451s-14.8,5.494-18.675,17.581a32.245,32.245,0,0,0-.322,17.678,6.071,6.071,0,0,1,0,3.011,135.648,135.648,0,0,0-3.521,28.5h1.178a134.7,134.7,0,0,1,3.4-27.885,10.455,10.455,0,0,1,1.755-3.749,94.507,94.507,0,0,0,9.31-14.916C130.715,905.076,134.088,892.451,134.088,892.451Z" transform="translate(831.611 744.342)" fill="#9aede5"/>
    <path id="Trazado_145444" data-name="Trazado 145444" d="M101.328,945.433A41.069,41.069,0,0,0,97.909,932a4.584,4.584,0,0,1-.345-2.43,22.213,22.213,0,0,0-.346-7.225c-1.2-5.931-9.073-18.743-20.47-19.493a82.941,82.941,0,0,1,5.956,11.61c2.56,6.692,6.215,13.693,12.274,16.379a4.554,4.554,0,0,1,2.345,2.434,39.72,39.72,0,0,1,2.966,12.237Z" transform="translate(838.252 742.359)" fill="#00a79a"/>
    <path id="Trazado_145445" data-name="Trazado 145445" d="M96.442,979.917h18.807l4.88-29.819a2.169,2.169,0,0,0-2.141-2.519H93.7a2.168,2.168,0,0,0-2.14,2.519Z" transform="translate(835.432 733.83)" fill="#9aede5"/>
    <line id="Línea_166" data-name="Línea 166" x2="505.5" transform="translate(915 1713.746)" fill="#0065c3" stroke="#309d90" stroke-width="4"/>
  </g>
</svg>
