<svg xmlns="http://www.w3.org/2000/svg" width="85" height="68.145" viewBox="0 0 85 68.145">
  <g id="monitor" transform="translate(0 -50.765)">
    <path id="Trazado_145951" data-name="Trazado 145951" d="M182.051,410.216H169.686l1.035-4.312,1-4.161h8.3l1,4.161Z" transform="translate(-141.515 -292.71)" fill="#ccc"/>
    <path id="Trazado_145952" data-name="Trazado 145952" d="M186.217,384.383H175.923l1-4.161,3.933-4.284,4.363,4.284Z" transform="translate(-146.717 -271.189)" fill="#999"/>
    <path id="Trazado_145953" data-name="Trazado 145953" d="M74.265,112.066v40.087a4.364,4.364,0,0,1-4.364,4.364H12.683a4.364,4.364,0,0,1-4.364-4.364V112.066a4.364,4.364,0,0,1,4.364-4.364H69.9A4.364,4.364,0,0,1,74.265,112.066Z" transform="translate(-6.938 -47.484)" fill="#ccc"/>
    <path id="Trazado_145954" data-name="Trazado 145954" d="M207.516,112.068v40.087a4.364,4.364,0,0,1-4.364,4.364H168.1L181.783,107.7h21.37A4.364,4.364,0,0,1,207.516,112.068Z" transform="translate(-140.189 -47.486)" fill="#e6e6e6"/>
    <rect id="Rectángulo_31821" data-name="Rectángulo 31821" width="65.946" height="36.843" transform="translate(1.381 66.205)" fill="#1565c0"/>
    <path id="Trazado_145955" data-name="Trazado 145955" d="M215.949,143.763v36.842H178.208l10.329-36.842Z" transform="translate(-148.623 -77.559)" fill="#039be5"/>
    <path id="Trazado_145956" data-name="Trazado 145956" d="M289.081,98.574a12.05,12.05,0,1,1-16.84-2.593A12.049,12.049,0,0,1,289.081,98.574Z" transform="translate(-222.935 -35.763)" fill="#9bd7f4"/>
    <path id="Trazado_145957" data-name="Trazado 145957" d="M264.8,66.243A17.808,17.808,0,1,1,239.9,62.41,17.808,17.808,0,0,1,264.8,66.243ZM257.558,86.49A12.049,12.049,0,1,0,240.716,83.9,12.049,12.049,0,0,0,257.558,86.49Z" transform="translate(-194.005 -6.837)" fill="#ffa726"/>
    <path id="Trazado_145958" data-name="Trazado 145958" d="M403.579,261.907a3.45,3.45,0,0,1-4.824-.744l-11.084-15.117-2.309-3.151a17.9,17.9,0,0,0,2.983-1.77,17.653,17.653,0,0,0,2.584-2.311l2.455,3.348,10.938,14.921A3.452,3.452,0,0,1,403.579,261.907Z" transform="translate(-321.386 -156.83)" fill="#ffca28"/>
    <path id="Trazado_145959" data-name="Trazado 145959" d="M390.929,238.815a17.645,17.645,0,0,1-2.584,2.311,17.912,17.912,0,0,1-2.983,1.77l2.309,3.151c.2-.082.39-.168.582-.259a17.9,17.9,0,0,0,2.983-1.77,17.494,17.494,0,0,0,2.147-1.854Z" transform="translate(-321.387 -156.831)" fill="#e2ad60"/>
    <path id="Trazado_145960" data-name="Trazado 145960" d="M285.5,150.318l.082.136a12.05,12.05,0,0,1-17.092-15.516h11.341a5.67,5.67,0,0,1,5.669,5.669Z" transform="translate(-222.937 -70.199)" fill="#039be5"/>
    <path id="Trazado_145961" data-name="Trazado 145961" d="M295,98.574a12.049,12.049,0,0,1-2.593,16.842q-.442.324-.9.6l-.082-.136v-9.711a5.67,5.67,0,0,0-5.669-5.669H274.408A12.052,12.052,0,0,1,295,98.574Z" transform="translate(-228.852 -35.763)" fill="#e6e6e6"/>
    <path id="Trazado_145962" data-name="Trazado 145962" d="M1.4,113.326a1.4,1.4,0,0,0,1.4-1.4v-5.372a2.951,2.951,0,0,1,2.947-2.947H37.121a1.4,1.4,0,1,0,0-2.8H5.745A5.752,5.752,0,0,0,0,106.554v5.372A1.4,1.4,0,0,0,1.4,113.326Z" transform="translate(0 -41.736)"/>
    <path id="Trazado_145963" data-name="Trazado 145963" d="M67.062,208.945a1.4,1.4,0,0,0-1.4,1.4V218.5a2.949,2.949,0,0,1-2.946,2.946H5.749A2.949,2.949,0,0,1,2.8,218.5V188.579a1.4,1.4,0,0,0-2.8,0V218.5a5.75,5.75,0,0,0,5.744,5.744h22.58l-1.354,5.639H21.487a1.4,1.4,0,0,0,0,2.8H46.979a1.4,1.4,0,0,0,0-2.8H41.491l-1.354-5.639h22.58a5.751,5.751,0,0,0,5.744-5.744v-8.153A1.4,1.4,0,0,0,67.062,208.945ZM38.614,229.879H29.853l1.354-5.639H37.26Z" transform="translate(-0.004 -113.768)"/>
    <path id="Trazado_145964" data-name="Trazado 145964" d="M25.708,360.457H83.3a1.4,1.4,0,0,0,0-2.8H25.708a1.4,1.4,0,0,0,0,2.8Z" transform="translate(-20.273 -255.945)"/>
    <path id="Trazado_145965" data-name="Trazado 145965" d="M25.714,139.506H54.881a1.4,1.4,0,1,0,0-2.8H25.714a1.4,1.4,0,1,0,0,2.8Z" transform="translate(-20.278 -71.675)"/>
    <path id="Trazado_145966" data-name="Trazado 145966" d="M271.083,99.468l-5.907-8.057a1.4,1.4,0,0,0-2.257,1.654l5.907,8.057a2.056,2.056,0,0,1-.441,2.868,2.051,2.051,0,0,1-2.869-.443L253.083,86.589a19.546,19.546,0,0,0,1.72-1.124,19.136,19.136,0,0,0,1.589-1.3l3.989,5.442a1.4,1.4,0,1,0,2.257-1.654l-4.292-5.855a19.175,19.175,0,1,0-7.82,5.738L263.26,105.2a4.872,4.872,0,0,0,3.915,1.984,4.85,4.85,0,0,0,3.908-7.717ZM243.475,86.385a16.41,16.41,0,0,1-.064-32.82,16.638,16.638,0,0,1,2.533.195,16.409,16.409,0,0,1,9.588,27.319l0,0a16.3,16.3,0,0,1-2.379,2.128,16.582,16.582,0,0,1-2.751,1.633A16.271,16.271,0,0,1,243.475,86.385Z" transform="translate(-187.019 0)"/>
    <path id="Trazado_145967" data-name="Trazado 145967" d="M285.619,100.965a13.457,13.457,0,0,0-7.72-14.288,1.4,1.4,0,1,0-1.157,2.548,10.652,10.652,0,0,1,1.881,18.285c-.26.191-.528.37-.8.533a10.65,10.65,0,1,1-5.437-19.774,1.4,1.4,0,1,0,.018-2.8,13.31,13.31,0,0,0-8.026,2.6,13.448,13.448,0,0,0,14.89,22.366c.342-.206.683-.432,1.012-.674A13.366,13.366,0,0,0,285.619,100.965Z" transform="translate(-215.899 -28.943)"/>
    <path id="Trazado_145968" data-name="Trazado 145968" d="M309.014,140a1.4,1.4,0,0,0,1.4-1.4v-4.768a7.076,7.076,0,0,0-7.068-7.068h-6.439a1.4,1.4,0,1,0,0,2.8h6.439a4.274,4.274,0,0,1,4.27,4.27V138.6A1.4,1.4,0,0,0,309.014,140Z" transform="translate(-246.448 -63.383)"/>
  </g>
</svg>
