<svg xmlns="http://www.w3.org/2000/svg" width="505" height="295.163" viewBox="0 0 505 295.163">
  <g id="Grupo_84577" data-name="Grupo 84577" transform="translate(-3235.031 -391.944)">
    <path id="Trazado_145446" data-name="Trazado 145446" d="M3740.031,1511.059a2.571,2.571,0,0,1-.769,1.834,2.633,2.633,0,0,1-1.856.76l-499.75.154a2.611,2.611,0,0,1-2.625-2.594,2.561,2.561,0,0,1,.769-1.834,2.632,2.632,0,0,1,1.856-.76l499.75-.154A2.609,2.609,0,0,1,3740.031,1511.059Z" transform="translate(0 -826.7)" fill="#26a69a"/>
    <path id="Trazado_145447" data-name="Trazado 145447" d="M3742.383,762.046l8.168,30.977c-9.268-8.261-17.955-17.127-26.267-25.448l-.1-.1-23.165-23.729c-21.805-20.128-44.735-49.2-77.163-49.2-.605,0-1.211.009-1.812.037l-29.53-7.318,19.138-25.384a91.517,91.517,0,0,1,12.763-.888c41.378,0,72.134,32.993,98.973,59.833l22.365,22.924c8.192,7.563,16.54,16.388,25.49,24.454Z" transform="translate(-233.666 -199.252)" fill="#009be7"/>
    <path id="Trazado_145448" data-name="Trazado 145448" d="M3947.522,1002.922c-10.674,10.669-21.5,21.739-33.25,31.4l8.949-32.04-28.074,6.3c10.914-8.816,20.867-19.217,30-28.587Z" transform="translate(-457.788 -435.503)" fill="#0065c3"/>
    <path id="Trazado_145449" data-name="Trazado 145449" d="M4157.318,778.531l-12.26,27.288,0,0c-9.237,7.965-17.766,16.855-25.68,24.972l-22.365-22.924c9.412-9.412,18.944-19.124,29.119-27.917Z" transform="translate(-607.283 -286.299)" fill="#0065c3"/>
    <path id="Trazado_145450" data-name="Trazado 145450" d="M3576.025,1089.823l-8.575,30.7c-18.131,13.7-38.624,23.571-64.049,23.571-29.941,0-54.433-14.09-68.25-36.76l31.708,6.564V1090.84c8.414,12.2,22.282,19.7,38.781,19.7,14.455,0,27.653-5.64,39.737-13.836Z" transform="translate(-117.123 -516.836)" fill="#ffa800"/>
    <path id="Trazado_145451" data-name="Trazado 145451" d="M3423.07,749.74a53.705,53.705,0,0,0,4.128,21.071v25.818l-30.062-6.222a89.335,89.335,0,0,1-9.3-40.667c0-38.105,26.631-72.05,65.537-80.658l-20.345,26.979,25.67,6.356A49.438,49.438,0,0,0,3423.07,749.74Z" transform="translate(-82.086 -205.243)" fill="#ffca00"/>
    <path id="Trazado_145452" data-name="Trazado 145452" d="M4380.839,743.749c0,1.239-.027,2.469-.087,3.7l-23.9,20.886-11.34-28.088c-1.576-26.692-21.163-45.7-47.425-45.7-16.665,0-31.647,7.489-45.187,17.756l11.58-25.777-32.623,1.489c19.217-15.468,40.953-27.02,68.468-27.02C4347.851,660.992,4380.839,695.663,4380.839,743.749Z" transform="translate(-707.145 -199.252)" fill="#009be7"/>
    <path id="Trazado_145453" data-name="Trazado 145453" d="M4352.772,1012.072c-5.076,39.687-39.011,72.425-84.338,72.425-25.347,0-46.7-12.38-65.62-28.139l-7.974-30.238,29.817,6.361c12.971,10.489,27.353,18.463,44.337,18.463a49.246,49.246,0,0,0,48.608-41.6l9.98,24.732Z" transform="translate(-679.734 -457.238)" fill="#00a79a"/>
    <path id="Trazado_145454" data-name="Trazado 145454" d="M3897.225,1065.909l-8.95,32.04c-2.025,1.664-4.073,3.292-6.158,4.863l8.575-30.7L3860.044,1079l9.1-6.781,0,0Z" transform="translate(-431.791 -499.125)" fill="#fff"/>
    <path id="Trazado_145455" data-name="Trazado 145455" d="M3458.36,1069.659v23.058l-31.708-6.564q-1.588-2.593-2.977-5.335l30.062,6.222v-25.818A46.905,46.905,0,0,0,3458.36,1069.659Z" transform="translate(-108.625 -495.654)" fill="#fff"/>
    <path id="Trazado_145456" data-name="Trazado 145456" d="M4176.6,1056.619l7.975,30.238q-3.142-2.614-6.195-5.349l-8.168-30.977,28.865,6.157,7.34,6.292Z" transform="translate(-661.496 -487.737)" fill="#fff"/>
    <path id="Trazado_145457" data-name="Trazado 145457" d="M4247.74,759.41l-11.58,25.777c-2.718,2.052-5.372,4.225-7.975,6.472l12.26-27.288-31.19,1.424q2.891-2.5,5.862-4.9Z" transform="translate(-690.411 -272.138)" fill="#fff"/>
    <path id="Trazado_145458" data-name="Trazado 145458" d="M4703.8,973.7q-.146,3.349-.569,6.638l-25.189,22.009-9.98-24.732a48.346,48.346,0,0,0,.6-7.614c0-1.183-.032-2.353-.106-3.5l11.34,28.088Z" transform="translate(-1030.192 -425.5)" fill="#fff"/>
    <path id="Trazado_145459" data-name="Trazado 145459" d="M3599.48,697.115l-11.76,1.844h0l-25.67-6.356,20.345-26.979q3.294-.728,6.7-1.211L3569.95,689.8Z" transform="translate(-211.099 -201.786)" fill="#fff"/>
    <path id="Trazado_145460" data-name="Trazado 145460" d="M3832.461,719.285a2.364,2.364,0,0,1-.266,3.229c-2.73,2.276-5.51,4.516-8.458,6.63a61.164,61.164,0,0,1-9.564,5.8,28.325,28.325,0,0,1-5.77,2.039,18.37,18.37,0,0,1-6.894.327,16.93,16.93,0,0,1-6.841-2.689,24.371,24.371,0,0,1-5-4.53,41.919,41.919,0,0,1-3.594-4.938c-1.049-1.662-1.988-3.328-2.868-4.993-1.752-3.329-3.279-6.651-4.734-9.96-2.895-6.618-5.507-13.188-8.138-19.708-1.566-4.173,1-8.885,5.646-10.388s9.494.862,10.642,5.167c1.658,6.82,3.279,13.614,5.084,20.2.906,3.288,1.863,6.524,2.949,9.6.544,1.536,1.122,3.031,1.749,4.446a31.367,31.367,0,0,0,2.035,3.927,14.482,14.482,0,0,0,2.332,2.95,7.109,7.109,0,0,0,2.645,1.629c1.97.694,4.886.429,7.869-.492a54.073,54.073,0,0,0,9.077-3.858c3.021-1.56,6-3.317,8.96-5.132A2.382,2.382,0,0,1,3832.461,719.285Z" transform="translate(-365.013 -213.068)" fill="#ea8096"/>
    <path id="Trazado_145461" data-name="Trazado 145461" d="M3777.206,709.929l-6.642-18.756c-2.009-5.673-.137-11.694,4.663-13.394h0c4.8-1.7,10.711,1.565,12.72,7.238l6.641,18.756Z" transform="translate(-364.933 -211.351)" fill="#ffa800"/>
    <path id="Trazado_145462" data-name="Trazado 145462" d="M3669.353,586.861s-3.556,13.659-15.344,12.036c-8.932-1.23-17.243-12.824-7.627-23.514,0,0-3.09-8.506,1.594-11.593a12.662,12.662,0,0,1,5.309-13.985c8.018-5.364,8.309-8.6,19.014-7.561s16.127,7.681,14.167,13.743c-3.384,10.464-5.6,7.92-1.667,13.2,2.313,3.1-.271,9.225-2.893,11.638-4.251,3.912-6,.715-4.636,4.985s-.536,7.632-4.74,6.111S3675.448,583.341,3669.353,586.861Z" transform="translate(-270.378 -111.165)" fill="#050f64"/>
    <path id="Trazado_145463" data-name="Trazado 145463" d="M3750.307,1450.24a20.218,20.218,0,0,0,4.5,8.12l-11.869-4.9.1-1.347a14.855,14.855,0,0,0,2.139-3.793Z" transform="translate(-345.065 -782.33)" fill="#f5bdc8"/>
    <path id="Trazado_145464" data-name="Trazado 145464" d="M3739.293,1464.87l15.359,5.755a.581.581,0,0,0,.643-.925l-4.22-4.86a.719.719,0,0,0-1.111.322.8.8,0,0,1-.98.352l-6.153-2.285a4.861,4.861,0,0,1-2-1.4l-.663-.777a.344.344,0,0,0-.583.1l-.893,2.381A1.036,1.036,0,0,0,3739.293,1464.87Z" transform="translate(-341.868 -791.672)" fill="#050f64"/>
    <path id="Trazado_145465" data-name="Trazado 145465" d="M3756.379,950.906h0l-.017-.063q-.1-.439-.246-.867L3740.743,895.7c-1.965-6.941-8.195-10.064-15.231-8.471a13.062,13.062,0,0,0-9.855,15.625v0h0c3.206,22.185,9.4,40.625,20.554,52.84l-11.551,76.814,5.512,2.024,25.85-77.994h0l.026-.07c.105-.3.2-.6.276-.9l.005-.015A9.907,9.907,0,0,0,3756.379,950.906Z" transform="translate(-324.621 -366.497)" fill="#0065c3"/>
    <path id="Trazado_145466" data-name="Trazado 145466" d="M3728.615,1478.564a20.221,20.221,0,0,0,7.065,6.023l-12.834-.422-.378-1.3a14.862,14.862,0,0,0,.671-4.3Z" transform="translate(-329.904 -804.729)" fill="#f5bdc8"/>
    <path id="Trazado_145467" data-name="Trazado 145467" d="M3722.154,1496.256l16.4,0a.581.581,0,0,0,.277-1.091l-5.658-3.068c-.552-.137-.855.217-.927.692a.8.8,0,0,1-.794.674l-6.563.022a4.859,4.859,0,0,1-2.368-.607l-.894-.494a.344.344,0,0,0-.51.3v2.543A1.035,1.035,0,0,0,3722.154,1496.256Z" transform="translate(-328.905 -814.726)" fill="#050f64"/>
    <path id="Trazado_145468" data-name="Trazado 145468" d="M3676.89,887.077c-7.2-.473-12.729,1.566-13.2,8.765-.556,2.85-.621,3.2-.786,4.27-3.542,23.027-2.386,42.294,5.658,57.387h0l9.28,82.967,5.847.536,5.379-140.019c0-.005,0-.01,0-.016A13.062,13.062,0,0,0,3676.89,887.077Z" transform="translate(-284.385 -366.638)" fill="#0065c3"/>
    <path id="Trazado_145469" data-name="Trazado 145469" d="M3666.954,1006.516c-5.218-9.752-7.449-21.6-7.469-35-.007-4.657.251-9.5.743-14.5l-.616-.372c-2.117,21.2.093,37.639,6.708,50.068l1.79,15.806.641-.148Zm20.37-53.187s-2.117,52.175-2.124,52.364l.647.148,2.131-52.684Zm-3.586,88.491-1.6,46.686.657-.011,1.586-46.621Zm-9.725,27-.637.152,2.406,21.1,5.483.5v-.654l-4.895-.441Z" transform="translate(-282.78 -415.623)" fill="#009be7"/>
    <path id="Trazado_145470" data-name="Trazado 145470" d="M3685.644,662.6h0a24.264,24.264,0,0,1,23.994,27.872l-5.75,39.175c-10.613,3.967-24.534,3.426-36.82,0l-1.437-45.393A20.075,20.075,0,0,1,3685.644,662.6Z" transform="translate(-287.766 -200.44)" fill="#ffa800"/>
    <path id="Trazado_145471" data-name="Trazado 145471" d="M3702.667,675.915a24.872,24.872,0,0,0-7.97-6.151l-.167.643a24.3,24.3,0,0,1,13.528,21.72,24.575,24.575,0,0,1-.273,3.652l-1,6.794.55.717,1.088-7.419A24.857,24.857,0,0,0,3702.667,675.915Zm-35.364.606-.431-.509a20.726,20.726,0,0,0-3.749,13.565l1.115,35.262.657.083-1.12-35.364A19.968,19.968,0,0,1,3667.3,676.521Zm36.326,47.554-1.6,10.876c-8.062,3.013-18.036,3.43-27.75,1.948l-.032.652a71.894,71.894,0,0,0,10.691.829,49.5,49.5,0,0,0,17.318-2.819l.361-.134,1.662-11.353Z" transform="translate(-285.909 -205.748)" fill="#ffa800"/>
    <path id="Trazado_145472" data-name="Trazado 145472" d="M3738.239,647.976l-1.929,14.76a8.253,8.253,0,0,1-9.617-1.257l1.929-14.76Z" transform="translate(-333.034 -188.681)" fill="#f5bdc8"/>
    <path id="Trazado_145473" data-name="Trazado 145473" d="M3741.815,653.132l-.479,3.661a10.586,10.586,0,0,1-5.077.834c-.1-.01-.2-.02-.3-.033a6.45,6.45,0,0,1-4.2-2.342l.441-3.377Z" transform="translate(-336.785 -192.5)" fill="#ea8096"/>
    <path id="Trazado_145474" data-name="Trazado 145474" d="M3740.4,588.751l-1.624,10.469a9.222,9.222,0,0,1-9.858,7.693h0a5.2,5.2,0,0,1-3.737-2.059,15.582,15.582,0,0,1-2.074-4.215c-.977-2.779-1.694-5.456-1.132-8.348l.893-3.157,15.164-4.326Z" transform="translate(-329.396 -142.83)" fill="#f5bdc8"/>
    <path id="Trazado_145475" data-name="Trazado 145475" d="M3716.828,591.836s2.447-6.277,6.308-7.789c0,0-2.366-4.247-6.529.85-2.024,2.477-4.124,7.269-3.211,8.826S3716.409,595.866,3716.828,591.836Z" transform="translate(-323.024 -141.039)" fill="#050f64"/>
    <path id="Trazado_145476" data-name="Trazado 145476" d="M3748.276,584.324q-.059.086-.123.171c-.507-3.565-2.279-6.427-6.209-7.728a14.281,14.281,0,0,0-2.547-.577c-5.868-.808-5.778-3.711-5.778-3.711l-1.247-4.655c16.01-6.506,16.822,6.675,16.289,13.375C3748.549,582.608,3748.378,583.732,3748.276,584.324Z" transform="translate(-337.24 -128.953)" fill="#050f64"/>
    <path id="Trazado_145477" data-name="Trazado 145477" d="M3714.352,610.5a3.529,3.529,0,1,1-3.042-3.956A3.529,3.529,0,0,1,3714.352,610.5Z" transform="translate(-318.689 -158.903)" fill="#f5bdc8"/>
    <path id="Trazado_145478" data-name="Trazado 145478" d="M3766.951,772.133c-1.663-.005-3.348-.057-4.978-.108l-1.193-.036c-.663-.022-1.324-.058-1.985-.093-.362-.019-.725-.039-1.086-.056l-1.53-.079-1.527-.117c-.361-.03-.722-.056-1.084-.082-.645-.047-1.31-.094-1.96-.168l-3.023-.315-3-.408c-.637-.084-1.278-.2-1.9-.307-.354-.063-.709-.126-1.062-.183a65.356,65.356,0,0,1-11.336-3.038,44.176,44.176,0,0,1-9.972-5.2c-5.443-3.843-10.208-9.192-15-16.833-1.873-2.983-3.794-6.373-5.875-10.361-1.649-3.193-3.356-6.667-5.373-10.935a9.011,9.011,0,0,0-5.212-4.628,7.546,7.546,0,0,0-5.9.425,7.4,7.4,0,0,0-3.682,4.607,9.064,9.064,0,0,0,.994,7.061c2.589,4.206,4.769,7.631,6.863,10.779,2.763,4.116,5.193,7.474,7.646,10.566a86.424,86.424,0,0,0,9.067,9.894,57.346,57.346,0,0,0,11.115,8.105,53.546,53.546,0,0,0,12.714,4.951,73.706,73.706,0,0,0,13.038,2c.373.02.745.044,1.118.068.693.044,1.41.091,2.113.107l3.217.08,3.194-.019h.048c.677,0,1.359-.026,2.021-.051.372-.014.744-.028,1.118-.038l1.59-.054,1.582-.092c.37-.023.74-.044,1.11-.065.684-.039,1.367-.078,2.049-.13l1.164-.093c1.681-.133,3.418-.271,5.118-.453a2.444,2.444,0,0,0,2.313-2.459A2.476,2.476,0,0,0,3766.951,772.133Z" transform="translate(-298.42 -242.047)" fill="#f4bcc7"/>
    <path id="Trazado_145479" data-name="Trazado 145479" d="M3686.263,750.191l-10.721-18c-3.243-5.446-1.928-12.419,3.518-15.662l.471-.07a11.477,11.477,0,0,1,15.732,3.989l10.721,18Z" transform="translate(-293.856 -239.128)" fill="#ffa800"/>
    <path id="Trazado_145480" data-name="Trazado 145480" d="M3693.938,718.228A12.2,12.2,0,0,0,3683.5,712.3a12.046,12.046,0,0,0-3.053.392l.281.61a11.475,11.475,0,0,1,12.642,5.261l2.812,4.724.583-.31Zm8.5,14.264-.583.31,2.245,3.768-11.983,7.134.32.577L3705,736.8Zm-26.34-17.115-.323-.58a11.272,11.272,0,0,0-4.262,6.718,12.643,12.643,0,0,0,1.576,9.131l8.439,14.168.63-.227-8.5-14.277C3670.632,725.243,3671.561,718.851,3676.094,715.377Z" transform="translate(-291.966 -237.25)" fill="#0065c3"/>
    <rect id="Rectángulo_31713" data-name="Rectángulo 31713" width="2.089" height="62.236" transform="translate(3412.204 522.818) rotate(-80.742)" fill="#050f64"/>
    <path id="Trazado_145481" data-name="Trazado 145481" d="M3927.341,825.659l-38.151-6.219,16.875-29.307,38.151,6.219Z" transform="translate(-453.376 -294.891)" fill="#0065c3"/>
    <path id="Trazado_145482" data-name="Trazado 145482" d="M3987,851.864c-1.3,3.076-3.274,5.179-4.413,4.7s-1.01-3.364.288-6.439,3.274-5.179,4.413-4.7S3988.3,848.788,3987,851.864Z" transform="translate(-521.969 -335.788)" fill="#fff"/>
    <path id="Trazado_145483" data-name="Trazado 145483" d="M3767.611,857.449c.715.719,1.434,1.406,2.152,2.071a57.244,57.244,0,0,0,11.115,8.105,53.437,53.437,0,0,0,12.715,4.949,73.08,73.08,0,0,0,12.726,1.982l2.438-7.163c-.054-.008-.1-.019-.154-.027-.356-.062-.711-.124-1.062-.182a65.58,65.58,0,0,1-11.335-3.041,44.035,44.035,0,0,1-9.971-5.2,47.412,47.412,0,0,1-9.6-9.183c-.444.622-.9,1.228-1.371,1.835a21.74,21.74,0,0,1-2.144,2.5,11.291,11.291,0,0,1-2.148,1.916l-1.488.85A8,8,0,0,1,3767.611,857.449Z" transform="translate(-363.337 -339.05)" fill="#f4bcc7"/>
    <path id="Trazado_145484" data-name="Trazado 145484" d="M4344.831,625.007a2.4,2.4,0,0,1,2.061,2.518c-.24,3.613-.375,7.219-.257,10.759.05,1.77.167,3.523.368,5.236a39.633,39.633,0,0,0,.871,4.979,22.123,22.123,0,0,0,1.552,4.4c.156.332.34.632.507.944l.277.433.136.216.148.2a9.063,9.063,0,0,0,1.233,1.41,8.06,8.06,0,0,0,1.375,1,8.813,8.813,0,0,0,1.536.645,11.2,11.2,0,0,0,1.756.344,13.97,13.97,0,0,0,1.972.065,22.975,22.975,0,0,0,4.363-.6,42.706,42.706,0,0,0,4.619-1.345,81.923,81.923,0,0,0,9.359-4.04c3.109-1.557,6.2-3.258,9.261-5.056s6.106-3.677,9.131-5.615a7.992,7.992,0,0,1,6.3-.856,8.589,8.589,0,0,1,5.193,4.019,8.337,8.337,0,0,1,.795,6.532,8.13,8.13,0,0,1-4.241,5.017c-3.422,1.587-6.881,3.13-10.4,4.592s-7.1,2.851-10.782,4.1a94.2,94.2,0,0,1-11.453,3.172,54.012,54.012,0,0,1-6.165.9,33.585,33.585,0,0,1-6.625-.059,24.133,24.133,0,0,1-3.486-.647,20.967,20.967,0,0,1-3.5-1.282,18.476,18.476,0,0,1-3.263-2.04,17.626,17.626,0,0,1-2.7-2.7,18.37,18.37,0,0,1-1.97-3.062l-.205-.393-.181-.4-.353-.792c-.2-.529-.417-1.058-.583-1.586a30.425,30.425,0,0,1-1.288-6.227,47.074,47.074,0,0,1-.228-5.979c.039-1.957.174-3.882.378-5.781.392-3.8,1.043-7.512,1.794-11.177A2.372,2.372,0,0,1,4344.831,625.007Z" transform="translate(-787.197 -172.58)" fill="#ea8096"/>
    <path id="Trazado_145485" data-name="Trazado 145485" d="M4469.718,708.7l19.522-10.5c5.9-3.177,8.5-10.22,5.327-16.125h0c-3.178-5.9-10.93-8.436-16.834-5.258l-19.521,10.5Z" transform="translate(-874.783 -209.946)" fill="#fff"/>
    <path id="Trazado_145486" data-name="Trazado 145486" d="M4483.37,676.717c.1.182.211.367.314.553l1.939-1.042a11.475,11.475,0,0,1,2.108-.874l-.148-.62a11.958,11.958,0,0,0-2.26.932Zm-8.9,26.917,2.877,5.349,5.928-3.189-.189-.623-5.477,2.945-2.6-4.833Zm19.345-4.239-7.128,3.836.35.539,7.342-3.95Zm.775-24.753.167.718a12.779,12.779,0,0,1,7.7,6.128,11.223,11.223,0,0,1,1.084,7.873l.654,0a11.866,11.866,0,0,0-1.177-8.175,12.9,12.9,0,0,0-3.63-4.209A13.736,13.736,0,0,0,4494.591,674.642Zm-23.968,8.933.128.657,4.946-2.662-.264-.583Zm-1.756,9.643,2.644,4.916.521-.383-2.575-4.78Z" transform="translate(-882.674 -209.361)" fill="#009be7"/>
    <path id="Trazado_145487" data-name="Trazado 145487" d="M4563.96,1451.093l-21.365,10.785a3.676,3.676,0,0,1-.41-2.305,3.787,3.787,0,0,1,1.566-2.221,23,23,0,0,1,2.407-1.4,14.709,14.709,0,0,0,4.949-4.605,21.982,21.982,0,0,1,2.017-2.923l5.9-2.787a7.473,7.473,0,0,1,3.141,2.354A13.161,13.161,0,0,1,4563.96,1451.093Z" transform="translate(-936.934 -780.347)" fill="#050f64"/>
    <path id="Trazado_145488" data-name="Trazado 145488" d="M4635.284,1487.5h-23.932a3.681,3.681,0,0,1,.673-2.243,3.789,3.789,0,0,1,2.4-1.277,23.087,23.087,0,0,1,2.778-.161,14.7,14.7,0,0,0,6.493-1.881,21.926,21.926,0,0,1,3.119-1.7l6.522.171a7.468,7.468,0,0,1,1.743,3.517A13.16,13.16,0,0,1,4635.284,1487.5Z" transform="translate(-988.195 -805.967)" fill="#050f64"/>
    <path id="Trazado_145489" data-name="Trazado 145489" d="M4667.677,1191.609v0a0,0,0,0,0,0,0Z" transform="translate(-1029.908 -592.216)" fill="#050f64"/>
    <path id="Trazado_145490" data-name="Trazado 145490" d="M4655.352,998.733h0v0h0Z" transform="translate(-1020.78 -449.375)" fill="#050f64" opacity="0"/>
    <path id="Trazado_145491" data-name="Trazado 145491" d="M4667.677,1191.609v0a0,0,0,0,0,0,0Z" transform="translate(-1029.908 -592.216)" fill="#050f64"/>
    <path id="Trazado_145492" data-name="Trazado 145492" d="M4667.677,1191.609v0a0,0,0,0,0,0,0Z" transform="translate(-1029.908 -592.216)" fill="#050f64"/>
    <path id="Trazado_145493" data-name="Trazado 145493" d="M4459.759,1043.936l31,66.646,7.822-3.169-19.772-62.141,15.978-25.218,18.453,96.346,8.341.314v-123.5c.178-1.2-51.1-4.265-51.1-4.261l-11.2,50.312h.006A8.855,8.855,0,0,0,4459.759,1043.936Zm53.5-2.412h0a0,0,0,0,1,0,0Z" transform="translate(-875.487 -442.132)" fill="#ffa800"/>
    <path id="Trazado_145494" data-name="Trazado 145494" d="M4667.677,1191.609v0a0,0,0,0,0,0,0Z" transform="translate(-1029.908 -592.216)" fill="#050f64" opacity="0"/>
    <path id="Trazado_145495" data-name="Trazado 145495" d="M4533.825,668.07h0a22.407,22.407,0,0,0-25.918,20.424l-5.111,62.6c20.1,11.586,32.663,8.955,51.437,4.237l2.659-58.9A27.479,27.479,0,0,0,4533.825,668.07Z" transform="translate(-907.801 -204.278)" fill="#fff"/>
    <path id="Trazado_145496" data-name="Trazado 145496" d="M4550.641,678.626a27.357,27.357,0,0,1,3.393,7.985l.664-.214a28.113,28.113,0,0,0-3.434-8.1Zm-3.133,75.863.153.684c1.5-.361,3.044-.744,4.653-1.15l.5-.128.7-15.389-.7-.1-.674,14.938Q4549.761,753.944,4547.508,754.489Zm-47.533-5,.383.221a72.555,72.555,0,0,0,10.955,5.248l.125-.709a71.633,71.633,0,0,1-10.732-5.142l3-36.763-.7-.048Zm33.792,7.557a53.391,53.391,0,0,1-5.421.3v.7a54.462,54.462,0,0,0,5.718-.329Zm19.94-38.315h.7l.638-14.162-.7.083Zm-49.491-21.176.687.153.914-11.207a22.411,22.411,0,0,1,22.307-20.713q.858,0,1.724.064v-.7c-.5-.038-1.009-.061-1.51-.064a23.142,23.142,0,0,0-23.213,21.358Z" transform="translate(-905.712 -202.29)" fill="#009be7"/>
    <path id="Trazado_145497" data-name="Trazado 145497" d="M4477.317,1029.836a1.262,1.262,0,0,0,.872-2.054l-12.118-14.92a10.052,10.052,0,0,1,1.466-14.142l7.726-6.275a10.055,10.055,0,0,1,14.143,1.464l12.042,14.828a1.264,1.264,0,0,0,2.2-.45,29.736,29.736,0,1,0-26.326,21.549Z" transform="translate(-865.228 -428.425)" fill="#ffca00"/>
    <path id="Trazado_145498" data-name="Trazado 145498" d="M4271.271,401.688a1.262,1.262,0,0,0-.872,2.055l12.118,14.92a10.054,10.054,0,0,1-1.466,14.142l-7.727,6.275a10.054,10.054,0,0,1-14.143-1.464l-12.042-14.828a1.264,1.264,0,0,0-2.2.451,29.736,29.736,0,1,0,26.327-21.55Z" transform="translate(-716.008 -7.149)" fill="#ffca00"/>
    <path id="Trazado_145499" data-name="Trazado 145499" d="M4335.8,580.007l29.348-8.8L4399.8,681.461l-29.348,8.8Z" transform="translate(-784.124 -132.759)" fill="#ffca00"/>
    <path id="Trazado_145500" data-name="Trazado 145500" d="M4432.033,745.2a2.4,2.4,0,0,1,3.161.768c1.985,3.029,4.05,5.988,6.276,8.743,1.106,1.383,2.256,2.711,3.448,3.958a39.7,39.7,0,0,0,3.695,3.449,22.1,22.1,0,0,0,3.889,2.576c.325.171.652.3.973.448l.482.179.238.091.238.069a9.044,9.044,0,0,0,1.833.382,8.038,8.038,0,0,0,1.7-.031,8.852,8.852,0,0,0,1.615-.41,11.233,11.233,0,0,0,1.609-.784,13.962,13.962,0,0,0,1.612-1.135,22.943,22.943,0,0,0,3.125-3.1,42.705,42.705,0,0,0,2.877-3.856,82.078,82.078,0,0,0,5.037-8.862c1.543-3.116,2.984-6.334,4.347-9.615s2.659-6.614,3.9-9.983a7.994,7.994,0,0,1,4.511-4.477,8.587,8.587,0,0,1,6.567.08,8.337,8.337,0,0,1,4.569,4.734,8.13,8.13,0,0,1-.363,6.56c-1.775,3.328-3.606,6.643-5.537,9.932s-3.952,6.554-6.133,9.771a94.152,94.152,0,0,1-7.231,9.431,54.046,54.046,0,0,1-4.381,4.429,33.562,33.562,0,0,1-5.323,3.944,24.113,24.113,0,0,1-3.172,1.584,20.967,20.967,0,0,1-3.566,1.085,18.5,18.5,0,0,1-3.833.338,17.658,17.658,0,0,1-3.779-.526,18.383,18.383,0,0,1-3.417-1.257l-.4-.19-.382-.207-.758-.42c-.479-.3-.97-.594-1.42-.915a30.414,30.414,0,0,1-4.78-4.194,47.1,47.1,0,0,1-3.783-4.636c-1.148-1.586-2.2-3.2-3.182-4.842-1.977-3.272-3.691-6.625-5.3-10A2.373,2.373,0,0,1,4432.033,745.2Z" transform="translate(-854.458 -245.171)" fill="#f5bdc8"/>
    <path id="Trazado_145501" data-name="Trazado 145501" d="M4595,757.926l9.253-20.145c2.8-6.093.632-13.281-5.461-16.08h0c-6.093-2.8-13.805-.149-16.6,5.944l-9.253,20.145Z" transform="translate(-959.747 -243.386)" fill="#fff"/>
    <path id="Trazado_145502" data-name="Trazado 145502" d="M4585.554,727.572c.192.083.39.166.584.252l.92-2a11.459,11.459,0,0,1,1.156-1.967l-.492-.406a11.969,11.969,0,0,0-1.242,2.1Zm9.113,26.845,5.519,2.536,2.811-6.117-.527-.383-2.6,5.65-4.988-2.29Zm12.887-15.037-3.379,7.356.6.22,3.481-7.576Zm-14.293-20.224.565.473a12.781,12.781,0,0,1,9.838.252,11.22,11.22,0,0,1,5.608,5.631l.521-.4a11.869,11.869,0,0,0-5.865-5.816,12.888,12.888,0,0,0-5.433-1.172A13.725,13.725,0,0,0,4593.261,719.156Zm-13.75,21.569.5.447,2.344-5.1-.562-.306Zm4.407,8.755,5.072,2.331.186-.62-4.935-2.265Z" transform="translate(-964.615 -241.565)" fill="#009be7"/>
    <path id="Trazado_145503" data-name="Trazado 145503" d="M4585.712,641.909l1.876,15.942a8.9,8.9,0,0,0,10.387-1.222l-1.876-15.942Z" transform="translate(-969.207 -184.214)" fill="#f5bdc8"/>
    <path id="Trazado_145504" data-name="Trazado 145504" d="M4585.712,641.909l.848,7.211a8.463,8.463,0,0,0,2.388.26q.4-.015.789-.061a9.4,9.4,0,0,0,6.865-4.354l-.5-4.278Z" transform="translate(-969.207 -184.214)" fill="#ea8096"/>
    <path id="Trazado_145505" data-name="Trazado 145505" d="M4562.79,580.452l1.038,6.631.42,2.684a7.449,7.449,0,0,0,7.611,6.3,8.35,8.35,0,0,0,3.506-.9c.248-.126.488-.264.72-.412.144-.091.286-.186.424-.287a8.185,8.185,0,0,0,2.92-3.94c.473-1.363.892-2.854,1.277-4.422.222-.9.432-1.817.632-2.751a11.33,11.33,0,0,0-3.74-11.146c-2.768-2.29-5.961-2.725-9.607-1.171A8.758,8.758,0,0,0,4562.79,580.452Z" transform="translate(-952.153 -131.951)" fill="#f5bdc8"/>
    <path id="Trazado_145506" data-name="Trazado 145506" d="M4572.58,562.307l-1.191-.576s2.029-4.843,1.191-6.409c-1.191-2.225-7.017-2.506-9.916-1.675a2.465,2.465,0,0,0-1.92,1.516,21.062,21.062,0,0,0-.875,9.469s-4.3-11.194-.815-17.262c2.283-3.975,4.375-6.772,9.622-4.514,8.332,3.586,12.923,10.2,11.6,20l-5.47-2.009Z" transform="translate(-948.455 -111.165)" fill="#050f64"/>
    <ellipse id="Elipse_4192" data-name="Elipse 4192" cx="3.919" cy="3.487" rx="3.919" ry="3.487" transform="matrix(0.993, -0.117, 0.117, 0.993, 3623.64, 448.373)" fill="#f5bdc8"/>
    <rect id="Rectángulo_31714" data-name="Rectángulo 31714" width="45.008" height="32.733" transform="translate(3365.838 424.677) rotate(180)" fill="#0065c3"/>
    <path id="Trazado_145507" data-name="Trazado 145507" d="M3568.833,518.121v12.5l-17.73-12.5Z" transform="translate(-202.995 -93.444)" fill="#050f64"/>
    <path id="Trazado_145508" data-name="Trazado 145508" d="M3473.361,441.777v-2.545l8.906-3.817v2.545l-6.361,2.544,6.361,2.544v2.544Z" transform="translate(-145.421 -32.194)" fill="#fff"/>
    <path id="Trazado_145509" data-name="Trazado 145509" d="M3520.044,433.8H3517.5l5.344-22.9h2.544Z" transform="translate(-178.109 -14.035)" fill="#fff"/>
    <path id="Trazado_145510" data-name="Trazado 145510" d="M3557.713,445.594v-2.544l6.361-2.544-6.361-2.544v-2.545l8.906,3.817v2.545Z" transform="translate(-207.891 -32.194)" fill="#fff"/>
    <rect id="Rectángulo_31715" data-name="Rectángulo 31715" width="45.008" height="32.733" transform="translate(3688.811 427.242) rotate(180)" fill="#ffca00"/>
    <path id="Trazado_145511" data-name="Trazado 145511" d="M4690.939,528.01v12.5l17.73-12.5Z" transform="translate(-1047.136 -100.768)" fill="#da5544"/>
    <path id="Trazado_145512" data-name="Trazado 145512" d="M4734.318,431.554q2.5,0,2.5-1.875v-3.125q0-5,5-5v2.5a2.21,2.21,0,0,0-2.5,2.5v3.125q0,2.75-2.5,3.125,2.5.375,2.5,3.125v3.125a2.21,2.21,0,0,0,2.5,2.5v2.5q-5,0-5-5v-3.125q0-1.875-2.5-1.875Z" transform="translate(-1079.261 -21.928)" fill="#fff"/>
    <path id="Trazado_145513" data-name="Trazado 145513" d="M4799.642,434.054q-2.5,0-2.5,1.875v3.125q0,5-5,5v-2.5a2.21,2.21,0,0,0,2.5-2.5v-3.125q0-2.75,2.5-3.125-2.5-.375-2.5-3.125v-3.125a2.21,2.21,0,0,0-2.5-2.5v-2.5q5,0,5,5v3.125q0,1.875,2.5,1.875Z" transform="translate(-1122.085 -21.928)" fill="#fff"/>
    <rect id="Rectángulo_31716" data-name="Rectángulo 31716" width="45.008" height="32.733" transform="translate(3493.555 451.464) rotate(180)" fill="#009be7"/>
    <path id="Trazado_145514" data-name="Trazado 145514" d="M3938.274,621.381v12.5l17.73-12.5Z" transform="translate(-489.727 -169.916)" fill="#050f64"/>
    <path id="Trazado_145515" data-name="Trazado 145515" d="M3981.654,524.925q2.5,0,2.5-1.875v-3.125q0-5,5-5v2.5a2.21,2.21,0,0,0-2.5,2.5v3.125q0,2.75-2.5,3.125,2.5.375,2.5,3.125v3.125a2.21,2.21,0,0,0,2.5,2.5v2.5q-5,0-5-5V529.3q0-1.875-2.5-1.875Z" transform="translate(-521.853 -91.077)" fill="#fff"/>
    <path id="Trazado_145516" data-name="Trazado 145516" d="M4046.978,527.425q-2.5,0-2.5,1.875v3.125q0,5-5,5v-2.5a2.21,2.21,0,0,0,2.5-2.5V529.3q0-2.75,2.5-3.125-2.5-.375-2.5-3.125v-3.125a2.21,2.21,0,0,0-2.5-2.5v-2.5q5,0,5,5v3.125q0,1.875,2.5,1.875Z" transform="translate(-564.676 -91.077)" fill="#fff"/>
  </g>
</svg>
