<svg xmlns="http://www.w3.org/2000/svg" width="504.579" height="319.074" viewBox="0 0 504.579 319.074">
  <g id="Grupo_85100" data-name="Grupo 85100" transform="translate(-1488.012 -1227.386)">
    <path id="Trazado_145817" data-name="Trazado 145817" d="M2013.461,1799.691a2.377,2.377,0,0,1-2.376,2.376l-499.827.13a2.376,2.376,0,1,1,0-4.751l499.827-.13A2.375,2.375,0,0,1,2013.461,1799.691Z" transform="translate(-20.87 -255.737)" fill="#26a69a"/>
    <rect id="Rectángulo_31795" data-name="Rectángulo 31795" width="351.678" height="276.154" rx="12" transform="translate(1554.537 1265.336)" fill="#e4e4e9"/>
    <rect id="Rectángulo_31796" data-name="Rectángulo 31796" width="271.403" height="346.927" rx="2" transform="translate(1903.84 1267.712) rotate(90)" fill="#fff"/>
    <rect id="Rectángulo_31797" data-name="Rectángulo 31797" width="63.424" height="20.635" transform="translate(1578.356 1289.03)" fill="#5799e3"/>
    <rect id="Rectángulo_31798" data-name="Rectángulo 31798" width="63.424" height="20.635" transform="translate(1658.562 1289.03)" fill="#e4e4e9"/>
    <rect id="Rectángulo_31799" data-name="Rectángulo 31799" width="63.424" height="20.635" transform="translate(1738.767 1289.03)" fill="#5799e3"/>
    <rect id="Rectángulo_31800" data-name="Rectángulo 31800" width="63.424" height="20.635" transform="translate(1818.973 1289.03)" fill="#f0c82f"/>
    <rect id="Rectángulo_31801" data-name="Rectángulo 31801" width="2.376" height="228.767" transform="translate(1648.983 1289.03)" fill="#e4e4e9"/>
    <rect id="Rectángulo_31802" data-name="Rectángulo 31802" width="2.376" height="228.767" transform="translate(1729.189 1289.03)" fill="#e4e4e9"/>
    <rect id="Rectángulo_31803" data-name="Rectángulo 31803" width="2.376" height="228.767" transform="translate(1809.394 1289.03)" fill="#e4e4e9"/>
    <rect id="Rectángulo_31804" data-name="Rectángulo 31804" width="2.376" height="304.04" transform="translate(1882.396 1321.208) rotate(90)" fill="#e4e4e9"/>
    <rect id="Rectángulo_31805" data-name="Rectángulo 31805" width="63.424" height="44.169" transform="translate(1578.356 1335.127)" fill="#e4e4e9"/>
    <rect id="Rectángulo_31806" data-name="Rectángulo 31806" width="63.424" height="136.838" transform="translate(1658.562 1335.127)" fill="#5799e3"/>
    <rect id="Rectángulo_31807" data-name="Rectángulo 31807" width="63.424" height="44.169" transform="translate(1738.767 1335.127)" fill="#5799e3"/>
    <rect id="Rectángulo_31808" data-name="Rectángulo 31808" width="63.424" height="104.056" transform="translate(1738.767 1390.84)" fill="#f0c82f"/>
    <rect id="Rectángulo_31809" data-name="Rectángulo 31809" width="63.424" height="44.169" transform="translate(1818.973 1335.127)" fill="#e4e4e9"/>
    <circle id="Elipse_4196" data-name="Elipse 4196" cx="49.311" cy="49.311" r="49.311" transform="translate(1515.367 1297.123) rotate(-45)" fill="#f0c82f"/>
    <circle id="Elipse_4197" data-name="Elipse 4197" cx="40.266" cy="40.266" r="40.266" transform="translate(1528.159 1297.123) rotate(-45)" fill="#fff"/>
    <rect id="Rectángulo_31810" data-name="Rectángulo 31810" width="1.556" height="6.419" transform="translate(1584.325 1259.094)" fill="#26a69a"/>
    <path id="Trazado_145818" data-name="Trazado 145818" d="M1654.2,1296.346l-9.478,25.892-1.263,3.452a2.757,2.757,0,0,0-3.538-1.292l1.263-3.456,9.478-25.892a1.884,1.884,0,1,1,3.538,1.3Z" transform="translate(-55.9 -29.811)" fill="#4dd0e1"/>
    <path id="Trazado_145819" data-name="Trazado 145819" d="M1666.828,1370.253a1.88,1.88,0,0,1-1.558.821,1.86,1.86,0,0,1-1.058-.328L1646,1358.32l-3.038-2.077a2.751,2.751,0,0,0,2.16-2.685,2.785,2.785,0,0,0-.032-.425l3.038,2.073,18.2,12.426A1.885,1.885,0,0,1,1666.828,1370.253Z" transform="translate(-57.265 -56.434)" fill="#f0c82f"/>
    <path id="Trazado_145820" data-name="Trazado 145820" d="M1640.722,1344.324a5.963,5.963,0,0,0-3.538-1.3c-.061,0-.122,0-.183,0a5.993,5.993,0,1,0,5.763,7.646,5.8,5.8,0,0,0,.234-1.649A5.984,5.984,0,0,0,1640.722,1344.324Zm-3.125,7.383a2.519,2.519,0,0,1-.6.069,2.756,2.756,0,1,1,2.458-4,2.64,2.64,0,0,1,.266.821,2.754,2.754,0,0,1-2.127,3.11Z" transform="translate(-51.896 -51.897)" fill="#f0c82f"/>
    <rect id="Rectángulo_31811" data-name="Rectángulo 31811" width="1.556" height="6.419" transform="translate(1547.074 1297.901) rotate(-90)" fill="#26a69a"/>
    <rect id="Rectángulo_31812" data-name="Rectángulo 31812" width="1.556" height="6.419" transform="translate(1585.881 1335.152) rotate(180)" fill="#26a69a"/>
    <rect id="Rectángulo_31813" data-name="Rectángulo 31813" width="1.556" height="6.419" transform="translate(1623.132 1296.345) rotate(90)" fill="#26a69a"/>
    <path id="Trazado_145821" data-name="Trazado 145821" d="M1915.5,1791.666h22.5a3.464,3.464,0,0,0-.633-2.109,3.563,3.563,0,0,0-2.256-1.2,21.635,21.635,0,0,0-2.612-.151,13.825,13.825,0,0,1-6.106-1.769,20.68,20.68,0,0,0-2.932-1.6l-6.134.161a7.027,7.027,0,0,0-1.639,3.307A12.394,12.394,0,0,0,1915.5,1791.666Z" transform="translate(-179.562 -250.176)" fill="#111662"/>
    <path id="Trazado_145822" data-name="Trazado 145822" d="M1915.732,1772.564l1.723,6.631,6.134-.161-.36-7.127Z" transform="translate(-179.679 -244.374)" fill="#e5bbc5"/>
    <path id="Trazado_145823" data-name="Trazado 145823" d="M1886.268,1619.6a55.919,55.919,0,0,0-1.138-12.745c-2.985-14.448-8.354-42.276-8.354-42.28-.832-6-5.816-7.751-11.812-6.919-3.485.484-36.214,7.259-36.186,7.568l7.135,110.909,9.1-.312,9.757-87.37,14.966,27.441.01.033,6.336,60.445,8.745-.6Z" transform="translate(-140.654 -148.135)" fill="#00104e"/>
    <path id="Trazado_145824" data-name="Trazado 145824" d="M1841.048,1791.666h22.5a3.469,3.469,0,0,0-.633-2.11,3.567,3.567,0,0,0-2.256-1.2,21.665,21.665,0,0,0-2.612-.151,13.83,13.83,0,0,1-6.105-1.769,20.648,20.648,0,0,0-2.933-1.6l-6.133.161a7.025,7.025,0,0,0-1.639,3.307A12.356,12.356,0,0,0,1841.048,1791.666Z" transform="translate(-146.146 -250.176)" fill="#111662"/>
    <path id="Trazado_145825" data-name="Trazado 145825" d="M1843.071,1772.49l.732,6.846,6.134-.161.952-6.953Z" transform="translate(-147.069 -244.515)" fill="#e5bbc5"/>
    <path id="Trazado_145826" data-name="Trazado 145826" d="M1946.815,1421.668a2.248,2.248,0,0,0-2.594,1.523,54.482,54.482,0,0,1-3.261,8.955,29.3,29.3,0,0,1-4.939,7.472,17.573,17.573,0,0,1-6.7,4.56,18.4,18.4,0,0,1-3.858.957,22.64,22.64,0,0,1-4.094.161,36.31,36.31,0,0,1-8.508-1.542,64.883,64.883,0,0,1-8.513-3.251c-2.81-1.29-5.587-2.74-8.325-4.311s-5.441-3.242-8.109-5a7.013,7.013,0,0,0-5.668-.731,8.4,8.4,0,0,0-4.887,3.751h0a7.947,7.947,0,0,0-.954,6.108,7.26,7.26,0,0,0,3.806,4.71c3.141,1.483,6.338,2.888,9.6,4.184s6.6,2.482,10.033,3.5a76.7,76.7,0,0,0,10.612,2.39,46.815,46.815,0,0,0,11.305.373,32.227,32.227,0,0,0,5.791-1.093,27.456,27.456,0,0,0,5.556-2.29,25.746,25.746,0,0,0,8.672-7.89,36.014,36.014,0,0,0,4.724-9.9,59.764,59.764,0,0,0,2.165-10.224A2.187,2.187,0,0,0,1946.815,1421.668Z" transform="translate(-161.921 -87.175)" fill="#d27f94"/>
    <path id="Trazado_145827" data-name="Trazado 145827" d="M1900.49,1463.929l-18.527-9.554c-5.6-2.89-8.166-9.468-5.276-15.073h0a11.953,11.953,0,0,1,15.741-5.222l18.528,9.553Z" transform="translate(-161.618 -92.219)" fill="#ffa726"/>
    <path id="Trazado_145828" data-name="Trazado 145828" d="M1853.559,1427.172h0a21.07,21.07,0,0,1,22.936,20.9l.281,57.994c-19.628,9.516-30.707,6.337-48,.649l1.238-54.489A25.84,25.84,0,0,1,1853.559,1427.172Z" transform="translate(-140.654 -89.624)" fill="#ffa726"/>
    <path id="Trazado_145829" data-name="Trazado 145829" d="M1876.564,1447.747a21.5,21.5,0,0,0-21.437-21.381c-.641,0-1.291.027-1.933.085-.315.028-.626.062-.938.1q-.038.2-.083.413c.349-.048.7-.086,1.057-.118q.957-.083,1.9-.084a21.073,21.073,0,0,1,21.038,20.983l.1,21.172h.4Zm-26.659,63.916.027.4c1.143.094,2.288.142,3.441.142a41.976,41.976,0,0,0,7.776-.736l-.136-.377A41.358,41.358,0,0,1,1849.9,1511.663Zm-20.618-59.769-.3,13.215h.4l.3-13.207a25.776,25.776,0,0,1,7.327-17.351c-.1-.1-.193-.187-.285-.281A26.187,26.187,0,0,0,1829.286,1451.894Zm-.56,42.291-.4-.055-.285,12.549.279.092c2.134.7,4.161,1.36,6.11,1.955,0-.138,0-.273.006-.411-1.923-.592-3.912-1.239-5.99-1.923Zm48.017-9.1h-.4l.1,20.66q-1.993.967-3.874,1.759l.1.393q1.936-.817,3.95-1.793l.225-.109Z" transform="translate(-140.325 -89.3)" fill="#5799e3"/>
    <path id="Trazado_145830" data-name="Trazado 145830" d="M1876.438,1415l-.445,14.987a8.313,8.313,0,0,1-9.765-.29l.445-14.987Z" transform="translate(-157.461 -84.07)" fill="#e5bbc5"/>
    <path id="Trazado_145831" data-name="Trazado 145831" d="M1876.7,1415l-.2,6.779a7.887,7.887,0,0,1-2.2.436q-.37.019-.738.008a8.788,8.788,0,0,1-6.744-3.491l.12-4.022Z" transform="translate(-157.726 -84.07)" fill="#d27f94"/>
    <path id="Trazado_145832" data-name="Trazado 145832" d="M1879.038,1391.613l-.6,8.786a6.961,6.961,0,0,1-6.572,6.48h0a7.742,7.742,0,0,1-7.494-4.535,59.072,59.072,0,0,1-2.362-6.518,10.6,10.6,0,0,1,2.572-10.679c2.39-2.355,5.324-3.021,8.845-1.874A8.184,8.184,0,0,1,1879.038,1391.613Z" transform="translate(-155.351 -69.714)" fill="#e5bbc5"/>
    <path id="Trazado_145833" data-name="Trazado 145833" d="M1890.071,1389.208s1.71,2.911,1.534,8.307c0,0,1.1-5.427.06-9.676Z" transform="translate(-168.162 -72.009)" fill="#111662"/>
    <path id="Trazado_145834" data-name="Trazado 145834" d="M1854.929,1392.133s-4.876-6.984-.043-12.54c5.209-5.989,8.742-5.445,12.547-4.5,4.813,1.193,7.426,2.8,9.247,2.364.974-.233,1.819-1.081,1.99-.526a7.042,7.042,0,0,1-2.2,6.363c-2.7,2.521-6.308,2.234-9.884.48s-5.238-1.486-6.667.729c-1.516,2.351.726,6.516.726,6.516l-1.077.42S1855.406,1389.133,1854.929,1392.133Z" transform="translate(-151.412 -66.026)" fill="#111662"/>
    <path id="Trazado_145835" data-name="Trazado 145835" d="M1863.268,1402.526a3.685,3.685,0,1,1-3.562-3.365A3.476,3.476,0,0,1,1863.268,1402.526Z" transform="translate(-152.849 -77.09)" fill="#e5bbc5"/>
    <path id="Trazado_145836" data-name="Trazado 145836" d="M1802.316,1522.264a2,2,0,0,1-2.493-1.536,47.567,47.567,0,0,1-1.01-10.06,75.343,75.343,0,0,1,.7-9.979c.123-.821.219-1.653.366-2.47l.431-2.458.5-2.442c.163-.817.375-1.617.561-2.428l.289-1.213.323-1.2c.219-.8.428-1.605.656-2.4.487-1.582.937-3.187,1.482-4.749a180.194,180.194,0,0,1,16.907-35.8,7.281,7.281,0,0,1,.942-1.209,6.837,6.837,0,0,1,1.154-.933,7.212,7.212,0,0,1,2.692-1.05,7.327,7.327,0,0,1,5.628,1.374h0a7.79,7.79,0,0,1,3.051,4.937,6.975,6.975,0,0,1-.081,2.786,6.811,6.811,0,0,1-.466,1.321,6.422,6.422,0,0,1-.739,1.235,168.245,168.245,0,0,0-20.249,30.934c-.706,1.373-1.316,2.777-1.97,4.174-.311.7-.6,1.411-.907,2.118l-.45,1.063-.418,1.072c-.272.716-.573,1.428-.824,2.151l-.771,2.169-.7,2.188c-.24.73-.428,1.468-.647,2.2a69.235,69.235,0,0,0-1.9,8.963,42.891,42.891,0,0,0-.356,9.026,2.233,2.233,0,0,1-1.7,2.216Z" transform="translate(-127.207 -96.419)" fill="#e4bac4"/>
    <path id="Trazado_145837" data-name="Trazado 145837" d="M1813.841,1464.038l9.948-16.8c3.01-5.081,9.3-7.114,14.381-4.1h0a11.193,11.193,0,0,1,4.018,15l-9.948,16.8Z" transform="translate(-133.951 -96.195)" fill="#ffa726"/>
    <path id="Trazado_145838" data-name="Trazado 145838" d="M1838.187,1463.37l-5.309,8.961.488.29,5.322-8.986Zm-8.775-22.215a11.62,11.62,0,0,0-6.229,4.551l.416.39a10.646,10.646,0,0,1,11.12-4.56l.206-.531A10.477,10.477,0,0,0,1829.412,1441.155Zm13.983,9.328a12.1,12.1,0,0,0-3.394-6.609l-.362.434a11.3,11.3,0,0,1,2.69,11.747l.481.32A11.32,11.32,0,0,0,1843.4,1450.484Zm-23.256,1.394-.51-.249-7.192,12.147,6.535,3.872.2-.538-5.958-3.53Zm10.4,21.964-7.067-4.183-.12.584,6.886,4.08C1830.338,1474.167,1830.441,1474.007,1830.542,1473.842Z" transform="translate(-133.322 -95.736)" fill="#5799e3"/>
    <path id="Trazado_145839" data-name="Trazado 145839" d="M2174.034,1789.7a2.69,2.69,0,0,1,1.7-.905,16.385,16.385,0,0,1,1.97-.114,10.421,10.421,0,0,0,4.6-1.333,15.594,15.594,0,0,1,2.211-1.206l4.625.121a5.3,5.3,0,0,1,1.235,2.494,9.345,9.345,0,0,1,.147,2.534v.964H2173.56v-.964h0A2.611,2.611,0,0,1,2174.034,1789.7Z" transform="translate(-295.387 -250.76)" fill="#111662"/>
    <path id="Trazado_145840" data-name="Trazado 145840" d="M2198.394,1777.04l-.581,5.136-4.624-.121-.311-4.75Z" transform="translate(-304.058 -246.677)" fill="#e5bbc5"/>
    <path id="Trazado_145841" data-name="Trazado 145841" d="M2091.854,1787.34a2.688,2.688,0,0,1,1.792-.708,16.2,16.2,0,0,1,1.97.108,10.428,10.428,0,0,0,4.724-.808,15.53,15.53,0,0,1,2.333-.95l4.582.64a5.3,5.3,0,0,1,.947,2.617,9.341,9.341,0,0,1-.139,2.535l-.109.958-16.856-1.907.108-.958h0A2.611,2.611,0,0,1,2091.854,1787.34Z" transform="translate(-258.38 -250.242)" fill="#111662"/>
    <path id="Trazado_145842" data-name="Trazado 145842" d="M2165.668,1594.886c.973-17.895.8-43.247-4.042-57.527-.043-.259-37.5,3.1-37.5,3.109l-8.743,35.964a157.965,157.965,0,0,0-4.47,38.663l.453,53.969,6.322.41L2129.392,1598a277.606,277.606,0,0,0,12.643-27.772l13.629,99.523,6.327-.3s3.677-74.507,3.675-74.564Z" transform="translate(-267.269 -139.105)" fill="#111662"/>
    <path id="Trazado_145843" data-name="Trazado 145843" d="M2117.832,1776.714l-1.155,5.038-4.581-.64.225-4.755Z" transform="translate(-267.804 -246.371)" fill="#e5bbc5"/>
    <path id="Trazado_145844" data-name="Trazado 145844" d="M2023.848,1365.731a2.315,2.315,0,0,1,3.149.045,208.122,208.122,0,0,0,15.529,13.929,155.654,155.654,0,0,0,16.8,11.854,130.721,130.721,0,0,0,18.048,9.125q4.652,1.889,9.41,3.383c.8.24,1.583.5,2.382.724l2.394.671c1.606.409,3.2.829,4.821,1.174a7.122,7.122,0,0,1,1.439.537,6.734,6.734,0,0,1,1.27.8,8.2,8.2,0,0,1,1.953,2.3,8.764,8.764,0,0,1,.911,6.3,7.867,7.867,0,0,1-3.8,5.138,7.574,7.574,0,0,1-3.1.962,8.38,8.38,0,0,1-1.686-.016,8.039,8.039,0,0,1-1.7-.405c-1.763-.643-3.5-1.361-5.231-2.071l-2.575-1.123c-.857-.373-1.7-.785-2.546-1.176q-5.065-2.4-9.894-5.188a142.842,142.842,0,0,1-18.163-12.57,164.724,164.724,0,0,1-15.9-14.858,214.1,214.1,0,0,1-13.874-16.392A2.3,2.3,0,0,1,2023.848,1365.731Z" transform="translate(-227.831 -61.82)" fill="#d27f94"/>
    <path id="Trazado_145845" data-name="Trazado 145845" d="M2110.795,1442.813l17.531,6.218c5.3,1.881,11.146-.472,13.027-5.774h0a10.666,10.666,0,0,0-6.216-13.429l-17.532-6.218Z" transform="translate(-267.22 -88.062)" fill="#4dd0e1"/>
    <path id="Trazado_145846" data-name="Trazado 145846" d="M2152.717,1427.68h0a23.149,23.149,0,0,0-23.167,26.352l2.839,37.219c15.709,5.7,27.4,2.581,37.5-3.109l1.7-39.606A19.152,19.152,0,0,0,2152.717,1427.68Z" transform="translate(-275.535 -89.888)" fill="#4dd0e1"/>
    <path id="Trazado_145847" data-name="Trazado 145847" d="M2168.313,1435.151l-.282.312a19.051,19.051,0,0,1,3.161,7.427l.4-.037A19.631,19.631,0,0,0,2168.313,1435.151Zm-15.658,58.534v.415a40.394,40.394,0,0,0,10.314-2.592l-.13-.39A40.518,40.518,0,0,1,2152.654,1493.685Zm8.112-64.853a19.594,19.594,0,0,0-8.189-1.9h-.251a23.56,23.56,0,0,0-22.982,18.4l.394.082a23.162,23.162,0,0,1,22.834-18.07,19.075,19.075,0,0,1,8.115,1.892Zm-28.879,57.382c-.131.072-.265.142-.4.211l.365,4.788.251.09a51.308,51.308,0,0,0,10.378,2.631v-.409a50.857,50.857,0,0,1-10.238-2.608Zm-2.882-32.385,1.431,18.764h.413l-1.432-18.764Z" transform="translate(-275.393 -89.554)" fill="#5799e3"/>
    <path id="Trazado_145848" data-name="Trazado 145848" d="M2172.226,1380.794s9.783,2.277,7.346,13.15c-1.626,7.261-6.889,10.942-14.5,12.185Z" transform="translate(-291.577 -68.847)" fill="#111662"/>
    <path id="Trazado_145849" data-name="Trazado 145849" d="M2159.527,1413.581l.747,11.218a7.875,7.875,0,0,0,9.241-.487l-.748-11.218Z" transform="translate(-289.09 -83.343)" fill="#e5bbc5"/>
    <path id="Trazado_145850" data-name="Trazado 145850" d="M2159.648,1415.911l.186,3.518a10.1,10.1,0,0,0,4.768,1.167c.1,0,.192,0,.289-.009a6.156,6.156,0,0,0,4.169-1.918l-.171-3.244Z" transform="translate(-289.144 -84.389)" fill="#d27f94"/>
    <path id="Trazado_145851" data-name="Trazado 145851" d="M2151.3,1387.21l.632,8.249.142,1.831a8.8,8.8,0,0,0,8.81,8.044,5,5,0,0,0,1.374-.2c.172-.052.345-.11.515-.181.035-.013.071-.029.106-.045a4.79,4.79,0,0,0,1.711-1.257,14.826,14.826,0,0,0,2.283-3.854,25.41,25.41,0,0,0,1.3-3.514,11.386,11.386,0,0,0,.389-4.347l-.624-7.235-14.1-1.064Z" transform="translate(-285.398 -70.122)" fill="#e5bbc5"/>
    <path id="Trazado_145852" data-name="Trazado 145852" d="M2165.277,1380.664s-16.131,1-12.953,15.159c0,0-5.075-10.257.09-17.128,5.69-7.567,13.28-5.081,15.976-1.467s4.719,9.615-2.794,13.906C2165.6,1391.134,2168.123,1385.767,2165.277,1380.664Z" transform="translate(-284.857 -65.691)" fill="#111662"/>
    <circle id="Elipse_4198" data-name="Elipse 4198" cx="3.367" cy="3.367" r="3.367" transform="translate(1880.076 1320.071)" fill="#e5bbc5"/>
    <path id="Trazado_145853" data-name="Trazado 145853" d="M2212.317,1524.142a2.313,2.313,0,0,1-2.614-1.755,208.007,208.007,0,0,0-5.415-20.146,155.63,155.63,0,0,0-7.614-19.1,130.716,130.716,0,0,0-10.147-17.494q-2.869-4.121-6.04-7.969c-.536-.635-1.052-1.283-1.6-1.906l-1.639-1.869c-1.123-1.219-2.233-2.442-3.4-3.613a7.145,7.145,0,0,1-.913-1.235,6.737,6.737,0,0,1-.63-1.361,8.185,8.185,0,0,1-.382-2.991,8.766,8.766,0,0,1,2.674-5.778,7.87,7.87,0,0,1,5.99-2.231,7.569,7.569,0,0,1,3.122.884,8.373,8.373,0,0,1,1.4.933,8.025,8.025,0,0,1,1.2,1.265c1.127,1.5,2.19,3.05,3.254,4.589l1.544,2.346c.515.78,1,1.585,1.493,2.375q2.935,4.776,5.46,9.746a142.827,142.827,0,0,1,8.364,20.443,164.8,164.8,0,0,1,5.216,21.126,214.009,214.009,0,0,1,2.685,21.307A2.3,2.3,0,0,1,2212.317,1524.142Z" transform="translate(-294.647 -93.926)" fill="#e5bbc5"/>
    <path id="Trazado_145854" data-name="Trazado 145854" d="M2199.5,1454.911l-11.3-14.776c-3.418-4.469-9.6-5.686-14.068-2.268h0a10.666,10.666,0,0,0-2.117,14.646l11.3,14.776Z" transform="translate(-293.788 -93.579)" fill="#4dd0e1"/>
    <path id="Trazado_145855" data-name="Trazado 145855" d="M2176.544,1435.63a9.969,9.969,0,0,0-3,1.578,11.161,11.161,0,0,0-4.172,7.193,11.541,11.541,0,0,0-.123,1.4l.415-.039a10.777,10.777,0,0,1,4.131-8.232,9.688,9.688,0,0,1,11.082-.436l.14-.391A10.3,10.3,0,0,0,2176.544,1435.63Zm11.646,3.922c-.038-.05-.077-.1-.117-.148l-.137.491,3.4,4.442.3-.283Zm4.7,6.15-.224.383,3.181,4.162.282-.309Zm4.854,6.348-.282.309,1.7,2.219-12.414,9.494.223.349,12.769-9.766Zm-24.859,2.387,8.229,10.759.35-.22-8.3-10.846Z" transform="translate(-293.454 -93.246)" fill="#5799e3"/>
    <path id="Trazado_145856" data-name="Trazado 145856" d="M1646.134,1646.767c-1.449-3.673-2.439-7.663-5.009-10.661a5.135,5.135,0,0,0-2.254-1.672,2.4,2.4,0,0,0-2.59.655,3.73,3.73,0,0,0-.454,2.559q.248,3.853.5,7.707a33.459,33.459,0,0,0,.959,7.044c1.075,3.78,3.763,7.312,7.537,8.409,2.441.709,9.387-.443,8.846-4.229-.225-1.577-2.759-2.59-3.769-3.6A18.086,18.086,0,0,1,1646.134,1646.767Z" transform="translate(-54.047 -182.621)" fill="#1565c0"/>
    <path id="Trazado_145857" data-name="Trazado 145857" d="M1640.316,1668c.382-2.007,1.071-4.1,2.678-5.361,2.666-2.092,6.606-1.064,9.8-2.2,4.745-1.691,6.645-7.585,10.993-10.132a5.809,5.809,0,0,1,3.491-.9,3.4,3.4,0,0,1,2.837,2.02c.59,1.566-.324,3.258-1.185,4.693s-1.722,3.177-1.037,4.7a4.263,4.263,0,0,0,2.646,2.049,24.909,24.909,0,0,1,3.266,1.079c2.794,1.413,3.91,5.063,3.168,8.1s-2.95,5.523-5.392,7.482a30.528,30.528,0,0,1-17.562,6.527c-2.908.139-6.176.252-8.94-.778-3.731-1.388-4.485-4.691-4.981-8.264A27.873,27.873,0,0,1,1640.316,1668Z" transform="translate(-55.857 -189.388)" fill="#039be5"/>
    <path id="Trazado_145858" data-name="Trazado 145858" d="M1675.278,1665.27a32.241,32.241,0,0,1-3.578,7.642c-.987,1.7-2.576,2.329-4.487,2.8a16.723,16.723,0,0,1-2.46.4c-.17.016-.339.029-.508.042-.963.066-1.932.083-2.9.1-1.906.033-3.87-.036-5.818-.16-.15-.008-.3-.019-.45-.029-1.1-.075-2.183-.165-3.252-.265a7.029,7.029,0,0,1-5.405-4.294,17.119,17.119,0,0,1-1.163-7.083,66.035,66.035,0,0,1,12.472-38.669,11.811,11.811,0,0,1,.956-1.17,6.624,6.624,0,0,1,.985-.872,3.028,3.028,0,0,1,2.329-.623c1.758.326,2.582,2.338,2.973,4.083a37.283,37.283,0,0,1-7.7,31.586,8.342,8.342,0,0,0-1.836,2.816,2.488,2.488,0,0,0,1,2.948c1.425.7,2.981-.687,3.81-2.037,1.014-1.652,1.749-3.465,2.8-5.093a8.067,8.067,0,0,1,4.373-3.631,5.708,5.708,0,0,1,3.749.315c.139.059.277.122.412.192a7.272,7.272,0,0,1,2.979,2.795A10.874,10.874,0,0,1,1675.278,1665.27Z" transform="translate(-58.294 -177.564)" fill="#4dd0e1"/>
    <path id="Trazado_145859" data-name="Trazado 145859" d="M1687.038,1679.526a62.8,62.8,0,0,1-2.781,12.375c-.07.213-.142.426-.215.637a62.857,62.857,0,0,1-3.831,8.831c-.17.016-.34.029-.508.042a62.491,62.491,0,0,0,4.1-9.5c.072-.215.144-.429.214-.644a62.361,62.361,0,0,0,2.612-11.935C1686.765,1679.393,1686.9,1679.456,1687.038,1679.526Z" transform="translate(-73.752 -202.828)" fill="#3965be"/>
    <path id="Trazado_145860" data-name="Trazado 145860" d="M1685.91,1697.68c-.071.213-.143.426-.216.637l-.242-.626-2.066-5.325.4-.155,1.877,4.836Z" transform="translate(-75.405 -208.607)" fill="#3965be"/>
    <path id="Trazado_145861" data-name="Trazado 145861" d="M1661.012,1671.531c.255,1.714.582,3.418,1,5.1-.149-.008-.3-.019-.45-.029a53.867,53.867,0,0,1-1.028-5.33c-.043-.3-.085-.6-.122-.9a92.945,92.945,0,0,1-.671-10.172c0-.239-.009-.477-.011-.714-.019-1.336-.021-2.662-.019-3.978,0-1.71.016-3.448.06-5.2.006-.227.012-.455.019-.684v0a86.089,86.089,0,0,1,.758-9.571h0c.03-.227.064-.453.1-.68.214-1.4.477-2.793.8-4.179a40.688,40.688,0,0,1,3.725-10.06,6.676,6.676,0,0,1,.984-.873,39.567,39.567,0,0,0-4.289,11.031q-.418,1.8-.709,3.61c-.037.228-.073.457-.106.686a86.131,86.131,0,0,0-.845,10.584h0c-.006.23-.01.457-.016.687v0c-.033,1.568-.045,3.124-.047,4.656q0,1.688.012,3.4c0,.24.005.477.01.716v0a91.623,91.623,0,0,0,.782,11.487C1660.97,1671.248,1660.99,1671.389,1661.012,1671.531Z" transform="translate(-64.781 -178.105)" fill="#3965be"/>
    <path id="Trazado_145862" data-name="Trazado 145862" d="M1668.647,1640.185l-6.911,6.4-.5.466c.03-.227.065-.453.1-.68l.51-.471,6.511-6.029Z" transform="translate(-65.463 -185.117)" fill="#3965be"/>
    <path id="Trazado_145863" data-name="Trazado 145863" d="M1656.763,1666.571h0c-.006.23-.01.457-.016.687l-.418-.548-4.3-5.626.342-.262,3.972,5.2v0Z" transform="translate(-61.334 -194.521)" fill="#3965be"/>
    <path id="Trazado_145864" data-name="Trazado 145864" d="M1665,1676.275l-4.82,6.577v0l-.422.575c0-.239-.009-.477-.011-.714l.424-.578,4.483-6.115Z" transform="translate(-64.797 -201.341)" fill="#3965be"/>
    <path id="Trazado_145865" data-name="Trazado 145865" d="M1658.779,1705.592l-.187.135-.286-.4-3.566-4.937.349-.252,3.1,4.284.534.74C1658.738,1705.309,1658.758,1705.449,1658.779,1705.592Z" transform="translate(-62.549 -212.166)" fill="#3965be"/>
    <path id="Trazado_145866" data-name="Trazado 145866" d="M1675.375,1709.9v39.93a8.211,8.211,0,0,1-8.208,8.208h-23.072a8.207,8.207,0,0,1-8.206-8.208V1709.9Z" transform="translate(-54.089 -216.544)" fill="#f0c82f"/>
    <path id="Trazado_145867" data-name="Trazado 145867" d="M1672.253,1775.125a8.167,8.167,0,0,1-5.087,1.767h-23.072a8.207,8.207,0,0,1-8.206-8.208v-16.768C1640.227,1759.232,1650.209,1770.225,1672.253,1775.125Z" transform="translate(-54.089 -235.402)" fill="#ffa726"/>
  </g>
</svg>
