<svg xmlns="http://www.w3.org/2000/svg" width="79.995" height="80" viewBox="0 0 79.995 80">
  <g id="solucion" transform="translate(-2 -1.996)">
    <path id="Trazado_145896" data-name="Trazado 145896" d="M33.5,24.332H48.332v-8h4a4,4,0,1,0,0-8h-4V3H31a4,4,0,0,0-4,4V22.763l1.533-.74a3.658,3.658,0,0,1,4.97,2.309Z" transform="translate(8.331 0.335)" fill="#4dd0e1"/>
    <path id="Trazado_145897" data-name="Trazado 145897" d="M61.665,43a4,4,0,1,1-8,0V39H47v5.333H43a4,4,0,0,0,0,8h4v8H64.331a4,4,0,0,0,4-4V39H61.665Z" transform="translate(12.33 12.331)" fill="#ffa726"/>
    <path id="Trazado_145898" data-name="Trazado 145898" d="M62.332,23H45v5.333h4a4,4,0,0,1,0,8H45v8h6.666v4a4,4,0,0,0,8,0v-4h6.666V27A4,4,0,0,0,62.332,23Z" transform="translate(14.329 6.999)" fill="#039be5"/>
    <path id="Trazado_145899" data-name="Trazado 145899" d="M46.332,52.332a4,4,0,0,1,0-8h4V39H29V56.332a4,4,0,0,0,4,4H50.332v-8Z" transform="translate(8.998 12.331)" fill="#1565c0"/>
    <path id="Trazado_145907" data-name="Trazado 145907" d="M9.333,0A9.333,9.333,0,1,1,0,9.333,9.333,9.333,0,0,1,9.333,0Z" transform="translate(11.333 3.335)" fill="#ffca28"/>
    <path id="Trazado_145900" data-name="Trazado 145900" d="M41.5,19.667a3.658,3.658,0,0,0-4.97-2.309L35,18.1l-7.3,3.526a9.317,9.317,0,0,0-6.229-4.452A9.477,9.477,0,0,0,10.486,24.08L5.175,40.814a18.7,18.7,0,0,0,.8,13.4,18.707,18.707,0,0,1-.3,16.1L3,75.663H17.666a5.325,5.325,0,0,0-4.081-5.17l1.293-2.586A18.7,18.7,0,0,0,16.551,56.2l-.989-5.44a2.624,2.624,0,1,1,5.162-.933l1.811,9.961A28.681,28.681,0,0,1,23,64.923V75.663H37.664a5.308,5.308,0,0,0-.036-.621,4.962,4.962,0,0,0-7.43-3.493l-1.179.667,1.42-7.1A28.7,28.7,0,0,0,31,59.485V47.665L29.366,28.892l10.1-4.825a3.625,3.625,0,0,0,2.033-4.4Z" transform="translate(0.333 4.999)" fill="#ffca28"/>
    <path id="Trazado_145901" data-name="Trazado 145901" d="M68,22H50.665a1.333,1.333,0,0,0-1.333,1.333v5.333A1.333,1.333,0,0,0,50.665,30h4a2.666,2.666,0,0,1,0,5.333h-4a1.333,1.333,0,0,0-1.333,1.333v6.666h-20A1.333,1.333,0,0,0,28,44.665V62a5.333,5.333,0,0,0,5.333,5.333H68A5.333,5.333,0,0,0,73.33,62V27.333A5.333,5.333,0,0,0,68,22ZM54.665,38a5.333,5.333,0,0,0,0-10.666H52V24.666H68a2.666,2.666,0,0,1,2.666,2.666v16H65.331A1.333,1.333,0,0,0,64,44.665v4a2.666,2.666,0,1,1-5.333,0v-4a1.333,1.333,0,0,0-1.333-1.333H52V38ZM49.332,64.664h-16A2.666,2.666,0,0,1,30.666,62V46H49.332v2.666H46.665a5.333,5.333,0,0,0,0,10.666h2.666ZM70.664,62A2.666,2.666,0,0,1,68,64.664H52V58a1.333,1.333,0,0,0-1.333-1.333h-4a2.666,2.666,0,0,1,0-5.333h4A1.333,1.333,0,0,0,52,50V46h4v2.666a5.333,5.333,0,0,0,10.666,0V46h4Z" transform="translate(8.664 6.666)"/>
    <path id="Trazado_145902" data-name="Trazado 145902" d="M3.333,82H18a1.333,1.333,0,0,0,1.333-1.333,6.629,6.629,0,0,0-3.565-5.889L16.4,73.5a20.152,20.152,0,0,0,1.791-12.543l-.989-5.44a1.291,1.291,0,0,1,2.541-.463l1.811,9.962a27.48,27.48,0,0,1,.441,4.9V80.662A1.333,1.333,0,0,0,23.332,82H38a1.333,1.333,0,0,0,1.333-1.333,6.682,6.682,0,0,0-.045-.775A5.9,5.9,0,0,0,36,75.247a6.461,6.461,0,0,0-4.808-.427l.888-4.437a30.161,30.161,0,0,0,.584-5.9V52.55L31.107,34.7l9.251-4.414A4.982,4.982,0,0,0,43.309,26H56.663A1.333,1.333,0,0,0,58,24.666V18h2.666a5.333,5.333,0,0,0,0-10.666H58v-4A1.333,1.333,0,0,0,56.663,2H39.331A5.333,5.333,0,0,0,34,7.334V22.267l-5.516,2.666A10.866,10.866,0,0,0,25.448,22.2,10.666,10.666,0,1,0,15.2,21.816a10.691,10.691,0,0,0-5.648,6.869L4.237,45.41a20,20,0,0,0,.857,14.35,17.3,17.3,0,0,1-.277,14.954L2.14,80.066A1.333,1.333,0,0,0,3.333,82ZM39.268,27.85l-.04.017L21.263,36.439a2.282,2.282,0,0,1-1.975-4.114L37.4,23.579a2.33,2.33,0,0,1,3.266,2.136,2.333,2.333,0,0,1-1.4,2.136Zm.063-23.182h16v4A1.333,1.333,0,0,0,56.663,10h4a2.666,2.666,0,1,1,0,5.333h-4a1.333,1.333,0,0,0-1.333,1.333v6.666h-12.6a4.982,4.982,0,0,0-6.065-2.317V7.334a2.666,2.666,0,0,1,2.666-2.666Zm-26.665,8a8,8,0,1,1,8,8A8,8,0,0,1,12.666,12.667ZM7.2,75.905a19.956,19.956,0,0,0,.32-17.249,17.332,17.332,0,0,1-.744-12.439l5.333-16.8a8.191,8.191,0,0,1,9.441-5.936,7.866,7.866,0,0,1,4.462,2.634l-7.879,3.806a4.948,4.948,0,0,0,4.28,8.922l6.133-2.924L30,52.664V64.484a27.6,27.6,0,0,1-.533,5.376l-1.421,7.1a1.333,1.333,0,0,0,1.969,1.42l1.179-.675a3.794,3.794,0,0,1,3.6-.079,3.349,3.349,0,0,1,1.621,1.7H24.665V69.922a30.089,30.089,0,0,0-.485-5.379L22.369,54.58A3.957,3.957,0,1,0,14.583,56l.991,5.44a17.475,17.475,0,0,1-1.555,10.873L12.725,74.9a1.333,1.333,0,0,0,.875,1.9,3.985,3.985,0,0,1,2.837,2.533H5.491Z"/>
    <path id="Trazado_145903" data-name="Trazado 145903" d="M34.569,33.447l-4.39-4.39-1.885,1.885,9.333,9.333a1.333,1.333,0,0,0,1.885,0l9.333-9.333-1.885-1.885-4.39,4.39V26H39.9V36.114l-1.333,1.333-1.333-1.333V31.333H34.569Z" transform="translate(8.762 7.999)"/>
    <path id="Trazado_145904" data-name="Trazado 145904" d="M33,26h2.666v2.666H33Z" transform="translate(10.33 7.999)"/>
    <path id="Trazado_145905" data-name="Trazado 145905" d="M33,22h2.666v2.666H33Z" transform="translate(10.33 6.666)"/>
    <path id="Trazado_145906" data-name="Trazado 145906" d="M37,22h2.666v2.666H37Z" transform="translate(11.663 6.666)"/>
  </g>
</svg>
