<svg xmlns="http://www.w3.org/2000/svg" width="80" height="57.656" viewBox="0 0 80 57.656">
  <g id="codigo" transform="translate(0 -71.5)">
    <path id="Trazado_145969" data-name="Trazado 145969" d="M85.156,90.25H7.5V83.688A4.687,4.687,0,0,1,12.188,79H80.469a4.687,4.687,0,0,1,4.688,4.688Z" transform="translate(-6.328 -6.328)" fill="#039be5"/>
    <path id="Trazado_145971" data-name="Trazado 145971" d="M80.469,195.063H12.188A4.687,4.687,0,0,1,7.5,190.375V151H85.156v39.375A4.687,4.687,0,0,1,80.469,195.063Z" transform="translate(-6.328 -67.078)" fill="#4dd0e1"/>
    <circle id="Elipse_4200" data-name="Elipse 4200" cx="2.344" cy="2.344" r="2.344" transform="translate(6.329 76.011)" fill="#29cef6"/>
    <circle id="Elipse_4201" data-name="Elipse 4201" cx="2.344" cy="2.344" r="2.344" transform="translate(15.417 76.011)" fill="#f3f3f3"/>
    <circle id="Elipse_4202" data-name="Elipse 4202" cx="2.344" cy="2.344" r="2.344" transform="translate(24.504 76.011)" fill="#ffca28"/>
    <path id="Trazado_145973" data-name="Trazado 145973" d="M330.188,209.555h-7.344a2.344,2.344,0,0,1,0-4.687h7.344a2.344,2.344,0,0,1,0,4.688Z" transform="translate(-270.422 -112.529)" fill="#1565c0"/>
    <path id="Trazado_145974" data-name="Trazado 145974" d="M342.219,269.556H322.844a2.344,2.344,0,1,1,0-4.687h19.375a2.344,2.344,0,1,1,0,4.688Z" transform="translate(-270.422 -163.154)" fill="#ffca28"/>
    <path id="Trazado_145975" data-name="Trazado 145975" d="M336.463,329.556h-13.62a2.344,2.344,0,0,1,0-4.687h13.62a2.344,2.344,0,0,1,0,4.688Z" transform="translate(-270.422 -213.779)" fill="#ffa726"/>
    <g id="Grupo_85107" data-name="Grupo 85107" transform="translate(0 71.5)">
      <path id="Trazado_145976" data-name="Trazado 145976" d="M74.141,71.5h-4.1a1.172,1.172,0,0,0,0,2.344h4.1a3.52,3.52,0,0,1,3.516,3.516V82.75H2.344V77.359a3.52,3.52,0,0,1,3.516-3.516H64.892a1.172,1.172,0,0,0,0-2.344H5.859A5.866,5.866,0,0,0,0,77.359V90.278a1.172,1.172,0,1,0,2.344,0V85.094H77.656v30.213a1.172,1.172,0,1,0,2.344,0V77.359A5.866,5.866,0,0,0,74.141,71.5Z" transform="translate(0 -71.5)"/>
      <path id="Trazado_145977" data-name="Trazado 145977" d="M78.828,241.309a1.172,1.172,0,0,0-1.172,1.172v3.048a3.52,3.52,0,0,1-3.516,3.516H5.859a3.52,3.52,0,0,1-3.516-3.516v-27.99a1.172,1.172,0,0,0-2.344,0v27.99a5.866,5.866,0,0,0,5.859,5.859H74.141A5.866,5.866,0,0,0,80,245.528v-3.048A1.172,1.172,0,0,0,78.828,241.309Z" transform="translate(0 -193.732)"/>
      <path id="Trazado_145978" data-name="Trazado 145978" d="M59.652,232.6a1.172,1.172,0,0,0-1.657,0l-7.042,7.042a1.172,1.172,0,0,0,0,1.657l6.949,6.949a1.172,1.172,0,0,0,1.657-1.657l-6.12-6.12,6.214-6.214A1.172,1.172,0,0,0,59.652,232.6Z" transform="translate(-42.701 -207.142)"/>
      <path id="Trazado_145979" data-name="Trazado 145979" d="M206.988,248.252a1.172,1.172,0,0,0,1.657,0l6.949-6.949a1.172,1.172,0,0,0,0-1.657l-7.042-7.042a1.172,1.172,0,0,0-1.657,1.657l6.214,6.214-6.12,6.12A1.172,1.172,0,0,0,206.988,248.252Z" transform="translate(-174.278 -207.141)"/>
      <path id="Trazado_145980" data-name="Trazado 145980" d="M125.662,231.112a1.172,1.172,0,0,0,1.1-.756l8.327-21.937a1.172,1.172,0,1,0-2.191-.832l-8.327,21.938a1.172,1.172,0,0,0,1.1,1.588Z" transform="translate(-105.038 -185.685)"/>
      <path id="Trazado_145981" data-name="Trazado 145981" d="M33.006,96.387a3.516,3.516,0,1,0,3.516-3.516A3.52,3.52,0,0,0,33.006,96.387Zm4.688,0a1.172,1.172,0,1,1-1.172-1.172A1.173,1.173,0,0,1,37.693,96.387Z" transform="translate(-27.849 -89.532)"/>
      <path id="Trazado_145982" data-name="Trazado 145982" d="M91.166,96.387a3.516,3.516,0,1,0,3.516-3.516A3.52,3.52,0,0,0,91.166,96.387Zm4.688,0a1.172,1.172,0,1,1-1.172-1.172A1.173,1.173,0,0,1,95.854,96.387Z" transform="translate(-76.921 -89.532)"/>
      <path id="Trazado_145983" data-name="Trazado 145983" d="M149.325,96.387a3.516,3.516,0,1,0,3.516-3.516A3.52,3.52,0,0,0,149.325,96.387Zm4.688,0a1.172,1.172,0,1,1-1.172-1.172A1.173,1.173,0,0,1,154.012,96.387Z" transform="translate(-125.993 -89.532)"/>
      <path id="Trazado_145984" data-name="Trazado 145984" d="M316.516,204.4h7.344a3.516,3.516,0,0,0,0-7.031h-7.344a3.516,3.516,0,0,0,0,7.031Zm0-4.687h7.344a1.172,1.172,0,0,1,0,2.344h-7.344a1.172,1.172,0,0,1,0-2.344Z" transform="translate(-264.094 -177.701)"/>
      <path id="Trazado_145985" data-name="Trazado 145985" d="M316.516,264.4h19.375a3.516,3.516,0,0,0,0-7.031H316.516a3.516,3.516,0,0,0,0,7.031Zm0-4.687h19.375a1.172,1.172,0,0,1,0,2.344H316.516a1.172,1.172,0,0,1,0-2.344Z" transform="translate(-264.094 -228.326)"/>
      <path id="Trazado_145986" data-name="Trazado 145986" d="M316.516,324.4h13.62a3.516,3.516,0,0,0,0-7.031h-13.62a3.516,3.516,0,0,0,0,7.031Zm0-4.687h13.62a1.172,1.172,0,0,1,0,2.344h-13.62a1.172,1.172,0,0,1,0-2.344Z" transform="translate(-264.094 -278.951)"/>
    </g>
  </g>
</svg>
