<svg id="lista-de-verificacion" xmlns="http://www.w3.org/2000/svg" width="80" height="80" viewBox="0 0 80 80">
  <path id="Trazado_145923" data-name="Trazado 145923" d="M312.774,363.452v10.323H296v-6.026a3.387,3.387,0,0,0,1.032-1.665l1.381-5.045a17.272,17.272,0,0,1,3.3.762l2.181.722a17.92,17.92,0,0,0,5.716.929,16.658,16.658,0,0,0,3.11-.284Zm0,0" transform="translate(-248.258 -302.807)" fill="#ccd1d9"/>
  <path id="Trazado_145924" data-name="Trazado 145924" d="M326.439,288.761a2.582,2.582,0,0,1-1.832,4.4H322L323.394,288h1.213A2.577,2.577,0,0,1,326.439,288.761Zm0,0" transform="translate(-270.065 -241.548)" fill="#ccd1d9"/>
  <path id="Trazado_145925" data-name="Trazado 145925" d="M235.489,288.077l-1.368,5.084h-4.09a5.2,5.2,0,0,0-3.652,1.51l-.219-.219,4.942-4.942a5.166,5.166,0,0,1,3.652-1.51h.439Zm0,0" transform="translate(-189.683 -241.548)" fill="#e6e9ed"/>
  <path id="Trazado_145926" data-name="Trazado 145926" d="M203.657,248.193l-1.716,6.336-.3-.077h-.439a5.166,5.166,0,0,0-3.652,1.51l-4.942,4.942-1.768,1.78a2.735,2.735,0,0,1-1.935.8,2.783,2.783,0,0,1-1.948-.8,2.726,2.726,0,0,1,.013-3.871l9.291-9.3a5.166,5.166,0,0,1,3.652-1.51h3.019Zm0,0" transform="translate(-156.134 -208)" fill="#f0d0b4"/>
  <path id="Trazado_145927" data-name="Trazado 145927" d="M141.677,45.419V15.742H112V8h46.452V50.581l-.09.129-4.71-3.136a5.12,5.12,0,0,0-2.864-.864h-1.78l2.49-9.2,1.381-5.135,1.935-7.162a3.51,3.51,0,0,0,.116-.89,3.414,3.414,0,0,0-3.407-3.419H151.1a3.407,3.407,0,0,0-3.29,2.529l-1.794,6.658-1.394,5.122-2.774,10.258Zm0,0" transform="translate(-93.935 -6.71)" fill="#ccd1d9"/>
  <path id="Trazado_145928" data-name="Trazado 145928" d="M54.452,85.677l.168.052-.387,1.432-.723-.193H50.491a5.166,5.166,0,0,0-3.652,1.51l-9.291,9.3a2.726,2.726,0,0,0-.013,3.871,2.783,2.783,0,0,0,1.948.8,2.735,2.735,0,0,0,1.935-.8l1.768-1.78.219.219a5.2,5.2,0,0,0-1.51,3.652,1.294,1.294,0,0,0,1.29,1.29h6.219l-.929,3.432a3.531,3.531,0,0,0-.129.89,3.425,3.425,0,0,0,3.419,3.419h.426a3.394,3.394,0,0,0,2.258-.864v13.768H8V56H54.452Zm0,0" transform="translate(-6.71 -46.968)" fill="#e6e9ed"/>
  <path id="Trazado_145929" data-name="Trazado 145929" d="M40,88H70.968V98.323H40Zm0,0" transform="translate(-33.548 -73.806)" fill="#ffa726"/>
  <path id="Trazado_145930" data-name="Trazado 145930" d="M49.032,352H52.9v12.9H40V352Zm0,0" transform="translate(-33.548 -295.226)" fill="#4dd0e1"/>
  <path id="Trazado_145931" data-name="Trazado 145931" d="M49.032,216H52.9v12.9H40V216Zm0,0" transform="translate(-33.548 -181.161)" fill="#4dd0e1"/>
  <path id="Trazado_145932" data-name="Trazado 145932" d="M331.8,91.419a3.511,3.511,0,0,1-.116.89l-1.935,7.162-6.865-2.284,1.794-6.658A3.407,3.407,0,0,1,327.963,88h.426A3.414,3.414,0,0,1,331.8,91.419Zm0,0" transform="translate(-270.802 -73.806)" fill="#ffa726"/>
  <path id="Trazado_145933" data-name="Trazado 145933" d="M322.5,147.245l-1.381,5.135-6.878-2.3,1.394-5.122Zm0,0" transform="translate(-263.555 -121.58)" fill="#e6e9ed"/>
  <path id="Trazado_145934" data-name="Trazado 145934" d="M264.263,366.878a3.393,3.393,0,0,1-2.258.864h-.426a3.425,3.425,0,0,1-3.419-3.419,3.532,3.532,0,0,1,.129-.89l.929-3.432h5.045a16.759,16.759,0,0,1,2.413.168l-1.381,5.045A3.387,3.387,0,0,1,264.263,366.878Zm0,0" transform="translate(-216.521 -301.935)" fill="#ffca28"/>
  <path id="Trazado_145935" data-name="Trazado 145935" d="M286.152,188.216l-3.136,11.613h-7.5l1.368-5.084,1.716-6.336.387-1.432,2.774-10.258,6.878,2.3Zm0,0" transform="translate(-231.081 -148.216)" fill="#ffca28"/>
  <path id="Trazado_145936" data-name="Trazado 145936" d="M233.128,266.232a16.758,16.758,0,0,0-2.413-.168H219.45a1.294,1.294,0,0,1-1.29-1.29,5.154,5.154,0,0,1,5.161-5.161h14.194a2.581,2.581,0,1,0,0-5.161H236.3L238.044,248h1.78a5.12,5.12,0,0,1,2.864.864L247.4,252l4.309,2.877a5.122,5.122,0,0,0,2.865.864h8.4v10.323H259.1a17.93,17.93,0,0,0-4.387.542l-6,1.5c-.426.1-.852.193-1.278.258a16.658,16.658,0,0,1-3.11.284,17.92,17.92,0,0,1-5.716-.929l-2.181-.722A17.272,17.272,0,0,0,233.128,266.232Zm0,0" transform="translate(-182.973 -208)" fill="#f0d0b4"/>
  <path id="Trazado_145937" data-name="Trazado 145937" d="M56.855,41.29a3.856,3.856,0,0,1,2.147.65l9.011,6.008a6.444,6.444,0,0,0,3.579,1.084H80V46.452H71.595a3.862,3.862,0,0,1-2.148-.65l-3.64-2.427V0H16.774V7.742H0V80H49.032V72.258H65.806V61.4c.081-.02.165-.026.246-.047l6-1.5a16.874,16.874,0,0,1,4.075-.5H80V56.774H76.129a19.407,19.407,0,0,0-4.7.578l-6,1.5a16.868,16.868,0,0,1-9.384-.36l-2.174-.725a19.333,19.333,0,0,0-6.127-.994H36.482A3.876,3.876,0,0,1,40.353,52.9H54.547a3.861,3.861,0,0,0,.453-7.7l1.059-3.916Zm-1.63,19.65a19.315,19.315,0,0,0,6.128.995c.626,0,1.251-.054,1.872-.115v7.857H49.032V65.457a4.654,4.654,0,0,0,.992-1.84L51.081,59.7a16.653,16.653,0,0,1,1.971.513ZM48.5,59.384l-.961,3.558a2.131,2.131,0,0,1-2.054,1.573h-.418a2.126,2.126,0,0,1-2.053-2.681l.67-2.48h4.063C47.993,59.355,48.244,59.374,48.5,59.384ZM41,59.355l-.488,1.805a4.677,4.677,0,0,0,2.216,5.3l-.405,1.618,2.5.626.4-1.6h.248a4.687,4.687,0,0,0,.972-.113V77.419H2.581v-67.1H19.355V2.581H63.226V41.654l-2.791-1.861a6.441,6.441,0,0,0-3.579-1.084h-.1l5.37-19.87A4.71,4.71,0,0,0,57.582,12.9h-.418a4.716,4.716,0,0,0-4.544,3.48L49.032,29.655V7.742h-27.1v2.581H46.452V38.71H43.783A6.382,6.382,0,0,0,39.95,40H27.1v2.581H37.239l-2.581,2.581H27.1v2.581h4.982L29.923,49.9a4,4,0,0,0,4,6.689c0,.063-.02.123-.02.187a2.583,2.583,0,0,0,2.581,2.581Zm9.94-9.032H46.12l5.449-20.16,4.426,1.475Zm-9.9-7.9a3.847,3.847,0,0,1,2.738-1.133h2.1l-1.053,3.894a6.39,6.39,0,0,0-4.324,1.866l-6.719,6.719a1.447,1.447,0,0,1-2.471-1.022,1.437,1.437,0,0,1,.425-1.023Zm1.29,6.452a3.83,3.83,0,0,1,1.772-1l-.661,2.445H40.889Zm17.3-30.708-1.58,5.846-4.426-1.475,1.481-5.481a2.133,2.133,0,0,1,2.054-1.573h.418a2.128,2.128,0,0,1,2.053,2.683Zm-6.68,6.867,4.426,1.475-.713,2.634-4.426-1.475Zm1.592,22.709a1.29,1.29,0,0,1,0,2.581h-.93l.7-2.581Zm0,0"/>
  <path id="Trazado_145938" data-name="Trazado 145938" d="M65.548,80H32V92.9H65.548ZM62.968,90.323H34.581V82.581H62.968Zm0,0" transform="translate(-26.839 -67.097)"/>
  <path id="Trazado_145939" data-name="Trazado 145939" d="M64,112h2.581v2.581H64Zm0,0" transform="translate(-53.677 -93.935)"/>
  <path id="Trazado_145940" data-name="Trazado 145940" d="M96,112h2.581v2.581H96Zm0,0" transform="translate(-80.516 -93.935)"/>
  <path id="Trazado_145941" data-name="Trazado 145941" d="M128,112h2.581v2.581H128Zm0,0" transform="translate(-107.355 -93.935)"/>
  <path id="Trazado_145942" data-name="Trazado 145942" d="M160,112h2.581v2.581H160Zm0,0" transform="translate(-134.194 -93.935)"/>
  <path id="Trazado_145943" data-name="Trazado 145943" d="M192,112h2.581v2.581H192Zm0,0" transform="translate(-161.032 -93.935)"/>
  <path id="Trazado_145944" data-name="Trazado 145944" d="M47.484,215.742H44.9V220.9H34.581V210.581h7.742V208H32v15.484H47.484Zm0,0" transform="translate(-26.839 -174.452)"/>
  <path id="Trazado_145945" data-name="Trazado 145945" d="M73.828,178.344,61.837,190.335l-1.668-1.668-1.825,1.825,3.493,3.493,13.816-13.816Zm0,0" transform="translate(-48.933 -149.579)"/>
  <path id="Trazado_145946" data-name="Trazado 145946" d="M44.9,356.9H34.581V346.581h7.742V344H32v15.484H47.484v-7.742H44.9Zm0,0" transform="translate(-26.839 -288.516)"/>
  <path id="Trazado_145947" data-name="Trazado 145947" d="M60.168,324.666l-1.825,1.825,3.493,3.493,13.816-13.816-1.825-1.825L61.837,326.335Zm0,0" transform="translate(-48.933 -263.643)"/>
  <path id="Trazado_145948" data-name="Trazado 145948" d="M256,440h2.581v2.581H256Zm0,0" transform="translate(-214.71 -369.032)"/>
  <path id="Trazado_145949" data-name="Trazado 145949" d="M152,440h14.194v2.581H152Zm0,0" transform="translate(-127.484 -369.032)"/>
  <path id="Trazado_145950" data-name="Trazado 145950" d="M168,216h16.774v2.581H168Zm0,0" transform="translate(-140.903 -181.161)"/>
</svg>
