<svg id="voto-positivo" xmlns="http://www.w3.org/2000/svg" width="81.209" height="82.485" viewBox="0 0 81.209 82.485">
  <path id="Trazado_145780" data-name="Trazado 145780" d="M80.516,92.806A36.028,36.028,0,1,1,44.488,56.777,36.029,36.029,0,0,1,80.516,92.806Zm0,0" transform="translate(-7.178 -47.63)" fill="#ffca28"/>
  <path id="Trazado_145782" data-name="Trazado 145782" d="M230,50.061,209.422,63.685a7.006,7.006,0,0,1-4.977,1.079,7.029,7.029,0,0,0-4.989,1.076L196.7,67.664,181.285,44.936l3.783-16.343a17.051,17.051,0,0,0-2.4-13.264,4.078,4.078,0,0,1,6.238-5.18l2.451,2.374a26.2,26.2,0,0,1,6.323,9.691l1.329,3.578L212.7,16.751a4.666,4.666,0,0,1,6.538,1.424,4.728,4.728,0,0,1-1.466,6.41.051.051,0,0,0-.019.065.052.052,0,0,0,.067.026,4.623,4.623,0,0,1,1.668-.31,4.664,4.664,0,0,1,4.581,5.571,4.769,4.769,0,0,1-1.957,2.955.1.1,0,0,0-.026.138,0,0,0,0,0,0,0,.1.1,0,0,0,.132.026,4.783,4.783,0,0,1,1.132-.133,4.919,4.919,0,0,1,2.632.763,4.584,4.584,0,0,1,1.361,1.335,4.665,4.665,0,0,1-1.315,6.466c-.053.036-.106.072-.159.106a.073.073,0,0,0-.024.091.044.044,0,0,0,.017.017.075.075,0,0,0,.093,0,4.569,4.569,0,0,1,3.959.51,4.738,4.738,0,0,1,1.393,1.382A4.668,4.668,0,0,1,230,50.061Zm0,0" transform="translate(-152.16 -7.55)" fill="#fdd7bd"/>
  <path id="Trazado_145783" data-name="Trazado 145783" d="M53.682,242.863,45,248.61l-12.53,8.3a36.067,36.067,0,0,1-21.911-28.346l14.541-9.63,8.852-5.862a2.214,2.214,0,0,1,3.069.626l17.283,26.1A2.217,2.217,0,0,1,53.682,242.863Zm0,0" transform="translate(-8.941 -178.435)" fill="#4dd0e1"/>
  <path id="Trazado_145784" data-name="Trazado 145784" d="M129.4,242.863l-8.679,5.748-19.9-29.678,8.852-5.862a2.214,2.214,0,0,1,3.069.626l17.283,26.1A2.217,2.217,0,0,1,129.4,242.863Zm0,0" transform="translate(-84.662 -178.435)" fill="#4dd0e1"/>
  <g id="Grupo_85099" data-name="Grupo 85099" transform="translate(60.193 16.817)">
    <path id="Trazado_145785" data-name="Trazado 145785" d="M383.807,105.136l-6.846,3.663a2.218,2.218,0,0,1-2.829-.636l5.4-3.492a.051.051,0,0,0,.067.026,4.623,4.623,0,0,1,1.668-.31A4.7,4.7,0,0,1,383.807,105.136Zm0,0" transform="translate(-374.133 -104.387)" fill="#fac5aa"/>
    <path id="Trazado_145786" data-name="Trazado 145786" d="M409.135,158.29l-6.7,3.581a2.216,2.216,0,0,1-2.829-.634l5.4-3.492.233-.11a.1.1,0,0,0,.132.026,4.791,4.791,0,0,1,1.132-.133A4.91,4.91,0,0,1,409.135,158.29Zm0,0" transform="translate(-395.505 -148.966)" fill="#fac5aa"/>
    <path id="Trazado_145787" data-name="Trazado 145787" d="M437.7,211.256l-5.9,3.155a2.219,2.219,0,0,1-2.828-.636l4.675-3.025a.075.075,0,0,0,.092,0A4.569,4.569,0,0,1,437.7,211.256Zm0,0" transform="translate(-420.138 -193.411)" fill="#fac5aa"/>
  </g>
  <path id="Trazado_145788" data-name="Trazado 145788" d="M80.718,35.337a5.908,5.908,0,0,0-3.659-2.519A5.942,5.942,0,0,0,73.1,24.253a5.956,5.956,0,0,0-.308-6.053,5.9,5.9,0,0,0-3.659-2.519,5.948,5.948,0,0,0-8.55-7.725l-5.922,3.922a37.005,37.005,0,0,0-10-3.384,27.493,27.493,0,0,0-3.815-4.616L38.394,1.5a5.361,5.361,0,0,0-8.2,6.809q.1.146.189.294A37.312,37.312,0,1,0,72.911,57.849a1.282,1.282,0,1,0-2.412-.871A34.792,34.792,0,0,1,26.838,78.153l10.435-6.91h0L45.949,65.5h0a3.5,3.5,0,0,0,.986-4.848l-.115-.174,1.685-1.116a5.713,5.713,0,0,1,4.071-.88,8.269,8.269,0,0,0,5.893-1.274l13.973-9.253a34.821,34.821,0,0,1-.473,3.6A1.282,1.282,0,0,0,73,53.049a1.251,1.251,0,0,0,.235.022,1.283,1.283,0,0,0,1.259-1.049,37.51,37.51,0,0,0,.613-5.833l3.938-2.608a5.949,5.949,0,0,0,1.675-8.245ZM52.168,13.527l-3.919,2.6-.772-2.079a27.449,27.449,0,0,0-1.1-2.549A34.428,34.428,0,0,1,52.168,13.527ZM11.554,22.418A34.748,34.748,0,0,1,31.61,10.983a15.845,15.845,0,0,1,.8,9.6L29.282,34.089a3.491,3.491,0,0,0-4.476-.522l-8.858,5.865h0L3.171,47.893c-.07-.9-.106-1.809-.106-2.717A34.735,34.735,0,0,1,11.554,22.418ZM44.933,62.765a.929.929,0,0,1-.4.593h0L36.916,68.4,22.779,47.318a1.282,1.282,0,0,0-2.13,1.429L34.777,69.819,23.9,77.02A34.853,34.853,0,0,1,3.507,50.7L16.3,42.257l1.472,2.2A1.283,1.283,0,1,0,19.9,43.024l-1.462-2.181,7.785-5.138a.933.933,0,0,1,1.293.264L44.8,62.066A.925.925,0,0,1,44.933,62.765ZM79.074,39.3a3.361,3.361,0,0,1-1.448,2.148l-4.5,2.981,0,0L57.054,55.067a5.71,5.71,0,0,1-4.071.88,8.274,8.274,0,0,0-5.893,1.274L45.4,58.337,31.25,36.964l3.659-15.805a18.428,18.428,0,0,0-1.349-12.1,1.257,1.257,0,0,0-.054-.114A18.142,18.142,0,0,0,32.332,6.9a2.8,2.8,0,0,1,4.277-3.551l2.45,2.375a25.059,25.059,0,0,1,6.014,9.216l1.334,3.594.008.019.01.025c.009.022.018.042.028.059a1.266,1.266,0,0,0,.088.159,1.282,1.282,0,0,0,1.777.361L62,10.1a3.384,3.384,0,0,1,3.737,5.642l-1.188.787h0L61.9,18.279l-.01.007c-.015.011-.03.021-.042.031a1.282,1.282,0,0,0,1.468,2.1l2.651-1.756A3.384,3.384,0,0,1,69.7,24.306L65.86,26.848a1.282,1.282,0,1,0,1.416,2.138l.594-.393,2.055-1.361a3.384,3.384,0,0,1,3.737,5.643l-1.917,1.269-.03.02-1.89,1.252a1.283,1.283,0,1,0,1.416,2.139l.594-.393h0L73.891,35.8A3.383,3.383,0,0,1,79.074,39.3Zm0,0" transform="translate(-0.5 0)"/>
</svg>
