<svg xmlns="http://www.w3.org/2000/svg" width="504.839" height="297.37" viewBox="0 0 504.839 297.37">
  <g id="Grupo_85101" data-name="Grupo 85101" transform="translate(-825.694 -1296.235)">
    <path id="Trazado_145868" data-name="Trazado 145868" d="M1330.533,1800.406a2.479,2.479,0,0,1-.748,1.774,2.552,2.552,0,0,1-1.8.735l-499.74-.851a2.531,2.531,0,0,1-2.55-2.509,2.472,2.472,0,0,1,.748-1.774,2.551,2.551,0,0,1,1.8-.735l499.74.851A2.528,2.528,0,0,1,1330.533,1800.406Z" transform="translate(0 -209.311)" fill="#26a69a"/>
    <path id="Trazado_145869" data-name="Trazado 145869" d="M1287.214,1496.467a122.087,122.087,0,0,1-114.976,80.719h-106.99v-22.444h106.99a100.13,100.13,0,0,0,73.259-32.016,97.58,97.58,0,0,0,26.024-74.554c-3.948-51.085-47.231-91.1-98.538-91.1v-22.444a121.138,121.138,0,0,1,114.23,161.841Z" transform="translate(-79.912 -16.04)" fill="#039be5"/>
    <path id="Trazado_145870" data-name="Trazado 145870" d="M1225.443,1363.382l-58.142-33.574,58.142-33.574Z" transform="translate(-122.548)" fill="#039be5"/>
    <path id="Trazado_145871" data-name="Trazado 145871" d="M1061.826,1458.848a97.587,97.587,0,0,0,26.024,74.554,99.881,99.881,0,0,0,31.953,23.039h-40.539q-4.1-3.7-7.884-7.793a121.164,121.164,0,0,1,30.732-188.468L1126,1373.974C1090.92,1387.124,1064.849,1419.744,1061.826,1458.848Z" transform="translate(-68.979 -26.716)" fill="#4dd0e1"/>
    <path id="Trazado_145872" data-name="Trazado 145872" d="M1407.084,1712.7v22.444H1331.1q2.886-1.131,5.728-2.4a130.387,130.387,0,0,0,31.706-20.043Z" transform="translate(-190.984 -173.994)" fill="#4dd0e1"/>
    <path id="Trazado_145873" data-name="Trazado 145873" d="M1444.734,1741.451l58.142-33.574-58.142-33.574Z" transform="translate(-238.457 -157.954)" fill="#4dd0e1"/>
    <path id="Trazado_145874" data-name="Trazado 145874" d="M1249.584,1488.081l18.867-10.769-8.788-21.272-20.953,5.659a55.086,55.086,0,0,0-10.168-10.22l5.711-20.936L1213,1421.7l-10.8,18.831a54.632,54.632,0,0,0-14.41-.035l-10.769-18.849-21.272,8.788,5.659,20.953a55.068,55.068,0,0,0-10.221,10.167l-20.936-5.712-8.841,21.254,18.831,10.8a53.835,53.835,0,0,0-.017,14.411l-18.867,10.768,8.788,21.272,20.953-5.658a54.5,54.5,0,0,0,10.167,10.2l-5.711,20.953,21.254,8.823,10.8-18.814a54.6,54.6,0,0,0,14.41.018l10.769,18.867,21.271-8.788-5.659-20.953a54.429,54.429,0,0,0,10.2-10.167l20.954,5.711,8.841-21.254-18.831-10.8A53.836,53.836,0,0,0,1249.584,1488.081Zm-54.693,43.73a36.613,36.613,0,1,1,36.624-36.624A36.6,36.6,0,0,1,1194.891,1531.81Z" transform="translate(-103.352 -52.397)" fill="#ffca28"/>
    <path id="Trazado_145875" data-name="Trazado 145875" d="M1259.647,1510.349l-20.093,24.886a1.433,1.433,0,0,1-2.311-.109l-4.884-7.373c-.868-1.309-3.168-1.191-5.052.261s-2.584,3.645-1.54,4.818l10.96,12.7a1.642,1.642,0,0,0,2.648-.224l20.869-34.543C1260.4,1510.5,1259.841,1510.111,1259.647,1510.349Z" transform="translate(-146.772 -89.424)" fill="#ffa726"/>
    <path id="Trazado_145876" data-name="Trazado 145876" d="M1230.835,1554.606a23.474,23.474,0,1,1,10.087-44.677,1.524,1.524,0,1,1-1.311,2.752,20.429,20.429,0,1,0,11.65,18.45,20.563,20.563,0,0,0-.55-4.729,1.524,1.524,0,0,1,2.966-.7,23.567,23.567,0,0,1,.632,5.432,23.475,23.475,0,0,1-23.475,23.475Z" transform="translate(-139.285 -88.33)" fill="#f0c82f"/>
    <path id="Trazado_145877" data-name="Trazado 145877" d="M1005.1,1496.126c-3.538-.875-7.06-1.775-10.533-2.747s-6.9-2-10.2-3.2a59.738,59.738,0,0,1-9.311-4.183,36.37,36.37,0,0,1-7.632-5.729,43.65,43.65,0,0,1-5.9-7.54,86.811,86.811,0,0,1-4.822-8.9c-.367-.789-.748-1.553-1.1-2.359l-1.072-2.4c-.694-1.627-1.4-3.236-2.066-4.892-1.358-3.283-2.664-6.637-3.961-10-1.739-4.23-7.022-6.043-11.642-3.919h0c-4.611,2.119-6.678,7.348-4.47,11.5,1.818,3.23,3.652,6.462,5.576,9.694.946,1.615,1.948,3.231,2.933,4.842l1.534,2.415c.5.8,1.058,1.606,1.584,2.408a99.935,99.935,0,0,0,7.079,9.446,55.6,55.6,0,0,0,8.952,8.472,47.185,47.185,0,0,0,10.832,5.9,68.917,68.917,0,0,0,11.259,3.216c3.731.762,7.427,1.307,11.1,1.78s7.338.86,10.99,1.217a2.465,2.465,0,0,0,2.6-2.144h0A2.477,2.477,0,0,0,1005.1,1496.126Z" transform="translate(-24.033 -59.8)" fill="#d27f94"/>
    <path id="Trazado_145878" data-name="Trazado 145878" d="M940.392,1474.8l-9.563-19.325c-2.892-5.845-.987-12.894,4.858-15.787h0A12.363,12.363,0,0,1,952,1445l9.563,19.325Z" transform="translate(-23.196 -59.419)" fill="#ffa726"/>
    <path id="Trazado_145879" data-name="Trazado 145879" d="M952.691,1444.212a13.029,13.029,0,0,0-15.712-6.245,12.4,12.4,0,0,0-1.507.624,11.6,11.6,0,0,0-5.769,6.359l.848-.289a10.921,10.921,0,0,1,5.222-5.46,12.362,12.362,0,0,1,16.311,5.31l.251.506.646-.219Zm4.224,8.538-.646.22,5.378,10.868-8.542,4.224.221.649,9.228-4.566Zm-24.794,4.677-.646.219,8.695,17.572,3.659-1.811-.219-.646-3.131,1.549Z" transform="translate(-23.282 -58.929)" fill="#00104e"/>
    <path id="Trazado_145880" data-name="Trazado 145880" d="M975.512,1792.159H998.79a3.58,3.58,0,0,0-.654-2.182,3.683,3.683,0,0,0-2.333-1.242,22.352,22.352,0,0,0-2.7-.157,14.3,14.3,0,0,1-6.315-1.829,21.383,21.383,0,0,0-3.033-1.655l-6.344.167a7.274,7.274,0,0,0-1.695,3.42A12.81,12.81,0,0,0,975.512,1792.159Z" transform="translate(-42.406 -204.242)" fill="#111662"/>
    <path id="Trazado_145881" data-name="Trazado 145881" d="M897.661,1792.159h23.277a3.579,3.579,0,0,0-.654-2.182,3.683,3.683,0,0,0-2.333-1.242,22.349,22.349,0,0,0-2.7-.157,14.3,14.3,0,0,1-6.316-1.829,21.386,21.386,0,0,0-3.033-1.655l-6.344.167a7.274,7.274,0,0,0-1.695,3.42A12.815,12.815,0,0,0,897.661,1792.159Z" transform="translate(-9.881 -204.242)" fill="#111662"/>
    <path id="Trazado_145882" data-name="Trazado 145882" d="M949.539,1695.44l-2.529-71.734s-.087-1.287-.119-1.482l-6.2-49.788c-.424-6.246-50.064,3.661-50.064,3.661l5.561,119.55,8.209-.262,11.58-97.621,13.908,27.537,11.254,70.346Z" transform="translate(-6.956 -114.532)" fill="#111662"/>
    <path id="Trazado_145883" data-name="Trazado 145883" d="M909.763,1434.564h0a21.794,21.794,0,0,1,25.026,20.1l4.411,60.933c-19.648,11.089-31.847,8.418-50.064,3.661l-2.06-57.307A26.726,26.726,0,0,1,909.763,1434.564Z" transform="translate(-5.465 -57.688)" fill="#ffa726"/>
    <path id="Trazado_145884" data-name="Trazado 145884" d="M886.959,1467.218h-.678l1,27.835h.682Zm51.183,28.361-.678.051,1.411,19.477c-18.616,10.505-30.545,8.66-47.244,4.389l.023.706c7.86,2,14.25,3.362,20.915,3.362,8.786,0,17-2.425,26.638-7.866l.377-.21Zm-25.39-61.752a21.942,21.942,0,0,1,10.609,2.776,21.632,21.632,0,0,1,11.1,17.569l1.35,18.656h.678l-1.353-18.7a22.463,22.463,0,0,0-25.8-20.722c-.081.014-.16.024-.241.037l-.051.7c.129-.024.261-.044.394-.064A22.056,22.056,0,0,1,912.752,1433.827Z" transform="translate(-5.141 -57.202)" fill="#00104e"/>
    <path id="Trazado_145885" data-name="Trazado 145885" d="M931.92,1422.906l-1.954,15.385a8.6,8.6,0,0,1-10.024-1.273l1.954-15.385Z" transform="translate(-19.204 -52.39)" fill="#e5bbc5"/>
    <path id="Trazado_145886" data-name="Trazado 145886" d="M932.946,1422.906l-.884,6.959a8.18,8.18,0,0,1-2.31.23q-.383-.018-.761-.066a9.09,9.09,0,0,1-6.594-4.267l.525-4.129Z" transform="translate(-20.229 -52.39)" fill="#d27f94"/>
    <path id="Trazado_145887" data-name="Trazado 145887" d="M937.347,1401.427l-1.061,6.4-.429,2.589a7.2,7.2,0,0,1-7.409,6.018,8.069,8.069,0,0,1-3.379-.9c-.238-.123-.469-.259-.691-.4-.139-.09-.275-.182-.408-.281a7.909,7.909,0,0,1-2.786-3.833c-.444-1.321-.836-2.766-1.194-4.283-.207-.868-.4-1.759-.586-2.664a10.947,10.947,0,0,1,3.712-10.735c2.694-2.188,5.783-2.58,9.292-1.046A8.46,8.46,0,0,1,937.347,1401.427Z" transform="translate(-18.88 -39.742)" fill="#e5bbc5"/>
    <path id="Trazado_145888" data-name="Trazado 145888" d="M934.471,1396.78a3.522,3.522,0,0,0,.89-2.805,6.542,6.542,0,0,1,.321-3.024c.574-1.168,1.917-1.72,2.258-2.992.334-1.245-.487-2.351-1.243-3.174l-6.034-6.563a9.56,9.56,0,0,0-2.715-2.307,3.106,3.106,0,0,0-3.35.3c-.522.43-.926,1.058-1.464,1.457-1.216.9-2.693.408-4.005.033a6.87,6.87,0,0,0-5.012.116,4.98,4.98,0,0,0-2.666,4.863,10.243,10.243,0,0,0,.982,2.521,3.732,3.732,0,0,1,.266,2.742c-.455,1.22-1.688,1.669-2.65,2.364a6.694,6.694,0,0,0-2.544,4.559,6.011,6.011,0,0,0,1.464,4.808,2.354,2.354,0,0,0,3.567.114c1.081-1.372.7-4,2.1-4.824,1.683-.99,3.344,2.205,5.012,1.174.893-.552,1.132-2,1.92-2.759,1.04-1,2.41-.428,3.45-.031a18.668,18.668,0,0,0,3.381.885,5.71,5.71,0,0,1,2.754,1.428C932.044,1396.425,933.242,1397.682,934.471,1396.78Z" transform="translate(-13.99 -33.144)" fill="#111662"/>
    <ellipse id="Elipse_4199" data-name="Elipse 4199" cx="3.369" cy="3.786" rx="3.369" ry="3.786" transform="translate(897.546 1367.177) rotate(-82.761)" fill="#e5bbc5"/>
    <path id="Trazado_145889" data-name="Trazado 145889" d="M986.118,1510.337c-1.646-.005-3.315-.056-4.928-.107l-1.182-.036c-.656-.022-1.311-.057-1.965-.092-.359-.019-.717-.039-1.075-.055l-1.515-.079-1.512-.115c-.357-.03-.715-.056-1.073-.081-.638-.046-1.3-.094-1.941-.167l-2.994-.312-2.97-.4c-.631-.083-1.265-.2-1.879-.3-.351-.062-.7-.125-1.051-.181a64.742,64.742,0,0,1-11.224-3.008,43.732,43.732,0,0,1-9.874-5.15c-5.389-3.8-10.107-9.1-14.848-16.667-1.854-2.954-3.756-6.31-5.817-10.258-1.632-3.162-3.322-6.6-5.32-10.827a8.921,8.921,0,0,0-5.161-4.582,7.466,7.466,0,0,0-5.842.42,7.322,7.322,0,0,0-3.646,4.562,8.974,8.974,0,0,0,.984,6.991c2.563,4.165,4.722,7.555,6.795,10.672,2.736,4.076,5.142,7.4,7.571,10.462a85.543,85.543,0,0,0,8.977,9.8,56.8,56.8,0,0,0,11.005,8.025,53.011,53.011,0,0,0,12.588,4.9,72.971,72.971,0,0,0,12.909,1.985c.369.019.738.043,1.107.067.686.044,1.4.09,2.092.106l3.185.079,3.163-.02h.048c.67,0,1.347-.026,2-.051.368-.014.737-.027,1.107-.037l1.575-.053,1.566-.091q.549-.034,1.1-.065c.677-.038,1.354-.077,2.029-.129l1.152-.092c1.664-.131,3.385-.268,5.068-.448a2.42,2.42,0,0,0,2.289-2.435A2.452,2.452,0,0,0,986.118,1510.337Z" transform="translate(-10.864 -67.379)" fill="#e4bac4"/>
    <path id="Trazado_145890" data-name="Trazado 145890" d="M909.61,1490.775,899,1472.949c-3.211-5.392-1.909-12.3,3.483-15.508l.466-.069a11.363,11.363,0,0,1,15.577,3.95l10.615,17.826Z" transform="translate(-9.728 -66.652)" fill="#ffa726"/>
    <path id="Trazado_145891" data-name="Trazado 145891" d="M918.611,1460.52a12.076,12.076,0,0,0-10.334-5.869,11.915,11.915,0,0,0-3.023.388l.278.6a11.362,11.362,0,0,1,12.517,5.21l2.785,4.677.578-.306Zm8.411,14.123-.578.307,2.223,3.731-11.865,7.063.317.571,12.442-7.409ZM900.943,1457.7l-.32-.575a11.163,11.163,0,0,0-4.22,6.652,12.52,12.52,0,0,0,1.56,9.041l8.356,14.029.624-.225-8.418-14.136C895.535,1467.465,896.455,1461.137,900.943,1457.7Z" transform="translate(-9.258 -66.185)" fill="#00104e"/>
    <rect id="Rectángulo_31814" data-name="Rectángulo 31814" width="2.069" height="61.621" transform="matrix(0.161, -0.987, 0.987, 0.161, 919.484, 1435.761)" fill="#111662"/>
    <path id="Trazado_145892" data-name="Trazado 145892" d="M1030.066,1524.164l-37.775-6.158L1009,1488.989l37.775,6.157Z" transform="translate(-49.431 -80.531)" fill="#3965be"/>
    <path id="Trazado_145893" data-name="Trazado 145893" d="M1038.291,1519.8c-1.285,3.045-3.241,5.128-4.369,4.652s-1-3.33.285-6.376,3.241-5.128,4.369-4.652S1039.577,1516.75,1038.291,1519.8Z" transform="translate(-66.502 -90.71)" fill="#fff"/>
    <path id="Trazado_145894" data-name="Trazado 145894" d="M938.653,1522.907c.708.712,1.419,1.393,2.131,2.051a56.723,56.723,0,0,0,11,8.025,52.936,52.936,0,0,0,12.589,4.9,72.33,72.33,0,0,0,12.6,1.962l2.413-7.092c-.054-.008-.1-.019-.153-.027-.352-.061-.7-.122-1.052-.18a64.949,64.949,0,0,1-11.223-3.011,43.6,43.6,0,0,1-9.873-5.148,46.952,46.952,0,0,1-9.5-9.093c-.44.616-.895,1.217-1.358,1.817a21.468,21.468,0,0,1-2.123,2.475,11.14,11.14,0,0,1-2.127,1.9l-1.472.841A7.886,7.886,0,0,1,938.653,1522.907Z" transform="translate(-27.021 -91.522)" fill="#e4bac4"/>
    <rect id="Rectángulo_31815" data-name="Rectángulo 31815" width="43.536" height="31.663" transform="translate(991.515 1328.707) rotate(180)" fill="#5799e3"/>
    <path id="Trazado_145895" data-name="Trazado 145895" d="M1001.082,1352.01V1364.1l17.151-12.093Z" transform="translate(-53.103 -23.302)" fill="#3965be"/>
    <rect id="Rectángulo_31816" data-name="Rectángulo 31816" width="3.665" height="3.665" transform="translate(983.782 1314.708) rotate(180)" fill="#fff"/>
    <rect id="Rectángulo_31817" data-name="Rectángulo 31817" width="3.665" height="3.665" transform="translate(975.647 1314.708) rotate(180)" fill="#fff"/>
    <rect id="Rectángulo_31818" data-name="Rectángulo 31818" width="3.665" height="3.665" transform="translate(967.511 1314.708) rotate(180)" fill="#fff"/>
    <rect id="Rectángulo_31819" data-name="Rectángulo 31819" width="3.665" height="3.665" transform="translate(959.376 1314.708) rotate(180)" fill="#fff"/>
  </g>
</svg>
